<svg version="1.1" xmlns="http://www.w3.org/2000/svg" viewBox="0 0 547.4862376600959 361.0736255161396" width="547.4862376600959" height="361.0736255161396">
  <!-- svg-source:excalidraw -->
  
  <defs>
    <style class="style-fonts">
      @font-face {
        font-family: "Virgil";
        src: url("https://excalidraw.com/Virgil.woff2");
      }
      @font-face {
        font-family: "Cascadia";
        src: url("https://excalidraw.com/Cascadia.woff2");
      }
      @font-face {
        font-family: "Assistant";
        src: url("https://excalidraw.com/Assistant-Regular.woff2");
      }
    </style>
    
  </defs>
  <g stroke-linecap="round" transform="translate(10 10) rotate(0 263.74311883004793 170.5368127580698)"><path d="M7.86 8.16 C7.86 8.16, 7.86 8.16, 7.86 8.16 M7.86 8.16 C7.86 8.16, 7.86 8.16, 7.86 8.16 M2.35 20.59 C7.97 14.13, 13.59 7.67, 18.1 2.48 M2.35 20.59 C7.05 15.19, 11.76 9.78, 18.1 2.48 M0.78 28.5 C9.32 18.67, 17.87 8.84, 25.05 0.58 M0.78 28.5 C10.3 17.55, 19.82 6.6, 25.05 0.58 M0.52 34.9 C8.67 25.52, 16.83 16.14, 30.7 0.18 M0.52 34.9 C6.74 27.74, 12.96 20.59, 30.7 0.18 M0.26 41.3 C11.41 28.46, 22.57 15.63, 36.34 -0.21 M0.26 41.3 C11.28 28.62, 22.3 15.94, 36.34 -0.21 M-0.01 47.7 C11.21 34.79, 22.43 21.88, 41.33 0.15 M-0.01 47.7 C12.48 33.33, 24.96 18.97, 41.33 0.15 M0.39 53.34 C11.38 40.7, 22.37 28.05, 46.97 -0.25 M0.39 53.34 C11.25 40.84, 22.12 28.34, 46.97 -0.25 M0.13 59.74 C17.23 40.07, 34.32 20.4, 51.96 0.11 M0.13 59.74 C12.53 45.47, 24.93 31.2, 51.96 0.11 M0.52 65.38 C11.98 52.19, 23.45 39, 57.6 -0.28 M0.52 65.38 C20.04 42.92, 39.56 20.47, 57.6 -0.28 M0.26 71.78 C24.46 43.94, 48.66 16.1, 62.59 0.08 M0.26 71.78 C20.36 48.66, 40.45 25.54, 62.59 0.08 M0 78.17 C26.75 47.4, 53.5 16.63, 67.57 0.44 M0 78.17 C20.23 54.9, 40.47 31.62, 67.57 0.44 M0.39 83.82 C19.53 61.8, 38.68 39.78, 73.22 0.04 M0.39 83.82 C15.5 66.44, 30.61 49.06, 73.22 0.04 M0.13 90.22 C18.59 68.99, 37.04 47.75, 78.2 0.41 M0.13 90.22 C29.4 56.54, 58.67 22.87, 78.2 0.41 M0.53 95.86 C29.12 62.97, 57.71 30.08, 83.85 0.01 M0.53 95.86 C17.37 76.49, 34.2 57.12, 83.85 0.01 M0.26 102.26 C23.41 75.63, 46.55 49.01, 88.83 0.37 M0.26 102.26 C30.33 67.67, 60.39 33.09, 88.83 0.37 M0 108.65 C27.62 76.89, 55.23 45.13, 94.48 -0.02 M0 108.65 C34.53 68.93, 69.06 29.21, 94.48 -0.02 M0.4 114.3 C23.46 87.76, 46.53 61.23, 99.46 0.34 M0.4 114.3 C36.59 72.66, 72.79 31.02, 99.46 0.34 M0.14 120.69 C36.53 78.83, 72.93 36.96, 105.11 -0.06 M0.14 120.69 C22.02 95.52, 43.9 70.35, 105.11 -0.06 M0.53 126.34 C26.47 96.5, 52.4 66.66, 110.09 0.3 M0.53 126.34 C36.34 85.15, 72.15 43.95, 110.09 0.3 M0.27 132.74 C25.26 103.99, 50.25 75.24, 115.74 -0.09 M0.27 132.74 C45.68 80.5, 91.09 28.26, 115.74 -0.09 M0.01 139.13 C46.14 86.07, 92.27 33, 120.72 0.27 M0.01 139.13 C36.15 97.55, 72.3 55.97, 120.72 0.27 M0.4 144.78 C48.87 89.02, 97.34 33.27, 126.37 -0.13 M0.4 144.78 C29.86 110.89, 59.32 77, 126.37 -0.13 M0.14 151.17 C39.72 105.64, 79.31 60.1, 131.35 0.23 M0.14 151.17 C34.3 111.88, 68.46 72.59, 131.35 0.23 M0.54 156.82 C29 124.08, 57.46 91.34, 137 -0.16 M0.54 156.82 C54.53 94.7, 108.53 32.59, 137 -0.16 M0.27 163.22 C35.89 122.24, 71.51 81.27, 141.98 0.2 M0.27 163.22 C55.29 99.92, 110.31 36.63, 141.98 0.2 M0.01 169.61 C32.2 132.59, 64.38 95.57, 147.63 -0.2 M0.01 169.61 C58.43 102.41, 116.85 35.21, 147.63 -0.2 M0.41 175.26 C32.46 138.38, 64.52 101.5, 152.61 0.16 M0.41 175.26 C55.74 111.61, 111.07 47.96, 152.61 0.16 M0.15 181.65 C34.44 142.21, 68.73 102.76, 158.26 -0.23 M0.15 181.65 C47.99 126.61, 95.84 71.57, 158.26 -0.23 M0.54 187.3 C62.76 115.73, 124.97 44.15, 163.24 0.13 M0.54 187.3 C44.14 137.14, 87.74 86.98, 163.24 0.13 M0.28 193.69 C64.73 119.55, 129.18 45.41, 168.89 -0.27 M0.28 193.69 C40.15 147.83, 80.02 101.97, 168.89 -0.27 M0.02 200.09 C50.96 141.49, 101.91 82.88, 173.87 0.09 M0.02 200.09 C49.58 143.08, 99.13 86.07, 173.87 0.09 M0.41 205.74 C65.49 130.88, 130.56 56.02, 178.86 0.45 M0.41 205.74 C48.41 150.52, 96.4 95.31, 178.86 0.45 M0.15 212.13 C54.04 150.14, 107.92 88.15, 184.5 0.06 M0.15 212.13 C73.84 127.36, 147.53 42.59, 184.5 0.06 M0.55 217.78 C73.89 133.41, 147.23 49.04, 189.49 0.42 M0.55 217.78 C61.65 147.49, 122.75 77.2, 189.49 0.42 M0.28 224.17 C49.66 167.37, 99.04 110.56, 195.13 0.03 M0.28 224.17 C58.46 157.26, 116.63 90.34, 195.13 0.03 M0.02 230.57 C70.09 149.97, 140.15 69.37, 200.12 0.39 M0.02 230.57 C54.96 167.37, 109.9 104.17, 200.12 0.39 M0.42 236.22 C56.49 171.71, 112.56 107.21, 205.76 -0.01 M0.42 236.22 C55.79 172.52, 111.15 108.83, 205.76 -0.01 M0.16 242.61 C67.86 164.72, 135.57 86.83, 210.75 0.35 M0.16 242.61 C52.57 182.31, 104.99 122.01, 210.75 0.35 M-0.11 249.01 C80.28 156.54, 160.66 64.07, 216.39 -0.04 M-0.11 249.01 C65.42 173.63, 130.94 98.26, 216.39 -0.04 M0.29 254.65 C54.8 191.95, 109.31 129.24, 221.38 0.32 M0.29 254.65 C72 172.16, 143.71 89.67, 221.38 0.32 M0.03 261.05 C88.93 158.78, 177.84 56.51, 227.02 -0.08 M0.03 261.05 C88.29 159.52, 176.56 57.98, 227.02 -0.08 M0.42 266.69 C56.71 201.95, 112.99 137.2, 232.01 0.28 M0.42 266.69 C53.78 205.31, 107.14 143.92, 232.01 0.28 M0.16 273.09 C71.67 190.82, 143.19 108.56, 237.65 -0.11 M0.16 273.09 C52.64 212.72, 105.13 152.34, 237.65 -0.11 M-0.1 279.49 C73.24 195.12, 146.59 110.75, 242.64 0.25 M-0.1 279.49 C60.14 210.19, 120.39 140.89, 242.64 0.25 M0.29 285.13 C72.23 202.38, 144.17 119.62, 248.28 -0.15 M0.29 285.13 C73.07 201.41, 145.85 117.69, 248.28 -0.15 M0.03 291.53 C98.42 178.35, 196.8 65.18, 253.27 0.21 M0.03 291.53 C78.61 201.14, 157.19 110.75, 253.27 0.21 M0.43 297.17 C70.84 216.17, 141.25 135.17, 258.91 -0.18 M0.43 297.17 C52.69 237.05, 104.96 176.93, 258.91 -0.18 M0.17 303.57 C89.88 200.37, 179.59 97.17, 263.9 0.18 M0.17 303.57 C79.53 212.27, 158.9 120.96, 263.9 0.18 M0.56 309.22 C104.21 189.98, 207.86 70.74, 269.54 -0.22 M0.56 309.22 C93.27 202.57, 185.97 95.92, 269.54 -0.22 M0.95 314.86 C101.8 198.85, 202.65 82.84, 274.53 0.14 M0.95 314.86 C98.32 202.85, 195.69 90.84, 274.53 0.14 M1.35 320.5 C82.11 227.6, 162.86 134.7, 280.17 -0.25 M1.35 320.5 C62.66 249.97, 123.97 179.44, 280.17 -0.25 M3.06 324.63 C104.28 208.19, 205.51 91.74, 285.16 0.11 M3.06 324.63 C105.33 206.99, 207.59 89.34, 285.16 0.11 M4.76 328.77 C81.83 240.12, 158.89 151.47, 290.8 -0.28 M4.76 328.77 C98.74 220.66, 192.71 112.56, 290.8 -0.28 M7.13 332.15 C113.69 209.56, 220.25 86.98, 295.79 0.08 M7.13 332.15 C82.08 245.92, 157.04 159.69, 295.79 0.08 M10.14 334.77 C106.72 223.67, 203.3 112.58, 300.78 0.44 M10.14 334.77 C89.41 243.59, 168.68 152.4, 300.78 0.44 M13.16 337.4 C110.35 225.59, 207.54 113.79, 306.42 0.04 M13.16 337.4 C112.22 223.44, 211.29 109.48, 306.42 0.04 M17.49 338.51 C108.4 233.93, 199.31 129.36, 311.41 0.4 M17.49 338.51 C92.81 251.87, 168.12 165.24, 311.41 0.4 M21.83 339.63 C125.4 220.47, 228.98 101.32, 317.05 0.01 M21.83 339.63 C121.89 224.52, 221.95 109.41, 317.05 0.01 M26.16 340.74 C131.16 219.95, 236.17 99.15, 322.04 0.37 M26.16 340.74 C139.88 209.92, 253.6 79.1, 322.04 0.37 M31.14 341.1 C92.27 270.78, 153.4 200.46, 327.68 -0.03 M31.14 341.1 C136.9 219.44, 242.67 97.77, 327.68 -0.03 M36.13 341.46 C109.37 257.21, 182.61 172.96, 332.67 0.33 M36.13 341.46 C144.04 217.32, 251.95 93.19, 332.67 0.33 M41.77 341.07 C115.73 255.98, 189.7 170.9, 338.31 -0.06 M41.77 341.07 C141.44 226.41, 241.1 111.76, 338.31 -0.06 M46.76 341.43 C131.84 243.55, 216.92 145.68, 343.3 0.3 M46.76 341.43 C107.06 272.06, 167.36 202.69, 343.3 0.3 M52.4 341.03 C143.22 236.56, 234.03 132.09, 348.94 -0.1 M52.4 341.03 C163.3 213.46, 274.2 85.89, 348.94 -0.1 M57.39 341.39 C175.84 205.13, 294.3 68.86, 353.93 0.26 M57.39 341.39 C150.1 234.74, 242.82 128.08, 353.93 0.26 M63.03 341 C174.42 212.86, 285.81 84.72, 359.57 -0.13 M63.03 341 C127.84 266.45, 192.65 191.9, 359.57 -0.13 M68.02 341.36 C137.07 261.93, 206.11 182.5, 364.56 0.23 M68.02 341.36 C128.33 271.98, 188.64 202.6, 364.56 0.23 M73.66 340.96 C171.52 228.39, 269.37 115.82, 370.2 -0.17 M73.66 340.96 C183.28 214.87, 292.89 88.77, 370.2 -0.17 M78.65 341.32 C155.37 253.07, 232.09 164.81, 375.19 0.19 M78.65 341.32 C193.89 208.75, 309.14 76.18, 375.19 0.19 M83.64 341.68 C147.6 268.1, 211.56 194.53, 380.83 -0.2 M83.64 341.68 C196.17 212.23, 308.7 82.77, 380.83 -0.2 M89.28 341.29 C169.99 248.44, 250.7 155.59, 385.82 0.16 M89.28 341.29 C173.22 244.72, 257.17 148.15, 385.82 0.16 M94.27 341.65 C198.47 221.78, 302.67 101.91, 391.46 -0.24 M94.27 341.65 C197.85 222.49, 301.43 103.33, 391.46 -0.24 M99.91 341.25 C186.43 241.73, 272.94 142.2, 396.45 0.12 M99.91 341.25 C189.75 237.9, 279.59 134.55, 396.45 0.12 M104.9 341.61 C172.93 263.35, 240.97 185.08, 402.09 -0.27 M104.9 341.61 C174.38 261.68, 243.87 181.75, 402.09 -0.27 M110.54 341.22 C187.47 252.73, 264.39 164.23, 407.08 0.09 M110.54 341.22 C219.1 216.34, 327.65 91.46, 407.08 0.09 M115.53 341.58 C179.68 267.78, 243.84 193.98, 412.07 0.45 M115.53 341.58 C216.51 225.41, 317.49 109.24, 412.07 0.45 M121.17 341.18 C222.16 225.01, 323.15 108.83, 417.71 0.06 M121.17 341.18 C237.35 207.54, 353.53 73.89, 417.71 0.06 M126.16 341.54 C201.03 255.41, 275.91 169.28, 422.7 0.42 M126.16 341.54 C193.29 264.32, 260.42 187.09, 422.7 0.42 M131.8 341.15 C198.24 264.72, 264.67 188.3, 428.34 0.02 M131.8 341.15 C191.41 272.58, 251.01 204.01, 428.34 0.02 M136.79 341.51 C240.71 221.97, 344.62 102.42, 433.33 0.38 M136.79 341.51 C196.26 273.1, 255.72 204.69, 433.33 0.38 M142.43 341.12 C208.3 265.34, 274.17 189.56, 438.97 -0.01 M142.43 341.12 C206.55 267.35, 270.67 193.59, 438.97 -0.01 M147.42 341.48 C235.39 240.27, 323.37 139.07, 443.96 0.35 M147.42 341.48 C213.78 265.14, 280.13 188.8, 443.96 0.35 M153.06 341.08 C262.94 214.68, 372.83 88.27, 449.6 -0.05 M153.06 341.08 C260.26 217.76, 367.46 94.45, 449.6 -0.05 M158.05 341.44 C262.17 221.66, 366.29 101.88, 454.59 0.31 M158.05 341.44 C219.85 270.34, 281.66 199.25, 454.59 0.31 M163.69 341.05 C261.09 229, 358.49 116.95, 460.23 -0.08 M163.69 341.05 C271.16 217.41, 378.64 93.78, 460.23 -0.08 M168.68 341.41 C271.63 222.97, 374.59 104.53, 465.22 0.28 M168.68 341.41 C263.09 232.8, 357.49 124.2, 465.22 0.28 M174.32 341.01 C256.89 246.03, 339.46 151.04, 470.86 -0.12 M174.32 341.01 C247.32 257.03, 320.33 173.05, 470.86 -0.12 M179.31 341.37 C295.45 207.76, 411.59 74.16, 475.85 0.24 M179.31 341.37 C259.09 249.59, 338.88 157.81, 475.85 0.24 M184.95 340.98 C252.13 263.7, 319.3 186.43, 481.49 -0.15 M184.95 340.98 C256.57 258.59, 328.18 176.21, 481.49 -0.15 M189.94 341.34 C298.12 216.89, 406.29 92.45, 486.48 0.21 M189.94 341.34 C257.41 263.72, 324.88 186.11, 486.48 0.21 M195.58 340.94 C285.19 237.86, 374.81 134.77, 492.12 -0.19 M195.58 340.94 C278.23 245.87, 360.87 150.8, 492.12 -0.19 M200.57 341.3 C265.89 266.16, 331.21 191.01, 497.11 0.17 M200.57 341.3 C293.19 234.75, 385.81 128.21, 497.11 0.17 M205.56 341.66 C282.16 253.54, 358.77 165.41, 502.09 0.53 M205.56 341.66 C291.44 242.87, 377.32 144.07, 502.09 0.53 M211.2 341.27 C295.41 244.4, 379.62 147.52, 506.43 1.65 M211.2 341.27 C297.89 241.54, 384.58 141.81, 506.43 1.65 M216.19 341.63 C325.56 215.81, 434.94 89.98, 510.76 2.76 M216.19 341.63 C306.82 237.37, 397.45 133.11, 510.76 2.76 M221.83 341.23 C327.23 219.98, 432.64 98.73, 514.43 4.63 M221.83 341.23 C307.6 242.56, 393.38 143.89, 514.43 4.63 M226.82 341.59 C326.11 227.37, 425.41 113.14, 518.11 6.5 M226.82 341.59 C333.97 218.32, 441.13 95.05, 518.11 6.5 M232.46 341.2 C295.75 268.39, 359.04 195.59, 521.12 9.13 M232.46 341.2 C314.47 246.85, 396.49 152.51, 521.12 9.13 M237.45 341.56 C349.08 213.14, 460.72 84.72, 523.49 12.51 M237.45 341.56 C296.58 273.53, 355.72 205.5, 523.49 12.51 M243.09 341.17 C330.47 240.65, 417.85 140.13, 525.19 16.64 M243.09 341.17 C353.5 214.16, 463.9 87.15, 525.19 16.64 M248.08 341.53 C350.17 224.08, 452.26 106.64, 526.9 20.77 M248.08 341.53 C349.13 225.28, 450.18 109.04, 526.9 20.77 M253.72 341.13 C322.82 261.64, 391.92 182.15, 527.3 26.42 M253.72 341.13 C360.77 217.98, 467.82 94.83, 527.3 26.42 M258.71 341.49 C322.88 267.67, 387.06 193.84, 527.69 32.06 M258.71 341.49 C332.55 256.54, 406.4 171.59, 527.69 32.06 M264.35 341.1 C354.34 237.57, 444.33 134.05, 527.43 38.46 M264.35 341.1 C320.09 276.97, 375.83 212.85, 527.43 38.46 M269.34 341.46 C321.32 281.65, 373.31 221.85, 527.82 44.1 M269.34 341.46 C368.69 227.16, 468.05 112.86, 527.82 44.1 M274.98 341.06 C337.1 269.59, 399.23 198.13, 527.56 50.5 M274.98 341.06 C333.73 273.48, 392.48 205.89, 527.56 50.5 M279.97 341.42 C371.9 235.66, 463.84 129.9, 527.96 56.14 M279.97 341.42 C338.17 274.47, 396.37 207.51, 527.96 56.14 M285.61 341.03 C359.55 255.96, 433.5 170.9, 527.7 62.54 M285.61 341.03 C378.71 233.93, 471.8 126.84, 527.7 62.54 M290.6 341.39 C358.76 262.97, 426.93 184.56, 527.43 68.94 M290.6 341.39 C378.2 240.61, 465.8 139.84, 527.43 68.94 M296.24 340.99 C350.7 278.35, 405.15 215.7, 527.83 74.58 M296.24 340.99 C354.23 274.29, 412.21 207.58, 527.83 74.58 M301.23 341.35 C350.16 285.06, 399.1 228.76, 527.57 80.98 M301.23 341.35 C354.61 279.94, 407.99 218.53, 527.57 80.98 M306.87 340.96 C356.05 284.38, 405.24 227.8, 527.31 87.38 M306.87 340.96 C387.17 248.58, 467.48 156.2, 527.31 87.38 M311.86 341.32 C364.35 280.93, 416.84 220.55, 527.7 93.02 M311.86 341.32 C372.31 271.77, 432.77 202.23, 527.7 93.02 M316.84 341.68 C365.46 285.75, 414.08 229.82, 527.44 99.42 M316.84 341.68 C382.56 266.08, 448.28 190.48, 527.44 99.42 M322.49 341.28 C400.42 251.64, 478.35 161.99, 527.83 105.06 M322.49 341.28 C374.16 281.84, 425.83 222.4, 527.83 105.06 M327.47 341.64 C386.17 274.12, 444.86 206.6, 527.57 111.46 M327.47 341.64 C373.69 288.48, 419.91 235.31, 527.57 111.46 M333.12 341.25 C383.47 283.33, 433.82 225.41, 527.31 117.86 M333.12 341.25 C391.59 273.99, 450.06 206.72, 527.31 117.86 M338.1 341.61 C379.6 293.87, 421.1 246.13, 527.7 123.5 M338.1 341.61 C396.87 274, 455.65 206.39, 527.7 123.5 M343.75 341.21 C387.85 290.47, 431.96 239.73, 527.44 129.9 M343.75 341.21 C395.3 281.91, 446.86 222.6, 527.44 129.9 M348.73 341.58 C400.55 281.96, 452.37 222.35, 527.84 135.54 M348.73 341.58 C400.58 281.93, 452.43 222.29, 527.84 135.54 M354.38 341.18 C406.86 280.8, 459.35 220.42, 527.58 141.94 M354.38 341.18 C396.65 292.55, 438.92 243.92, 527.58 141.94 M359.36 341.54 C419.81 272, 480.26 202.47, 527.32 148.33 M359.36 341.54 C420.08 271.69, 480.8 201.84, 527.32 148.33 M365.01 341.15 C422.36 275.16, 479.72 209.18, 527.71 153.98 M365.01 341.15 C421.4 276.28, 477.79 211.4, 527.71 153.98 M369.99 341.51 C426.57 276.42, 483.15 211.33, 527.45 160.38 M369.99 341.51 C412.46 292.66, 454.92 243.81, 527.45 160.38 M375.64 341.11 C423.81 285.7, 471.98 230.29, 527.84 166.02 M375.64 341.11 C428.16 280.69, 480.69 220.26, 527.84 166.02 M380.62 341.47 C437.9 275.59, 495.17 209.71, 527.58 172.42 M380.62 341.47 C411.35 306.12, 442.08 270.77, 527.58 172.42 M386.27 341.08 C421 301.12, 455.73 261.17, 527.32 178.81 M386.27 341.08 C428.31 292.72, 470.35 244.35, 527.32 178.81 M391.25 341.44 C422.18 305.86, 453.1 270.29, 527.71 184.46 M391.25 341.44 C435.81 290.19, 480.36 238.93, 527.71 184.46 M396.9 341.04 C425.17 308.51, 453.45 275.99, 527.45 190.86 M396.9 341.04 C431.54 301.19, 466.19 261.33, 527.45 190.86 M401.88 341.4 C429.47 309.67, 457.06 277.93, 527.85 196.5 M401.88 341.4 C429.61 309.51, 457.33 277.62, 527.85 196.5 M407.53 341.01 C434.63 309.83, 461.73 278.65, 527.59 202.9 M407.53 341.01 C432.58 312.19, 457.63 283.37, 527.59 202.9 M412.51 341.37 C457.22 289.94, 501.93 238.51, 527.32 209.29 M412.51 341.37 C440.04 309.7, 467.57 278.04, 527.32 209.29 M418.16 340.97 C450.52 303.75, 482.88 266.52, 527.72 214.94 M418.16 340.97 C450.04 304.3, 481.92 267.62, 527.72 214.94 M423.14 341.33 C457.94 301.3, 492.74 261.27, 527.46 221.33 M423.14 341.33 C463.5 294.91, 503.86 248.49, 527.46 221.33 M428.13 341.69 C465.08 299.19, 502.03 256.68, 527.85 226.98 M428.13 341.69 C465.73 298.44, 503.33 255.19, 527.85 226.98 M433.77 341.3 C463.88 306.66, 493.99 272.03, 527.59 233.38 M433.77 341.3 C453.89 318.16, 474 295.03, 527.59 233.38 M438.76 341.66 C458.23 319.27, 477.69 296.88, 527.33 239.77 M438.76 341.66 C468.26 307.72, 497.76 273.79, 527.33 239.77 M444.4 341.26 C477.24 303.49, 510.09 265.71, 527.72 245.42 M444.4 341.26 C471.63 309.94, 498.86 278.62, 527.72 245.42 M449.39 341.62 C475.55 311.53, 501.71 281.44, 527.46 251.81 M449.39 341.62 C474.91 312.27, 500.43 282.91, 527.46 251.81 M455.03 341.23 C474.66 318.66, 494.28 296.09, 527.86 257.46 M455.03 341.23 C475.44 317.75, 495.85 294.28, 527.86 257.46 M460.02 341.59 C475.69 323.57, 491.35 305.55, 527.6 263.86 M460.02 341.59 C482.17 316.11, 504.32 290.63, 527.6 263.86 M465.66 341.2 C480.25 324.42, 494.83 307.65, 527.33 270.25 M465.66 341.2 C483.07 321.17, 500.48 301.14, 527.33 270.25 M470.65 341.56 C490.57 318.65, 510.48 295.74, 527.73 275.9 M470.65 341.56 C482.45 327.98, 494.25 314.41, 527.73 275.9 M476.29 341.16 C489.51 325.96, 502.72 310.76, 527.47 282.29 M476.29 341.16 C491.25 323.96, 506.2 306.76, 527.47 282.29 M481.28 341.52 C497.52 322.84, 513.75 304.17, 527.86 287.94 M481.28 341.52 C492.29 328.86, 503.29 316.2, 527.86 287.94 M486.92 341.13 C497.96 328.44, 508.99 315.74, 527.6 294.33 M486.92 341.13 C499.97 326.12, 513.02 311.11, 527.6 294.33 M491.91 341.49 C499.58 332.66, 507.25 323.84, 527.34 300.73 M491.91 341.49 C505.74 325.58, 519.57 309.67, 527.34 300.73 M497.56 341.09 C506.17 331.18, 514.78 321.27, 527.73 306.38 M497.56 341.09 C507.52 329.63, 517.48 318.17, 527.73 306.38 M503.2 340.7 C511.98 330.59, 520.77 320.49, 527.47 312.77 M503.2 340.7 C509.13 333.87, 515.07 327.04, 527.47 312.77 M509.5 339.55 C514.53 333.76, 519.57 327.97, 527.21 319.17 M509.5 339.55 C515.42 332.73, 521.35 325.92, 527.21 319.17 M8.34 333.37 C8.34 333.37, 8.34 333.37, 8.34 333.37 M8.34 333.37 C8.34 333.37, 8.34 333.37, 8.34 333.37 M20.77 338.88 C14.65 333.56, 8.53 328.24, 1.9 322.47 M20.77 338.88 C15.13 333.97, 9.49 329.07, 1.9 322.47 M28.68 340.45 C22.01 334.65, 15.34 328.86, 0.76 316.18 M28.68 340.45 C18.52 331.62, 8.36 322.78, 0.76 316.18 M35.08 340.71 C26.88 333.58, 18.68 326.46, 0.36 310.53 M35.08 340.71 C26.71 333.44, 18.35 326.17, 0.36 310.53 M41.48 340.97 C32.93 333.54, 24.38 326.11, -0.03 304.89 M41.48 340.97 C29.52 330.58, 17.56 320.19, -0.03 304.89 M47.12 340.58 C31.99 327.43, 16.86 314.28, 0.33 299.9 M47.12 340.58 C31.74 327.21, 16.36 313.84, 0.33 299.9 M53.52 340.84 C36.29 325.87, 19.07 310.9, -0.07 294.26 M53.52 340.84 C41.17 330.11, 28.83 319.38, -0.07 294.26 M59.91 341.1 C44.24 327.48, 28.57 313.86, 0.29 289.27 M59.91 341.1 C37.11 321.28, 14.31 301.45, 0.29 289.27 M65.56 340.71 C51.66 328.62, 37.76 316.54, -0.1 283.63 M65.56 340.71 C47.54 325.04, 29.52 309.38, -0.1 283.63 M71.95 340.97 C57.23 328.17, 42.5 315.37, 0.26 278.64 M71.95 340.97 C45.14 317.66, 18.33 294.35, 0.26 278.64 M77.6 340.57 C52.21 318.51, 26.83 296.44, -0.14 273 M77.6 340.57 C53.88 319.95, 30.15 299.33, -0.14 273 M84 340.83 C60.96 320.81, 37.93 300.79, 0.22 268.01 M84 340.83 C56.64 317.06, 29.29 293.28, 0.22 268.01 M90.39 341.1 C68.73 322.26, 47.06 303.43, -0.17 262.37 M90.39 341.1 C62.4 316.76, 34.41 292.43, -0.17 262.37 M96.04 340.7 C70.26 318.29, 44.48 295.88, 0.19 257.38 M96.04 340.7 C75.45 322.8, 54.86 304.91, 0.19 257.38 M102.43 340.96 C66.89 310.06, 31.34 279.16, -0.21 251.74 M102.43 340.96 C74.28 316.49, 46.12 292.01, -0.21 251.74 M108.08 340.57 C69.41 306.96, 30.75 273.35, 0.15 246.75 M108.08 340.57 C79.44 315.68, 50.8 290.78, 0.15 246.75 M114.47 340.83 C72.26 304.13, 30.05 267.44, -0.24 241.11 M114.47 340.83 C81.14 311.85, 47.81 282.88, -0.24 241.11 M120.87 341.09 C74.12 300.45, 27.36 259.81, 0.12 236.12 M120.87 341.09 C89.95 314.21, 59.04 287.34, 0.12 236.12 M126.52 340.7 C95.11 313.4, 63.7 286.09, -0.28 230.48 M126.52 340.7 C94.94 313.25, 63.36 285.8, -0.28 230.48 M132.91 340.96 C83.3 297.83, 33.69 254.71, 0.08 225.49 M132.91 340.96 C104.17 315.97, 75.42 290.98, 0.08 225.49 M138.56 340.56 C103.69 310.25, 68.82 279.95, 0.44 220.5 M138.56 340.56 C91.25 299.44, 43.93 258.31, 0.44 220.5 M144.95 340.83 C114.76 314.58, 84.57 288.34, 0.05 214.86 M144.95 340.83 C97.49 299.56, 50.02 258.3, 0.05 214.86 M151.35 341.09 C110.2 305.31, 69.04 269.54, 0.41 209.87 M151.35 341.09 C96.19 293.13, 41.03 245.18, 0.41 209.87 M157 340.69 C101.05 292.06, 45.1 243.42, 0.02 204.23 M157 340.69 C122.13 310.38, 87.25 280.07, 0.02 204.23 M163.39 340.95 C110.88 295.31, 58.37 249.66, 0.38 199.24 M163.39 340.95 C128.56 310.68, 93.73 280.4, 0.38 199.24 M169.04 340.56 C108.91 288.29, 48.77 236.02, -0.02 193.6 M169.04 340.56 C120.97 298.78, 72.91 257, -0.02 193.6 M175.43 340.82 C133.73 304.57, 92.03 268.32, 0.34 188.61 M175.43 340.82 C108.08 282.27, 40.73 223.73, 0.34 188.61 M181.83 341.08 C124.04 290.85, 66.25 240.61, -0.05 182.97 M181.83 341.08 C118.2 285.77, 54.57 230.46, -0.05 182.97 M187.47 340.69 C116.07 278.62, 44.67 216.55, 0.31 177.98 M187.47 340.69 C135.53 295.54, 83.59 250.39, 0.31 177.98 M193.87 340.95 C149.76 302.6, 105.65 264.25, -0.09 172.34 M193.87 340.95 C153.9 306.2, 113.93 271.46, -0.09 172.34 M199.52 340.55 C132.52 282.32, 65.52 224.08, 0.27 167.35 M199.52 340.55 C141.18 289.84, 82.84 239.13, 0.27 167.35 M205.91 340.82 C155.8 297.26, 105.7 253.7, -0.12 161.71 M205.91 340.82 C145.77 288.53, 85.62 236.25, -0.12 161.71 M212.31 341.08 C167.77 302.36, 123.22 263.63, 0.24 156.72 M212.31 341.08 C141.75 279.74, 71.18 218.4, 0.24 156.72 M217.95 340.68 C131.4 265.44, 44.84 190.2, -0.16 151.08 M217.95 340.68 C131.19 265.26, 44.42 189.83, -0.16 151.08 M224.35 340.94 C149.51 275.88, 74.67 210.83, 0.2 146.09 M224.35 340.94 C156.88 282.29, 89.4 223.63, 0.2 146.09 M230 340.55 C162.41 281.8, 94.83 223.06, -0.19 140.45 M230 340.55 C145.8 267.36, 61.61 194.17, -0.19 140.45 M236.39 340.81 C150.81 266.42, 65.24 192.03, 0.17 135.46 M236.39 340.81 C188.44 299.13, 140.49 257.45, 0.17 135.46 M242.79 341.07 C191.24 296.26, 139.68 251.44, -0.23 129.82 M242.79 341.07 C148.17 258.82, 53.54 176.56, -0.23 129.82 M248.43 340.68 C155.8 260.15, 63.16 179.62, 0.13 124.83 M248.43 340.68 C187.49 287.7, 126.54 234.72, 0.13 124.83 M254.83 340.94 C202.64 295.57, 150.44 250.19, -0.26 119.19 M254.83 340.94 C174.79 271.36, 94.76 201.79, -0.26 119.19 M260.47 340.54 C164.74 257.32, 69 174.1, 0.1 114.2 M260.47 340.54 C172.76 264.29, 85.04 188.05, 0.1 114.2 M266.87 340.81 C161.22 248.96, 55.56 157.12, 0.46 109.22 M266.87 340.81 C177.45 263.07, 88.03 185.34, 0.46 109.22 M273.27 341.07 C171.96 253, 70.65 164.93, 0.07 103.57 M273.27 341.07 C167.48 249.1, 61.68 157.14, 0.07 103.57 M278.91 340.67 C198.98 271.19, 119.04 201.7, 0.43 98.59 M278.91 340.67 C194.45 267.25, 109.99 193.83, 0.43 98.59 M285.31 340.93 C190.95 258.91, 96.6 176.89, 0.03 92.94 M285.31 340.93 C225.96 289.34, 166.6 237.74, 0.03 92.94 M290.95 340.54 C218.78 277.8, 146.6 215.06, 0.39 87.96 M290.95 340.54 C228.04 285.85, 165.13 231.16, 0.39 87.96 M297.35 340.8 C232.2 284.17, 167.05 227.53, 0 82.31 M297.35 340.8 C234.17 285.88, 170.99 230.96, 0 82.31 M303.75 341.06 C235.01 281.31, 166.27 221.55, 0.36 77.33 M303.75 341.06 C204.62 254.89, 105.5 168.72, 0.36 77.33 M309.39 340.67 C206.98 251.64, 104.56 162.61, -0.04 71.68 M309.39 340.67 C211.88 255.9, 114.36 171.13, -0.04 71.68 M315.79 340.93 C239.81 274.88, 163.83 208.83, 0.32 66.7 M315.79 340.93 C241.07 275.97, 166.34 211.02, 0.32 66.7 M321.43 340.53 C197.68 232.96, 73.93 125.39, -0.07 61.05 M321.43 340.53 C246.74 275.6, 172.05 210.67, -0.07 61.05 M327.83 340.8 C234.82 259.94, 141.8 179.08, 0.29 56.07 M327.83 340.8 C261.85 283.44, 195.86 226.07, 0.29 56.07 M334.23 341.06 C259.72 276.29, 185.21 211.52, -0.11 50.42 M334.23 341.06 C206.58 230.1, 78.94 119.13, -0.11 50.42 M339.87 340.66 C264.42 275.08, 188.97 209.49, 0.25 45.44 M339.87 340.66 C262.92 273.77, 185.97 206.88, 0.25 45.44 M346.27 340.92 C238.8 247.5, 131.34 154.09, -0.14 39.79 M346.27 340.92 C213.62 225.62, 80.98 110.31, -0.14 39.79 M351.91 340.53 C248.16 250.34, 144.41 160.15, 0.22 34.81 M351.91 340.53 C221.83 227.45, 91.75 114.38, 0.22 34.81 M358.31 340.79 C273.75 267.29, 189.2 193.78, -0.18 29.16 M358.31 340.79 C230.47 229.66, 102.63 118.53, -0.18 29.16 M364.71 341.05 C286.13 272.74, 207.54 204.43, 0.18 24.18 M364.71 341.05 C277.03 264.83, 189.35 188.61, 0.18 24.18 M370.35 340.66 C292.09 272.63, 213.83 204.59, 1.3 19.85 M370.35 340.66 C287.18 268.36, 204 196.05, 1.3 19.85 M376.75 340.92 C275.74 253.11, 174.73 165.31, 3.17 16.17 M376.75 340.92 C264.92 243.71, 153.09 146.5, 3.17 16.17 M382.39 340.53 C241.06 217.67, 99.74 94.82, 5.04 12.5 M382.39 340.53 C301.92 270.57, 221.45 200.62, 5.04 12.5 M388.79 340.79 C305.03 267.97, 221.26 195.16, 6.91 8.82 M388.79 340.79 C251.84 221.74, 114.89 102.69, 6.91 8.82 M395.19 341.05 C286.49 246.56, 177.79 152.07, 10.29 6.46 M395.19 341.05 C262.07 225.33, 128.96 109.62, 10.29 6.46 M400.83 340.65 C247.57 207.43, 94.31 74.2, 13.67 4.1 M400.83 340.65 C291.55 245.66, 182.27 150.66, 13.67 4.1 M407.23 340.91 C322.22 267.02, 237.21 193.12, 17.8 2.39 M407.23 340.91 C270.8 222.32, 134.38 103.73, 17.8 2.39 M413.63 341.18 C332.66 270.79, 251.7 200.41, 21.93 0.68 M413.63 341.18 C301.71 243.89, 189.8 146.61, 21.93 0.68 M419.27 340.78 C306.37 242.64, 193.47 144.49, 27.58 0.29 M419.27 340.78 C280.05 219.76, 140.82 98.73, 27.58 0.29 M425.67 341.04 C334.38 261.69, 243.1 182.34, 32.46 -0.76 M425.67 341.04 C332.87 260.38, 240.08 179.71, 32.46 -0.76 M431.31 340.65 C305.06 230.9, 178.82 121.16, 38.86 -0.5 M431.31 340.65 C277.67 207.09, 124.04 73.54, 38.86 -0.5 M437.71 340.91 C309.56 229.52, 181.42 118.12, 44.5 -0.9 M437.71 340.91 C299.42 220.7, 161.13 100.48, 44.5 -0.9 M444.11 341.17 C298.01 214.17, 151.91 87.17, 50.9 -0.64 M444.11 341.17 C329.95 241.94, 215.8 142.71, 50.9 -0.64 M449.75 340.78 C326.11 233.3, 202.47 125.82, 57.3 -0.37 M449.75 340.78 C330.86 237.42, 211.96 134.07, 57.3 -0.37 M456.15 341.04 C371.93 267.83, 287.7 194.61, 62.94 -0.77 M456.15 341.04 C304.63 209.32, 153.1 77.61, 62.94 -0.77 M461.79 340.64 C343.99 238.24, 226.19 135.84, 69.34 -0.51 M461.79 340.64 C339.56 234.39, 217.32 128.13, 69.34 -0.51 M468.19 340.91 C370.14 255.67, 272.08 170.43, 74.98 -0.9 M468.19 340.91 C384.99 268.58, 301.79 196.26, 74.98 -0.9 M474.59 341.17 C334.9 219.74, 195.2 98.3, 81.38 -0.64 M474.59 341.17 C376.09 255.54, 277.59 169.92, 81.38 -0.64 M480.23 340.77 C401.62 272.44, 323.01 204.11, 87.78 -0.38 M480.23 340.77 C399.55 270.64, 318.88 200.51, 87.78 -0.38 M486.63 341.03 C397.07 263.18, 307.51 185.33, 93.42 -0.77 M486.63 341.03 C351.02 223.15, 215.41 105.27, 93.42 -0.77 M492.27 340.64 C408.42 267.75, 324.58 194.87, 99.82 -0.51 M492.27 340.64 C411.66 270.57, 331.05 200.5, 99.82 -0.51 M498.67 340.9 C404.87 259.37, 311.08 177.83, 105.46 -0.91 M498.67 340.9 C392.1 248.26, 285.54 155.63, 105.46 -0.91 M503.56 339.85 C362.74 217.44, 221.93 95.03, 111.86 -0.64 M503.56 339.85 C366.17 220.42, 228.78 100.99, 111.86 -0.64 M508.44 338.8 C359.43 209.26, 210.41 79.72, 118.26 -0.38 M508.44 338.8 C408.23 251.68, 308.01 164.56, 118.26 -0.38 M512.58 337.09 C383.78 225.13, 254.97 113.16, 123.9 -0.78 M512.58 337.09 C363.76 207.73, 214.95 78.37, 123.9 -0.78 M516.71 335.39 C429.53 259.6, 342.34 183.81, 130.3 -0.52 M516.71 335.39 C369.14 207.11, 221.57 78.83, 130.3 -0.52 M520.09 333.02 C387.07 217.39, 254.04 101.75, 135.94 -0.91 M520.09 333.02 C387.73 217.96, 255.37 102.9, 135.94 -0.91 M521.96 329.35 C441.91 259.76, 361.86 190.18, 142.34 -0.65 M521.96 329.35 C416.72 237.86, 311.47 146.37, 142.34 -0.65 M524.58 326.33 C432.66 246.42, 340.73 166.51, 148.74 -0.39 M524.58 326.33 C419.29 234.8, 313.99 143.26, 148.74 -0.39 M526.45 322.65 C395.39 208.72, 264.32 94.79, 154.38 -0.78 M526.45 322.65 C442.55 249.71, 358.64 176.77, 154.38 -0.78 M526.81 317.67 C384.01 193.53, 241.2 69.39, 160.78 -0.52 M526.81 317.67 C403.97 210.88, 281.13 104.1, 160.78 -0.52 M527.17 312.68 C405.29 206.73, 283.4 100.77, 166.42 -0.92 M527.17 312.68 C433.04 230.85, 338.91 149.03, 166.42 -0.92 M527.53 307.69 C396.2 193.53, 264.88 79.37, 172.82 -0.65 M527.53 307.69 C435.89 228.02, 344.24 148.36, 172.82 -0.65 M527.89 302.71 C447.98 233.24, 368.07 163.77, 179.22 -0.39 M527.89 302.71 C434.01 221.09, 340.13 139.48, 179.22 -0.39 M527.5 297.06 C426.22 209.02, 324.94 120.98, 184.86 -0.79 M527.5 297.06 C425.56 208.45, 323.62 119.83, 184.86 -0.79 M527.86 292.08 C406.3 186.4, 284.73 80.73, 191.26 -0.53 M527.86 292.08 C430.98 207.86, 334.1 123.64, 191.26 -0.53 M527.47 286.43 C428.19 200.13, 328.91 113.83, 196.9 -0.92 M527.47 286.43 C427.09 199.18, 326.71 111.92, 196.9 -0.92 M527.83 281.45 C449.24 213.14, 370.66 144.83, 203.3 -0.66 M527.83 281.45 C461.13 223.47, 394.44 165.5, 203.3 -0.66 M527.43 275.8 C450.51 208.94, 373.6 142.08, 209.7 -0.4 M527.43 275.8 C454.69 212.57, 381.94 149.33, 209.7 -0.4 M527.79 270.82 C448.44 201.84, 369.08 132.85, 215.34 -0.79 M527.79 270.82 C445.69 199.44, 363.58 128.07, 215.34 -0.79 M527.4 265.17 C465.7 211.54, 404 157.9, 221.74 -0.53 M527.4 265.17 C457.97 204.82, 388.54 144.47, 221.74 -0.53 M527.76 260.19 C422.06 168.31, 316.36 76.43, 227.38 -0.93 M527.76 260.19 C422.13 168.37, 316.51 76.55, 227.38 -0.93 M527.36 254.54 C414.59 156.51, 301.81 58.48, 233.78 -0.66 M527.36 254.54 C423.58 164.32, 319.79 74.1, 233.78 -0.66 M527.72 249.56 C422.89 158.43, 318.07 67.31, 240.18 -0.4 M527.72 249.56 C436.95 170.65, 346.17 91.74, 240.18 -0.4 M527.33 243.91 C466.29 190.86, 405.26 137.8, 245.82 -0.8 M527.33 243.91 C452.74 179.08, 378.16 114.24, 245.82 -0.8 M527.69 238.93 C446.66 168.49, 365.64 98.06, 252.22 -0.54 M527.69 238.93 C458.81 179.05, 389.92 119.17, 252.22 -0.54 M527.29 233.28 C459.6 174.44, 391.91 115.6, 257.86 -0.93 M527.29 233.28 C441.11 158.37, 354.93 83.45, 257.86 -0.93 M527.65 228.3 C470.72 178.8, 413.78 129.31, 264.26 -0.67 M527.65 228.3 C474.59 182.17, 421.54 136.05, 264.26 -0.67 M527.26 222.65 C459.98 164.17, 392.71 105.69, 270.66 -0.41 M527.26 222.65 C455.86 160.59, 384.47 98.53, 270.66 -0.41 M527.62 217.67 C432.21 134.72, 336.79 51.78, 276.3 -0.8 M527.62 217.67 C460.24 159.09, 392.85 100.51, 276.3 -0.8 M527.22 212.02 C442.16 138.08, 357.1 64.13, 282.7 -0.54 M527.22 212.02 C477.93 169.17, 428.63 126.31, 282.7 -0.54 M527.58 207.04 C454.13 143.18, 380.68 79.33, 288.34 -0.94 M527.58 207.04 C455.83 144.66, 384.08 82.29, 288.34 -0.94 M527.19 201.39 C473.73 154.92, 420.28 108.46, 294.74 -0.67 M527.19 201.39 C445.11 130.04, 363.03 58.69, 294.74 -0.67 M527.55 196.41 C460.95 138.51, 394.34 80.61, 301.14 -0.41 M527.55 196.41 C437.39 118.03, 347.22 39.65, 301.14 -0.41 M527.91 191.42 C449.73 123.46, 371.55 55.5, 306.78 -0.81 M527.91 191.42 C462.15 134.25, 396.38 77.08, 306.78 -0.81 M527.51 185.78 C460.99 127.94, 394.46 70.11, 313.18 -0.55 M527.51 185.78 C481.22 145.53, 434.92 105.29, 313.18 -0.55 M527.87 180.79 C446.94 110.43, 366 40.08, 318.82 -0.94 M527.87 180.79 C485.91 144.31, 443.95 107.84, 318.82 -0.94 M527.48 175.15 C467.12 122.68, 406.76 70.21, 325.22 -0.68 M527.48 175.15 C475.35 129.83, 423.22 84.51, 325.22 -0.68 M527.84 170.16 C464.51 115.11, 401.18 60.05, 331.62 -0.42 M527.84 170.16 C462.92 113.72, 398 57.29, 331.62 -0.42 M527.45 164.51 C475.24 119.14, 423.04 73.76, 337.26 -0.81 M527.45 164.51 C455.26 101.76, 383.07 39.01, 337.26 -0.81 M527.81 159.53 C458.62 99.38, 389.43 39.24, 343.66 -0.55 M527.81 159.53 C462.03 102.35, 396.25 45.17, 343.66 -0.55 M527.41 153.88 C486.77 118.56, 446.13 83.23, 349.3 -0.95 M527.41 153.88 C475.92 109.13, 424.44 64.37, 349.3 -0.95 M527.77 148.9 C478.74 106.27, 429.71 63.65, 355.7 -0.68 M527.77 148.9 C484.65 111.41, 441.52 73.92, 355.7 -0.68 M527.38 143.25 C490.59 111.28, 453.81 79.3, 362.1 -0.42 M527.38 143.25 C486.8 107.98, 446.23 72.71, 362.1 -0.42 M527.74 138.27 C493.71 108.69, 459.68 79.1, 367.74 -0.82 M527.74 138.27 C466.35 84.91, 404.97 31.55, 367.74 -0.82 M527.34 132.62 C482.28 93.45, 437.21 54.28, 374.14 -0.56 M527.34 132.62 C472.25 84.74, 417.16 36.85, 374.14 -0.56 M527.7 127.64 C491.51 96.18, 455.32 64.71, 379.78 -0.95 M527.7 127.64 C493.63 98.02, 459.56 68.4, 379.78 -0.95 M527.31 121.99 C477.51 78.7, 427.71 35.41, 386.18 -0.69 M527.31 121.99 C485.86 85.97, 444.41 49.94, 386.18 -0.69 M527.67 117.01 C488.49 82.95, 449.3 48.89, 392.58 -0.43 M527.67 117.01 C491.7 85.74, 455.73 54.47, 392.58 -0.43 M527.27 111.36 C490.87 79.72, 454.46 48.07, 398.22 -0.82 M527.27 111.36 C480.6 70.79, 433.92 30.22, 398.22 -0.82 M527.63 106.38 C480.72 65.59, 433.8 24.81, 404.62 -0.56 M527.63 106.38 C494.59 77.65, 461.55 48.93, 404.62 -0.56 M527.24 100.73 C499.32 76.47, 471.41 52.2, 410.26 -0.95 M527.24 100.73 C500.45 77.45, 473.66 54.16, 410.26 -0.95 M527.6 95.75 C486.02 59.61, 444.45 23.46, 416.66 -0.69 M527.6 95.75 C503.62 74.9, 479.65 54.06, 416.66 -0.69 M527.2 90.1 C490.47 58.17, 453.73 26.23, 423.05 -0.43 M527.2 90.1 C505.05 70.85, 482.9 51.59, 423.05 -0.43 M527.56 85.12 C502.89 63.67, 478.21 42.21, 428.7 -0.83 M527.56 85.12 C489.1 51.68, 450.63 18.24, 428.7 -0.83 M527.17 79.47 C506.17 61.22, 485.16 42.96, 435.1 -0.56 M527.17 79.47 C492.06 48.95, 456.95 18.43, 435.1 -0.56 M527.53 74.49 C509.4 58.73, 491.28 42.97, 440.74 -0.96 M527.53 74.49 C504.15 54.16, 480.77 33.84, 440.74 -0.96 M527.89 69.5 C508.36 52.52, 488.83 35.54, 447.14 -0.7 M527.89 69.5 C507.29 51.59, 486.69 33.69, 447.14 -0.7 M527.5 63.86 C499.48 39.5, 471.46 15.15, 453.53 -0.44 M527.5 63.86 C509.72 48.4, 491.93 32.94, 453.53 -0.44 M527.86 58.87 C511.06 44.27, 494.26 29.67, 459.18 -0.83 M527.86 58.87 C506.87 40.63, 485.88 22.38, 459.18 -0.83 M527.46 53.23 C508.32 36.59, 489.18 19.95, 465.57 -0.57 M527.46 53.23 C509.69 37.78, 491.92 22.33, 465.57 -0.57 M527.82 48.24 C513.09 35.44, 498.37 22.64, 471.22 -0.96 M527.82 48.24 C513.32 35.64, 498.82 23.03, 471.22 -0.96 M527.43 42.6 C513.8 30.76, 500.18 18.91, 477.62 -0.7 M527.43 42.6 C512.67 29.77, 497.92 16.95, 477.62 -0.7 M527.79 37.61 C510.88 22.92, 493.98 8.22, 484.01 -0.44 M527.79 37.61 C511.08 23.09, 494.38 8.57, 484.01 -0.44 M527.39 31.97 C513.5 19.89, 499.61 7.82, 489.66 -0.84 M527.39 31.97 C513.97 20.3, 500.55 8.64, 489.66 -0.84 M527.75 26.98 C518.45 18.89, 509.15 10.81, 496.05 -0.57 M527.75 26.98 C521.15 21.24, 514.54 15.5, 496.05 -0.57 M526.6 20.68 C521.62 16.35, 516.63 12.01, 503.21 0.34 M526.6 20.68 C520.64 15.49, 514.67 10.31, 503.21 0.34 M523.19 12.41 C519.74 9.42, 516.3 6.42, 512.62 3.23 M523.19 12.41 C520.93 10.45, 518.66 8.48, 512.62 3.23" stroke="#e03131" stroke-width="0.5" fill="none"></path><path d="M32 0 C132.35 0, 232.69 0, 495.49 0 M32 0 C158.82 0, 285.65 0, 495.49 0 M495.49 0 C516.82 0, 527.49 10.67, 527.49 32 M495.49 0 C516.82 0, 527.49 10.67, 527.49 32 M527.49 32 C527.49 95.02, 527.49 158.04, 527.49 309.07 M527.49 32 C527.49 95.69, 527.49 159.37, 527.49 309.07 M527.49 309.07 C527.49 330.41, 516.82 341.07, 495.49 341.07 M527.49 309.07 C527.49 330.41, 516.82 341.07, 495.49 341.07 M495.49 341.07 C318.08 341.07, 140.67 341.07, 32 341.07 M495.49 341.07 C370.09 341.07, 244.69 341.07, 32 341.07 M32 341.07 C10.67 341.07, 0 330.41, 0 309.07 M32 341.07 C10.67 341.07, 0 330.41, 0 309.07 M0 309.07 C0 252.08, 0 195.08, 0 32 M0 309.07 C0 206.56, 0 104.04, 0 32 M0 32 C0 10.67, 10.67 0, 32 0 M0 32 C0 10.67, 10.67 0, 32 0" stroke="#f08c00" stroke-width="1" fill="none"></path></g><g stroke-linecap="round" transform="translate(35.597583550015656 91.90866109979612) rotate(0 69 31)"><path d="M0 0 L138 0 L138 62 L0 62" stroke="none" stroke-width="0" fill="#e03131"></path><path d="M0 0 C35.56 0, 71.12 0, 138 0 M0 0 C46.55 0, 93.1 0, 138 0 M138 0 C138 14.28, 138 28.55, 138 62 M138 0 C138 12.72, 138 25.45, 138 62 M138 62 C104.91 62, 71.83 62, 0 62 M138 62 C88.09 62, 38.19 62, 0 62 M0 62 C0 42.32, 0 22.65, 0 0 M0 62 C0 38.41, 0 14.81, 0 0" stroke="#e03131" stroke-width="2" fill="none"></path></g><g transform="translate(55.683521050015656 113.70866109979613) rotate(0 48.9140625 9.199999999999989)"><text x="48.9140625" y="14.720312499999999" font-family="Helvetica, Segoe UI Emoji" font-size="16px" fill="#ffffff" text-anchor="middle" style="white-space: pre;" direction="ltr" dominant-baseline="alphabetic">AppController</text></g><g stroke-linecap="round" transform="translate(370.4763575500157 91.90866109979612) rotate(0 69 31)"><path d="M0 0 L138 0 L138 62 L0 62" stroke="none" stroke-width="0" fill="#e03131"></path><path d="M0 0 C52.74 0, 105.48 0, 138 0 M0 0 C46.37 0, 92.74 0, 138 0 M138 0 C138 17.77, 138 35.53, 138 62 M138 0 C138 17.89, 138 35.79, 138 62 M138 62 C84.38 62, 30.76 62, 0 62 M138 62 C86.71 62, 35.43 62, 0 62 M0 62 C0 43.6, 0 25.19, 0 0 M0 62 C0 43.96, 0 25.92, 0 0" stroke="#e03131" stroke-width="2" fill="none"></path></g><g transform="translate(412.8005763000157 113.70866109979613) rotate(0 26.67578125 9.199999999999989)"><text x="26.67578125" y="14.720312499999999" font-family="Helvetica, Segoe UI Emoji" font-size="16px" fill="#ffffff" text-anchor="middle" style="white-space: pre;" direction="ltr" dominant-baseline="alphabetic">Service</text></g><g stroke-linecap="round" transform="translate(35.597583550015656 243.3025330997961) rotate(0 69 31)"><path d="M0 0 L138 0 L138 62 L0 62" stroke="none" stroke-width="0" fill="#e03131"></path><path d="M0 0 C39.52 0, 79.04 0, 138 0 M0 0 C27.64 0, 55.28 0, 138 0 M138 0 C138 19.56, 138 39.11, 138 62 M138 0 C138 16.1, 138 32.2, 138 62 M138 62 C96.73 62, 55.46 62, 0 62 M138 62 C99.52 62, 61.03 62, 0 62 M0 62 C0 43.27, 0 24.55, 0 0 M0 62 C0 37.97, 0 13.95, 0 0" stroke="#e03131" stroke-width="2" fill="none"></path></g><g transform="translate(63.687427300015656 265.1025330997961) rotate(0 40.91015625 9.199999999999989)"><text x="40.91015625" y="14.720312499999999" font-family="Helvetica, Segoe UI Emoji" font-size="16px" fill="#ffffff" text-anchor="middle" style="white-space: pre;" direction="ltr" dominant-baseline="alphabetic">AppService</text></g><g stroke-linecap="round" transform="translate(370.4763575500157 243.3025330997961) rotate(0 69 31)"><path d="M0 0 L138 0 L138 62 L0 62" stroke="none" stroke-width="0" fill="#e03131"></path><path d="M0 0 C40.06 0, 80.12 0, 138 0 M0 0 C40.82 0, 81.63 0, 138 0 M138 0 C138 18.15, 138 36.3, 138 62 M138 0 C138 24.61, 138 49.21, 138 62 M138 62 C108.27 62, 78.54 62, 0 62 M138 62 C93.01 62, 48.02 62, 0 62 M0 62 C0 37.72, 0 13.45, 0 0 M0 62 C0 43.57, 0 25.14, 0 0" stroke="#e03131" stroke-width="2" fill="none"></path></g><g transform="translate(401.2380763000157 265.1025330997961) rotate(0 38.23828125 9.199999999999989)"><text x="38.23828125" y="14.720312499999999" font-family="Helvetica, Segoe UI Emoji" font-size="16px" fill="#ffffff" text-anchor="middle" style="white-space: pre;" direction="ltr" dominant-baseline="alphabetic">Repository</text></g><g stroke-linecap="round"><g transform="translate(177.59758355001566 122.90866109979612) rotate(0 92.43938700000001 0)"><path d="M0 0 C65.12 0, 130.25 0, 184.88 0 M0 0 C60.94 0, 121.88 0, 184.88 0" stroke="#1e1e1e" stroke-width="4" fill="none"></path></g><g transform="translate(177.59758355001566 122.90866109979612) rotate(0 92.43938700000001 0)"><path d="M0 -15 C0 -9.72, 0 -4.43, 0 0 M0 -15 C0 -10.06, 0 -5.11, 0 0" stroke="#1e1e1e" stroke-width="4" fill="none"></path></g><g transform="translate(177.59758355001566 122.90866109979612) rotate(0 92.43938700000001 0)"><path d="M0 15 C0 9.72, 0 4.43, 0 0 M0 15 C0 10.06, 0 5.11, 0 0" stroke="#1e1e1e" stroke-width="4" fill="none"></path></g><g transform="translate(177.59758355001566 122.90866109979612) rotate(0 92.43938700000001 0)"><path d="M161.39 8.55 C169.66 5.54, 177.94 2.53, 184.88 0 M161.39 8.55 C169.13 5.73, 176.87 2.91, 184.88 0" stroke="#1e1e1e" stroke-width="4" fill="none"></path></g><g transform="translate(177.59758355001566 122.90866109979612) rotate(0 92.43938700000001 0)"><path d="M161.39 -8.55 C169.66 -5.54, 177.94 -2.53, 184.88 0 M161.39 -8.55 C169.13 -5.73, 176.87 -2.91, 184.88 0" stroke="#1e1e1e" stroke-width="4" fill="none"></path></g></g><mask></mask><g stroke-linecap="round"><g transform="translate(177.5975835500156 274.3025330997961) rotate(0 92.43938700000004 0)"><path d="M0 0 C60.36 0, 120.73 0, 184.88 0 M0 0 C39.97 0, 79.95 0, 184.88 0" stroke="#1e1e1e" stroke-width="4" fill="none"></path></g><g transform="translate(177.5975835500156 274.3025330997961) rotate(0 92.43938700000004 0)"><path d="M0 -15 C0 -10.1, 0 -5.2, 0 0 M0 -15 C0 -11.76, 0 -8.51, 0 0" stroke="#1e1e1e" stroke-width="4" fill="none"></path></g><g transform="translate(177.5975835500156 274.3025330997961) rotate(0 92.43938700000004 0)"><path d="M0 15 C0 10.1, 0 5.2, 0 0 M0 15 C0 11.76, 0 8.51, 0 0" stroke="#1e1e1e" stroke-width="4" fill="none"></path></g><g transform="translate(177.5975835500156 274.3025330997961) rotate(0 92.43938700000004 0)"><path d="M161.39 8.55 C169.06 5.76, 176.73 2.97, 184.88 0 M161.39 8.55 C166.47 6.7, 171.55 4.85, 184.88 0" stroke="#1e1e1e" stroke-width="4" fill="none"></path></g><g transform="translate(177.5975835500156 274.3025330997961) rotate(0 92.43938700000004 0)"><path d="M161.39 -8.55 C169.06 -5.76, 176.73 -2.97, 184.88 0 M161.39 -8.55 C166.47 -6.7, 171.55 -4.85, 184.88 0" stroke="#1e1e1e" stroke-width="4" fill="none"></path></g></g><mask></mask><g stroke-linecap="round" transform="translate(35.597583550015656 52.40866109979612) rotate(0 69 16.5)"><path d="M0 0 L138 0 L138 33 L0 33" stroke="none" stroke-width="0" fill="#1e1e1e"></path><path d="M0 0 C49.49 0, 98.98 0, 138 0 M0 0 C46.52 0, 93.04 0, 138 0 M138 0 C138 12.6, 138 25.2, 138 33 M138 0 C138 8.73, 138 17.46, 138 33 M138 33 C89.55 33, 41.1 33, 0 33 M138 33 C83.19 33, 28.39 33, 0 33 M0 33 C0 23.03, 0 13.06, 0 0 M0 33 C0 25.24, 0 17.47, 0 0" stroke="#1e1e1e" stroke-width="2" fill="none"></path></g><g transform="translate(61.796802300015656 59.70866109979613) rotate(0 42.80078125 9.200000000000003)"><text x="42.80078125" y="14.720312499999999" font-family="Helvetica, Segoe UI Emoji" font-size="16px" fill="#ffffff" text-anchor="middle" style="white-space: pre;" direction="ltr" dominant-baseline="alphabetic">@Controller</text></g><g stroke-linecap="round" transform="translate(370.4763575500157 52.40866109979612) rotate(0 69 16.5)"><path d="M0 0 L138 0 L138 33 L0 33" stroke="none" stroke-width="0" fill="#1e1e1e"></path><path d="M0 0 C39.13 0, 78.25 0, 138 0 M0 0 C29.82 0, 59.64 0, 138 0 M138 0 C138 8.45, 138 16.9, 138 33 M138 0 C138 9.6, 138 19.2, 138 33 M138 33 C85.46 33, 32.92 33, 0 33 M138 33 C96.54 33, 55.09 33, 0 33 M0 33 C0 22.4, 0 11.79, 0 0 M0 33 C0 20.21, 0 7.43, 0 0" stroke="#1e1e1e" stroke-width="2" fill="none"></path></g><g transform="translate(395.7810450500157 59.70866109979613) rotate(0 43.6953125 9.200000000000003)"><text x="43.6953125" y="14.720312499999999" font-family="Helvetica, Segoe UI Emoji" font-size="16px" fill="#ffffff" text-anchor="middle" style="white-space: pre;" direction="ltr" dominant-baseline="alphabetic">@Autowired</text></g><g stroke-linecap="round" transform="translate(370.4763575500157 201.3025330997961) rotate(0 69 16.5)"><path d="M0 0 L138 0 L138 33 L0 33" stroke="none" stroke-width="0" fill="#1e1e1e"></path><path d="M0 0 C49.62 0, 99.23 0, 138 0 M0 0 C52.88 0, 105.76 0, 138 0 M138 0 C138 8.98, 138 17.96, 138 33 M138 0 C138 10.16, 138 20.32, 138 33 M138 33 C84.93 33, 31.85 33, 0 33 M138 33 C93.12 33, 48.23 33, 0 33 M0 33 C0 21.98, 0 10.96, 0 0 M0 33 C0 25.87, 0 18.74, 0 0" stroke="#1e1e1e" stroke-width="2" fill="none"></path></g><g transform="translate(395.7810450500157 208.60253309979612) rotate(0 43.6953125 9.199999999999989)"><text x="43.6953125" y="14.720312499999999" font-family="Helvetica, Segoe UI Emoji" font-size="16px" fill="#ffffff" text-anchor="middle" style="white-space: pre;" direction="ltr" dominant-baseline="alphabetic">@Autowired</text></g><g stroke-linecap="round" transform="translate(35.597583550015656 201.3025330997961) rotate(0 69 16.5)"><path d="M0 0 L138 0 L138 33 L0 33" stroke="none" stroke-width="0" fill="#1e1e1e"></path><path d="M0 0 C49.39 0, 98.78 0, 138 0 M0 0 C44.43 0, 88.86 0, 138 0 M138 0 C138 8.66, 138 17.32, 138 33 M138 0 C138 7.69, 138 15.39, 138 33 M138 33 C102.34 33, 66.67 33, 0 33 M138 33 C89.66 33, 41.33 33, 0 33 M0 33 C0 21.23, 0 9.46, 0 0 M0 33 C0 24.89, 0 16.77, 0 0" stroke="#1e1e1e" stroke-width="2" fill="none"></path></g><g transform="translate(69.80070855001566 208.60253309979612) rotate(0 34.796875 9.199999999999989)"><text x="34.796875" y="14.720312499999999" font-family="Helvetica, Segoe UI Emoji" font-size="16px" fill="#ffffff" text-anchor="middle" style="white-space: pre;" direction="ltr" dominant-baseline="alphabetic">@Service</text></g></svg>