<svg version="1.1" xmlns="http://www.w3.org/2000/svg" viewBox="0 0 891.2917124017858 594.899896577968" width="891.2917124017858" height="594.899896577968">
  <!-- svg-source:excalidraw -->
  
  <defs>
    <style class="style-fonts">
      @font-face {
        font-family: "Virgil";
        src: url("https://excalidraw.com/Virgil.woff2");
      }
      @font-face {
        font-family: "Cascadia";
        src: url("https://excalidraw.com/Cascadia.woff2");
      }
      @font-face {
        font-family: "Assistant";
        src: url("https://excalidraw.com/Assistant-Regular.woff2");
      }
    </style>
    
  </defs>
  <g stroke-linecap="round" transform="translate(10 162.8935548571427) rotate(0 76.42857142857142 111.4285714285715)"><path d="M32 0 C63 -1.01, 98.41 -1.99, 120.86 0 M32 0 C62.26 0.32, 92.59 1.12, 120.86 0 M120.86 0 C140.61 -1.93, 154.02 10.9, 152.86 32 M120.86 0 C143.07 0.83, 154.5 12.94, 152.86 32 M152.86 32 C156.11 91.73, 156.14 148.21, 152.86 190.86 M152.86 32 C150.99 83.52, 151.69 134.72, 152.86 190.86 M152.86 190.86 C152.26 212.65, 141.89 224.52, 120.86 222.86 M152.86 190.86 C152.54 213.51, 141.95 223.32, 120.86 222.86 M120.86 222.86 C102.2 221.83, 81.48 221.57, 32 222.86 M120.86 222.86 C102.47 223.18, 85.07 223.62, 32 222.86 M32 222.86 C11.74 222.33, 0.03 210.61, 0 190.86 M32 222.86 C9.76 224.81, -1 210.8, 0 190.86 M0 190.86 C1.06 138.04, 2.34 82.29, 0 32 M0 190.86 C0.47 127.39, -0.37 64.09, 0 32 M0 32 C-0.71 9.49, 11.99 -1.18, 32 0 M0 32 C0.45 10.24, 9.79 1.86, 32 0" stroke="#f08c00" stroke-width="4" fill="none"></path></g><g stroke-linecap="round" transform="translate(28.357144285714213 196.4339107142858) rotate(0 53.000000000000014 76.00000000000003)"><path d="M26.5 0 C45.01 -0.22, 60.84 1.1, 79.5 0 C93.76 -2.79, 106.82 7.03, 106 26.5 C107.29 61.6, 104.83 99.13, 106 125.5 C104.52 143.43, 97.29 149.52, 79.5 152 C60.42 153.7, 44.8 155.4, 26.5 152 C9.31 148.47, 3.58 146.76, 0 125.5 C-1.09 87.96, 2.92 55, 0 26.5 C0.15 7.95, 10.9 2.91, 26.5 0" stroke="none" stroke-width="0" fill="#b2f2bb"></path><path d="M26.5 0 C37.88 -0.11, 46.64 1.12, 79.5 0 M26.5 0 C44.91 -0.07, 63.3 -0.92, 79.5 0 M79.5 0 C98.64 -1.87, 106.21 9.77, 106 26.5 M79.5 0 C98.77 -0.53, 107.06 9.18, 106 26.5 M106 26.5 C104.24 51.43, 104.32 74.9, 106 125.5 M106 26.5 C106.81 61.24, 106.03 96.73, 106 125.5 M106 125.5 C106.25 144.87, 99.14 150.59, 79.5 152 M106 125.5 C104.46 143.31, 99.19 151.16, 79.5 152 M79.5 152 C61.14 151.86, 40.34 151.47, 26.5 152 M79.5 152 C66.73 153.13, 55.72 151.54, 26.5 152 M26.5 152 C9.89 152.1, 0 144.65, 0 125.5 M26.5 152 C8.69 151.6, 1.99 144.44, 0 125.5 M0 125.5 C-0.36 89.78, 0.85 51.7, 0 26.5 M0 125.5 C-0.18 88.84, -0.81 50.9, 0 26.5 M0 26.5 C-0.13 10.01, 10.36 1.16, 26.5 0 M0 26.5 C0.21 8.43, 7.2 1.88, 26.5 0" stroke="#1e1e1e" stroke-width="2" fill="none"></path></g><g transform="translate(55.79073803571421 260.9339107142858) rotate(0 25.566406250000014 11.5)"><text x="25.56640625" y="18.400390625" font-family="Helvetica, Segoe UI Emoji" font-size="20px" fill="#1e1e1e" text-anchor="middle" style="white-space: pre;" direction="ltr" dominant-baseline="alphabetic">Client</text></g><g stroke-linecap="round" transform="translate(262.86244342857134 192.21428571428578) rotate(0 53 76)"><path d="M26.5 0 C41.59 3.43, 63.12 -0.1, 79.5 0 C96.46 -2.03, 102.75 11.48, 106 26.5 C109.43 66.17, 106.23 99.88, 106 125.5 C108.37 144.94, 97.82 154.59, 79.5 152 C58.09 153.51, 40.31 149.16, 26.5 152 C11.46 153.55, -2.27 143.96, 0 125.5 C0.1 102.49, -3.35 81.6, 0 26.5 C-1.51 10.65, 8.72 -2.13, 26.5 0" stroke="none" stroke-width="0" fill="#99e9f2"></path><path d="M26.5 0 C45.1 0.62, 59.61 -2.12, 79.5 0 M26.5 0 C40.74 -0.38, 54.58 0.16, 79.5 0 M79.5 0 C98.79 -1.59, 107.32 10.26, 106 26.5 M79.5 0 C97.19 -2.02, 106.1 8.77, 106 26.5 M106 26.5 C104.55 61.1, 104.31 99.79, 106 125.5 M106 26.5 C106.84 52.63, 106.38 79.38, 106 125.5 M106 125.5 C105.75 141.24, 95.79 153.47, 79.5 152 M106 125.5 C105.06 145.28, 96.63 153.02, 79.5 152 M79.5 152 C64.93 150.44, 47.07 150.29, 26.5 152 M79.5 152 C62.12 152.23, 45.14 151.81, 26.5 152 M26.5 152 C8.36 150.42, -1.9 143.25, 0 125.5 M26.5 152 C9.65 150.87, 0.15 142.7, 0 125.5 M0 125.5 C0.63 104.13, 1.12 83.38, 0 26.5 M0 125.5 C0.84 98.93, 1.72 72.49, 0 26.5 M0 26.5 C0.67 9.09, 8.11 -0.14, 26.5 0 M0 26.5 C-2.01 9.79, 11.06 0.35, 26.5 0" stroke="#1e1e1e" stroke-width="2" fill="none"></path></g><g transform="translate(272.51283405357134 256.7142857142858) rotate(0 43.349609375 11.5)"><text x="43.349609375" y="18.400390625" font-family="Helvetica, Segoe UI Emoji" font-size="20px" fill="#1e1e1e" text-anchor="middle" style="white-space: pre;" direction="ltr" dominant-baseline="alphabetic">Controller</text></g><g stroke-linecap="round" transform="translate(432.86244342857134 192.21428571428578) rotate(0 53 76)"><path d="M26.5 0 C41.52 3.55, 60.02 1.28, 79.5 0 C94.61 1.85, 106.55 6.91, 106 26.5 C104.13 50.6, 108.45 71.65, 106 125.5 C106.53 146.26, 98.82 153.02, 79.5 152 C61.23 151.08, 49.38 152.55, 26.5 152 C7.73 153.36, -3.51 142.74, 0 125.5 C2.1 101.2, -1.46 70.56, 0 26.5 C-3.15 7.49, 7.07 -1.32, 26.5 0" stroke="none" stroke-width="0" fill="#ffec99"></path><path d="M26.5 0 C38.67 -1.7, 47.78 -0.68, 79.5 0 M26.5 0 C45.79 -1.13, 64.63 -0.89, 79.5 0 M79.5 0 C96.63 0.8, 106.01 8.09, 106 26.5 M79.5 0 C97.59 -1.03, 106.71 6.57, 106 26.5 M106 26.5 C105.03 48.48, 107.62 73.9, 106 125.5 M106 26.5 C106.84 56.04, 107.14 84.22, 106 125.5 M106 125.5 C106.99 143.88, 97.08 151.55, 79.5 152 M106 125.5 C104.25 144.5, 95.04 153.16, 79.5 152 M79.5 152 C67.72 150.09, 57.91 151.96, 26.5 152 M79.5 152 C68.32 151.64, 56 153.43, 26.5 152 M26.5 152 C8.26 151.59, 1.16 143.48, 0 125.5 M26.5 152 C10.85 153.77, 0.09 144.83, 0 125.5 M0 125.5 C-1.97 98.61, -0.23 71.73, 0 26.5 M0 125.5 C0.8 93.25, 1.56 60.89, 0 26.5 M0 26.5 C-0.59 8.56, 7.77 1.22, 26.5 0 M0 26.5 C-1.62 10.65, 9.69 0.79, 26.5 0" stroke="#1e1e1e" stroke-width="2" fill="none"></path></g><g transform="translate(449.73939655357134 245.21428571428578) rotate(0 36.123046875 23)"><text x="36.123046875" y="18.400390625" font-family="Helvetica, Segoe UI Emoji" font-size="20px" fill="#1e1e1e" text-anchor="middle" style="white-space: pre;" direction="ltr" dominant-baseline="alphabetic">Service </text><text x="36.123046875" y="41.400390625" font-family="Helvetica, Segoe UI Emoji" font-size="20px" fill="#1e1e1e" text-anchor="middle" style="white-space: pre;" direction="ltr" dominant-baseline="alphabetic">Layer</text></g><g stroke-linecap="round" transform="translate(602.8624434285714 189.71428571428578) rotate(0 53 76)"><path d="M26.5 0 C38.26 -2.74, 50.01 0.55, 79.5 0 C96.71 -2.23, 107.57 11.79, 106 26.5 C104.13 58.17, 110.59 92.15, 106 125.5 C106.59 144.79, 99.88 149.61, 79.5 152 C66.42 151.74, 49.31 153.11, 26.5 152 C12.03 149.62, -0.73 142.51, 0 125.5 C-0.47 87.36, 2.14 53.01, 0 26.5 C1.63 7.16, 7.68 1.78, 26.5 0" stroke="none" stroke-width="0" fill="#a5d8ff"></path><path d="M26.5 0 C43.6 1.42, 62.54 2.07, 79.5 0 M26.5 0 C44 -0.21, 60.17 -1.02, 79.5 0 M79.5 0 C99.01 1.89, 107.79 9.13, 106 26.5 M79.5 0 C97.7 -1, 106.52 7.97, 106 26.5 M106 26.5 C106.93 67.1, 104.15 103.11, 106 125.5 M106 26.5 C104.45 49.62, 105.02 71.99, 106 125.5 M106 125.5 C105.72 143, 95.53 150.53, 79.5 152 M106 125.5 C104.36 143.85, 97.38 150.61, 79.5 152 M79.5 152 C62.88 150.68, 42.57 152.08, 26.5 152 M79.5 152 C58.99 150.87, 39.8 152.42, 26.5 152 M26.5 152 C7.45 152.12, -1.44 141.81, 0 125.5 M26.5 152 C9.88 151.06, -1.37 142.43, 0 125.5 M0 125.5 C2.43 90.05, -0.4 55.27, 0 26.5 M0 125.5 C1.26 91.82, 0.05 59.9, 0 26.5 M0 26.5 C-0.6 9.73, 7.5 1.25, 26.5 0 M0 26.5 C2.14 6.9, 10.56 1.74, 26.5 0" stroke="#1e1e1e" stroke-width="2" fill="none"></path></g><g transform="translate(608.0645918660714 242.71428571428578) rotate(0 47.7978515625 23)"><text x="47.7978515625" y="18.400390625" font-family="Helvetica, Segoe UI Emoji" font-size="20px" fill="#1e1e1e" text-anchor="middle" style="white-space: pre;" direction="ltr" dominant-baseline="alphabetic">Repository</text><text x="47.7978515625" y="41.400390625" font-family="Helvetica, Segoe UI Emoji" font-size="20px" fill="#1e1e1e" text-anchor="middle" style="white-space: pre;" direction="ltr" dominant-baseline="alphabetic">interface</text></g><g stroke-linecap="round" transform="translate(772.8624438571426 189.7142852857143) rotate(0 53.00000000000006 76)"><path d="M26.5 0 C46.13 1.72, 61.42 -2.43, 79.5 0 C97.03 0.91, 105.07 9.15, 106 26.5 C107.46 53.85, 104.36 80.43, 106 125.5 C107.04 143.97, 100.13 150.13, 79.5 152 C70.71 149.11, 55.91 155.3, 26.5 152 C7.87 148.61, -2.91 140.21, 0 125.5 C-0.33 89.93, 2.32 59.81, 0 26.5 C2.6 8.77, 12.27 2.22, 26.5 0" stroke="none" stroke-width="0" fill="#ffc9c9"></path><path d="M26.5 0 C44.24 -0.05, 62.91 1.37, 79.5 0 M26.5 0 C42.48 -0.44, 57.47 -1.11, 79.5 0 M79.5 0 C98.51 -1.27, 104.69 7.53, 106 26.5 M79.5 0 C97.51 1.95, 106.55 7.27, 106 26.5 M106 26.5 C107.03 57.14, 106.06 86.97, 106 125.5 M106 26.5 C107.13 52.12, 107.63 78.42, 106 125.5 M106 125.5 C104.06 144.83, 95.41 152.21, 79.5 152 M106 125.5 C106.02 141.81, 96.3 153.17, 79.5 152 M79.5 152 C61.59 151.1, 47.56 151.41, 26.5 152 M79.5 152 C60.03 150.81, 39.79 151.55, 26.5 152 M26.5 152 C10.66 153.17, -1.97 143.94, 0 125.5 M26.5 152 C9.51 150.57, 1.13 141.1, 0 125.5 M0 125.5 C-2.42 99.64, -1.33 69.36, 0 26.5 M0 125.5 C0.27 87.9, 0.54 52.42, 0 26.5 M0 26.5 C-1.04 8.63, 10.43 0.61, 26.5 0 M0 26.5 C-0.6 10.82, 8.56 -1.5, 26.5 0" stroke="#1e1e1e" stroke-width="2" fill="none"></path></g><g transform="translate(798.6261157321426 254.2142852857143) rotate(0 27.236328125 11.5)"><text x="27.236328125" y="18.400390625" font-family="Helvetica, Segoe UI Emoji" font-size="20px" fill="#1e1e1e" text-anchor="middle" style="white-space: pre;" direction="ltr" dominant-baseline="alphabetic">Model</text></g><g stroke-linecap="round"><g transform="translate(603.3394518941491 455.55839544339403) rotate(0 53.34597868674314 58.81704221370444)" fill-rule="evenodd"><path d="M1.02 -1.86 C1.17 15.78, 2.17 86.33, 2.21 106.15 C2.24 125.96, 1.09 114.2, 1.24 117.03 C1.38 119.87, -0.96 121.31, 3.1 123.18 C7.16 125.04, 16.34 127.58, 25.6 128.2 C34.86 128.82, 48.21 127.36, 58.67 126.9 C69.14 126.44, 80.46 126.72, 88.39 125.44 C96.32 124.17, 103.14 120.93, 106.25 119.26 C109.36 117.59, 106.45 117.34, 107.07 115.41 C107.68 113.48, 109.95 125.2, 109.96 107.68 C109.97 90.16, 107.8 27.96, 107.13 10.3 C106.47 -7.36, 107.13 4.2, 105.97 1.72 C104.81 -0.76, 103.87 -2.79, 100.17 -4.59 C96.47 -6.39, 91.77 -7.73, 83.79 -9.07 C75.82 -10.42, 61.77 -12.71, 52.33 -12.67 C42.89 -12.62, 35.25 -9.79, 27.15 -8.8 C19.05 -7.82, 7.9 -8.37, 3.74 -6.75 C-0.42 -5.13, 2.81 -0.05, 2.2 0.92 C1.59 1.88, 0.67 -0.74, 0.08 -0.94" stroke="none" stroke-width="0" fill="#d0bfff" fill-rule="evenodd"></path><path d="M0.41 -1.11 C0.48 16.45, 0.77 86.05, 0.71 105.89 C0.66 125.73, -0.94 115.36, 0.06 117.91 C1.06 120.47, 2.72 119.79, 6.7 121.23 C10.69 122.67, 15.45 125.6, 23.96 126.58 C32.48 127.55, 47.07 127.11, 57.78 127.07 C68.49 127.04, 80.36 127.3, 88.22 126.36 C96.08 125.42, 101.95 123.16, 104.96 121.43 C107.97 119.69, 105.89 118.3, 106.28 115.95 C106.67 113.61, 107.19 125.11, 107.31 107.35 C107.43 89.59, 106.94 27.22, 107.01 9.41 C107.07 -8.4, 108.95 2.83, 107.71 0.48 C106.46 -1.86, 103.13 -3.09, 99.53 -4.65 C95.92 -6.21, 93.93 -7.79, 86.09 -8.87 C78.26 -9.94, 62.54 -10.81, 52.51 -11.11 C42.48 -11.42, 33.81 -11.64, 25.92 -10.69 C18.03 -9.74, 9.7 -7.06, 5.17 -5.4 C0.64 -3.74, -0.37 -1.75, -1.24 -0.72 C-2.11 0.31, -0.11 0.66, -0.03 0.78 M-0.83 0.92 C-0.92 18.11, -0.07 85.05, -0.05 104.25 C-0.02 123.45, -1.34 113.16, -0.69 116.1 C-0.03 119.04, -0.5 120.06, 3.9 121.89 C8.3 123.71, 17.08 125.8, 25.72 127.04 C34.37 128.27, 45.27 129.58, 55.78 129.3 C66.28 129.03, 80.74 126.68, 88.78 125.39 C96.81 124.11, 100.8 123.42, 103.97 121.6 C107.13 119.79, 107.11 116.88, 107.77 114.51 C108.43 112.14, 108.05 125.28, 107.95 107.38 C107.85 89.47, 107.37 24.86, 107.18 7.06 C106.99 -10.75, 108.08 2.54, 106.82 0.53 C105.55 -1.48, 103.11 -3.36, 99.61 -4.99 C96.11 -6.61, 93.59 -8.1, 85.83 -9.22 C78.07 -10.34, 62.84 -11.56, 53.06 -11.69 C43.28 -11.83, 35.3 -11.12, 27.16 -10.02 C19.02 -8.93, 8.65 -6.68, 4.21 -5.13 C-0.23 -3.57, 1.45 -1.79, 0.51 -0.7 C-0.43 0.4, -1.24 1.63, -1.43 1.45" stroke="#1e1e1e" stroke-width="1" fill="none"></path></g></g><mask></mask><g stroke-linecap="round" transform="translate(602.6495400154779 443.30082633262225) rotate(0 53.458196091810976 10.811517977045924)"><path d="M45.82 -0.47 C55.37 -0.93, 68.68 0.12, 77.81 1.3 C86.94 2.49, 95.8 4.81, 100.59 6.63 C105.37 8.45, 108.27 10.08, 106.52 12.21 C104.78 14.35, 97.54 17.87, 90.11 19.42 C82.67 20.98, 72.16 21.46, 61.9 21.53 C51.63 21.61, 37.91 20.7, 28.52 19.87 C19.13 19.03, 10.14 18.25, 5.56 16.51 C0.99 14.78, -0.55 11.85, 1.08 9.46 C2.72 7.07, 6.56 3.78, 15.39 2.17 C24.22 0.56, 45.96 0.09, 54.06 -0.21 C62.17 -0.51, 64.05 0.08, 64.02 0.38 M65.95 1.62 C75.91 2.14, 89.53 3.52, 96.2 4.73 C102.88 5.95, 105.59 6.88, 106.01 8.92 C106.43 10.96, 104.06 15.08, 98.71 16.97 C93.35 18.86, 83.9 19.58, 73.87 20.24 C63.83 20.9, 48.94 21.55, 38.49 20.92 C28.04 20.3, 17.64 17.96, 11.18 16.47 C4.73 14.98, 0.27 14.15, -0.24 12 C-0.75 9.85, 2.25 5.3, 8.12 3.58 C13.98 1.85, 24.99 2.42, 34.95 1.64 C44.91 0.86, 62.76 -0.77, 67.87 -1.12 C72.97 -1.47, 65.78 -1.05, 65.59 -0.45" stroke="none" stroke-width="0" fill="#d0bfff"></path><path d="M53.68 -0.68 C63.52 -0.89, 77.35 1.2, 85.74 2.57 C94.12 3.93, 100.82 5.54, 103.96 7.51 C107.11 9.48, 107.78 12.49, 104.61 14.39 C101.43 16.28, 93.64 17.71, 84.94 18.88 C76.25 20.05, 62.92 21.37, 52.43 21.42 C41.95 21.48, 30.31 20.31, 22.04 19.21 C13.78 18.11, 5.91 16.83, 2.84 14.8 C-0.22 12.78, 0.21 9.09, 3.66 7.06 C7.12 5.04, 13.19 3.72, 23.57 2.65 C33.94 1.59, 57.05 0.82, 65.93 0.66 C74.81 0.49, 77.16 1.47, 76.84 1.67 M33.71 1.74 C42.78 1, 55.49 -0.04, 65.78 0.35 C76.07 0.74, 88.51 2.66, 95.45 4.1 C102.4 5.54, 106.72 6.78, 107.44 8.99 C108.15 11.19, 105.33 15.33, 99.75 17.32 C94.16 19.31, 84.09 20.16, 73.92 20.93 C63.74 21.7, 48.89 22.31, 38.7 21.96 C28.51 21.6, 19.08 20.62, 12.79 18.78 C6.5 16.94, 1.69 13.25, 0.94 10.94 C0.2 8.62, 2.7 6.72, 8.31 4.91 C13.91 3.09, 30.29 0.76, 34.58 0.04 C38.87 -0.69, 33.61 0.15, 34.05 0.56" stroke="#1e1e1e" stroke-width="1" fill="none"></path></g><g transform="translate(614.9338720000001 502.0000000000001) rotate(0 42.8076171875 11.5)"><text x="0" y="18.400390625" font-family="Helvetica, Segoe UI Emoji" font-size="20px" fill="#1e1e1e" text-anchor="start" style="white-space: pre;" direction="ltr" dominant-baseline="alphabetic">Database</text></g><g stroke-linecap="round"><g transform="translate(823.1886705743152 356.2857138571429) rotate(0 -51.75694079126191 47.076007161670816)"><path d="M0.96 0.48 C-4.06 11.37, -12.42 49.18, -29.95 64.85 C-47.48 80.51, -91.65 89.73, -104.22 94.47 M0.01 -0.32 C-5.16 10.75, -13.25 50.43, -30.66 65.93 C-48.08 81.42, -92.06 87.93, -104.48 92.64" stroke="#1e1e1e" stroke-width="2" fill="none"></path></g><g transform="translate(823.1886705743152 356.2857138571429) rotate(0 -51.75694079126191 47.076007161670816)"><path d="M-106.32 92.33 L-94.3 81.3 L-90.28 95.56 L-106.41 92.55" stroke="none" stroke-width="0" fill="#1e1e1e" fill-rule="evenodd"></path><path d="M-104.48 92.64 C-100.18 90.02, -98.21 87.58, -93.02 82.96 M-104.48 92.64 C-100.53 89.29, -95.24 85.72, -93.02 82.96 M-93.02 82.96 C-91.42 85.66, -92.1 89.89, -89.7 95.2 M-93.02 82.96 C-92.14 87.26, -90.25 91.33, -89.7 95.2 M-89.7 95.2 C-95.48 95.59, -99.55 92.94, -104.48 92.64 M-89.7 95.2 C-95.08 95.13, -99.51 94.05, -104.48 92.64 M-104.48 92.64 C-104.48 92.64, -104.48 92.64, -104.48 92.64 M-104.48 92.64 C-104.48 92.64, -104.48 92.64, -104.48 92.64" stroke="#1e1e1e" stroke-width="2" fill="none"></path></g></g><mask></mask><g stroke-linecap="round"><g transform="translate(592.3878161445116 449.0707348564272) rotate(0 -51.128808911967894 -47.402885742028076)"><path d="M0.71 -0.37 C-12.54 -5.11, -63.28 -14.26, -80.46 -29.6 C-97.64 -44.93, -98.83 -81.71, -102.39 -92.38 M-0.38 -1.61 C-13.17 -6.14, -61.1 -13.16, -78.2 -28.64 C-95.3 -44.11, -99.16 -83.73, -102.97 -94.44" stroke="#1e1e1e" stroke-width="2" fill="none"></path></g><g transform="translate(592.3878161445116 449.0707348564272) rotate(0 -51.128808911967894 -47.402885742028076)"><path d="M0.51 0.62 L-12.22 2.62 L-10.62 -9.08 L2.48 -2.34" stroke="none" stroke-width="0" fill="#1e1e1e" fill-rule="evenodd"></path><path d="M0.71 -0.37 C-3.04 -0.86, -7.21 1.17, -14.12 1.92 M0.71 -0.37 C-4.89 0.5, -9.5 0.41, -14.12 1.92 M-14.12 1.92 C-13.29 -0.65, -12.86 -4.12, -10.57 -10.25 M-14.12 1.92 C-13.56 -1.97, -12.27 -4.4, -10.57 -10.25 M-10.57 -10.25 C-8.85 -7.2, -6.69 -7.36, 0.71 -0.37 M-10.57 -10.25 C-7.22 -7, -4.32 -3.75, 0.71 -0.37 M0.71 -0.37 C0.71 -0.37, 0.71 -0.37, 0.71 -0.37 M0.71 -0.37 C0.71 -0.37, 0.71 -0.37, 0.71 -0.37" stroke="#1e1e1e" stroke-width="2" fill="none"></path></g><g transform="translate(592.3878161445116 449.0707348564272) rotate(0 -51.128808911967894 -47.402885742028076)"><path d="M-103.16 -93.45 L-91.77 -81.97 L-106.04 -78.57 L-101.2 -96.41" stroke="none" stroke-width="0" fill="#1e1e1e" fill-rule="evenodd"></path><path d="M-102.97 -94.44 C-101.49 -92.98, -100.36 -88.87, -93.66 -82.67 M-102.97 -94.44 C-100.15 -90.16, -96.42 -86.97, -93.66 -82.67 M-93.66 -82.67 C-97.25 -80.9, -101.27 -80.13, -106 -79.75 M-93.66 -82.67 C-97.26 -82.37, -100.26 -80.72, -106 -79.75 M-106 -79.75 C-106.15 -81.91, -105.75 -87.29, -102.97 -94.44 M-106 -79.75 C-105.06 -83.86, -104.66 -88.04, -102.97 -94.44 M-102.97 -94.44 C-102.97 -94.44, -102.97 -94.44, -102.97 -94.44 M-102.97 -94.44 C-102.97 -94.44, -102.97 -94.44, -102.97 -94.44" stroke="#1e1e1e" stroke-width="2" fill="none"></path></g></g><mask></mask><g stroke-linecap="round"><g transform="translate(138.8480049999999 273.22037835304843) rotate(0 59.76178937751391 -0.7135772697987193)"><path d="M-0.09 -0.75 C19.89 -1.1, 98.79 -2.64, 119.03 -2.89 M-1.6 1.47 C18.8 1.33, 100.66 -1.33, 121.12 -1.74" stroke="#1e1e1e" stroke-width="2" fill="none"></path></g><g transform="translate(138.8480049999999 273.22037835304843) rotate(0 59.76178937751391 -0.7135772697987193)"><path d="M-1.28 -1.15 L13.56 -6.17 L12.13 3.65 L-1.78 -1.53" stroke="none" stroke-width="0" fill="#1e1e1e" fill-rule="evenodd"></path><path d="M-0.09 -0.75 C2.1 -3.74, 5.22 -2.36, 13.38 -7.34 M-0.09 -0.75 C4.14 -1.86, 7.13 -3.99, 13.38 -7.34 M13.38 -7.34 C12.51 -3.25, 13.4 0.3, 13.62 5.33 M13.38 -7.34 C13.36 -4.28, 13.35 -0.48, 13.62 5.33 M13.62 5.33 C8.33 2.41, 3.79 0.78, -0.09 -0.75 M13.62 5.33 C10.79 4.36, 6.25 1.81, -0.09 -0.75 M-0.09 -0.75 C-0.09 -0.75, -0.09 -0.75, -0.09 -0.75 M-0.09 -0.75 C-0.09 -0.75, -0.09 -0.75, -0.09 -0.75" stroke="#1e1e1e" stroke-width="2" fill="none"></path></g><g transform="translate(138.8480049999999 273.22037835304843) rotate(0 59.76178937751391 -0.7135772697987193)"><path d="M119.94 -2.14 L107.88 6.13 L105.87 -9.4 L119.43 -2.52" stroke="none" stroke-width="0" fill="#1e1e1e" fill-rule="evenodd"></path><path d="M121.12 -1.74 C117.06 -1.69, 114 2.73, 107.7 4.96 M121.12 -1.74 C117.64 0.78, 112.79 2.52, 107.7 4.96 M107.7 4.96 C106.4 0.2, 107.09 -5.12, 107.36 -7.71 M107.7 4.96 C107.3 1.5, 107.15 -1.21, 107.36 -7.71 M107.36 -7.71 C112.67 -5.73, 118.82 -2.67, 121.12 -1.74 M107.36 -7.71 C111.31 -5.74, 113.58 -5.3, 121.12 -1.74 M121.12 -1.74 C121.12 -1.74, 121.12 -1.74, 121.12 -1.74 M121.12 -1.74 C121.12 -1.74, 121.12 -1.74, 121.12 -1.74" stroke="#1e1e1e" stroke-width="2" fill="none"></path></g></g><mask></mask><g stroke-linecap="round"><g transform="translate(372.01250757142844 270.0126459999999) rotate(0 28.11136250661815 0.28890299967540045)"><path d="M0.26 -0.76 C9.9 -0.97, 47.61 -0.87, 57.29 -0.72 M-1.06 1.46 C8.49 1.34, 46.55 0.43, 56.41 0.45" stroke="#1e1e1e" stroke-width="2" fill="none"></path></g><g transform="translate(372.01250757142844 270.0126459999999) rotate(0 28.11136250661815 0.28890299967540045)"><path d="M1.46 0.16 L15.2 -6.62 L13.63 7.47 L-0.69 -0.51" stroke="none" stroke-width="0" fill="#1e1e1e" fill-rule="evenodd"></path><path d="M0.26 -0.76 C2.69 -2.21, 6.16 -2.54, 13.84 -7.12 M0.26 -0.76 C4.4 -3.02, 9.13 -5.47, 13.84 -7.12 M13.84 -7.12 C12.56 -2.1, 14.36 1.89, 13.86 5.56 M13.84 -7.12 C13.15 -1.62, 13.49 2.97, 13.86 5.56 M13.86 5.56 C10.55 2.87, 5.98 3.08, 0.26 -0.76 M13.86 5.56 C10.5 4.47, 7.05 2.55, 0.26 -0.76 M0.26 -0.76 C0.26 -0.76, 0.26 -0.76, 0.26 -0.76 M0.26 -0.76 C0.26 -0.76, 0.26 -0.76, 0.26 -0.76" stroke="#1e1e1e" stroke-width="2" fill="none"></path></g><g transform="translate(372.01250757142844 270.0126459999999) rotate(0 28.11136250661815 0.28890299967540045)"><path d="M57.61 1.37 L44.26 7.46 L42.51 -3.81 L55.46 0.69" stroke="none" stroke-width="0" fill="#1e1e1e" fill-rule="evenodd"></path><path d="M56.41 0.45 C52.1 2.29, 48.76 5.19, 42.9 6.96 M56.41 0.45 C51.95 2.27, 48.2 3.86, 42.9 6.96 M42.9 6.96 C41.61 2.05, 43.35 -3.89, 42.74 -5.72 M42.9 6.96 C42.35 2.41, 42.62 -3.03, 42.74 -5.72 M42.74 -5.72 C46.79 -4.8, 49.55 -1.23, 56.41 0.45 M42.74 -5.72 C45.94 -3.78, 48.99 -2.72, 56.41 0.45 M56.41 0.45 C56.41 0.45, 56.41 0.45, 56.41 0.45 M56.41 0.45 C56.41 0.45, 56.41 0.45, 56.41 0.45" stroke="#1e1e1e" stroke-width="2" fill="none"></path></g></g><mask></mask><g stroke-linecap="round"><g transform="translate(541.6481572857142 270.0126454285714) rotate(0 27.904864766650917 0.52966139658011)"><path d="M0.06 -0.69 C9.09 -0.63, 45.7 -0.35, 54.9 -0.14 M-1.37 1.56 C7.98 1.85, 47.91 1.83, 57.18 1.33" stroke="#1e1e1e" stroke-width="2" fill="none"></path></g><g transform="translate(541.6481572857142 270.0126454285714) rotate(0 27.904864766650917 0.52966139658011)"><path d="M-0.78 0.38 L13.88 -8.11 L12.56 6.59 L-1.25 -0.42" stroke="none" stroke-width="0" fill="#1e1e1e" fill-rule="evenodd"></path><path d="M0.06 -0.69 C4.12 -3.95, 9.72 -5.75, 13.71 -6.91 M0.06 -0.69 C5.3 -3.31, 8.87 -4.87, 13.71 -6.91 M13.71 -6.91 C14.38 -3.39, 14.46 -0.72, 13.6 5.77 M13.71 -6.91 C13.87 -3.64, 14.11 0.43, 13.6 5.77 M13.6 5.77 C9.74 2.86, 4.12 1.93, 0.06 -0.69 M13.6 5.77 C8.18 3.88, 2.92 1.49, 0.06 -0.69 M0.06 -0.69 C0.06 -0.69, 0.06 -0.69, 0.06 -0.69 M0.06 -0.69 C0.06 -0.69, 0.06 -0.69, 0.06 -0.69" stroke="#1e1e1e" stroke-width="2" fill="none"></path></g><g transform="translate(541.6481572857142 270.0126454285714) rotate(0 27.904864766650917 0.52966139658011)"><path d="M56.35 2.39 L43.9 6.76 L42.42 -3.89 L55.88 1.59" stroke="none" stroke-width="0" fill="#1e1e1e" fill-rule="evenodd"></path><path d="M57.18 1.33 C51.46 2.7, 47.31 5.53, 43.73 7.96 M57.18 1.33 C53.04 3.44, 47.17 6.37, 43.73 7.96 M43.73 7.96 C44.48 5.61, 44.52 2.41, 43.45 -4.71 M43.73 7.96 C43.61 3.92, 43.79 0.68, 43.45 -4.71 M43.45 -4.71 C49.06 -3.52, 52.89 -0.12, 57.18 1.33 M43.45 -4.71 C48.18 -2.09, 53.11 0.18, 57.18 1.33 M57.18 1.33 C57.18 1.33, 57.18 1.33, 57.18 1.33 M57.18 1.33 C57.18 1.33, 57.18 1.33, 57.18 1.33" stroke="#1e1e1e" stroke-width="2" fill="none"></path></g></g><mask></mask><g stroke-linecap="round"><g transform="translate(713.6088225714284 272.5471166555352) rotate(0 27.25362129341852 0.9518207244397274)"><path d="M1.04 0.69 C9.91 0.67, 45.4 0.53, 54.38 0.62 M0.13 0.01 C8.74 0.08, 44.42 1.46, 53.48 1.89" stroke="#1e1e1e" stroke-width="2" fill="none"></path></g><g transform="translate(713.6088225714284 272.5471166555352) rotate(0 27.25362129341852 0.9518207244397274)"><path d="M-0.44 0.04 L15.12 -5.28 L13.13 5.28 L1.19 1.79" stroke="none" stroke-width="0" fill="#1e1e1e" fill-rule="evenodd"></path><path d="M1.04 0.69 C7.28 -1.84, 11.2 -3.71, 14.62 -5.68 M1.04 0.69 C5.58 -1.69, 9.56 -3.43, 14.62 -5.68 M14.62 -5.68 C14.39 -3.31, 14.1 0.48, 14.65 7 M14.62 -5.68 C13.9 -2.53, 14.98 -1.07, 14.65 7 M14.65 7 C11.99 5.02, 8.07 3.64, 1.04 0.69 M14.65 7 C10.77 4.49, 6.82 2.82, 1.04 0.69 M1.04 0.69 C1.04 0.69, 1.04 0.69, 1.04 0.69 M1.04 0.69 C1.04 0.69, 1.04 0.69, 1.04 0.69" stroke="#1e1e1e" stroke-width="2" fill="none"></path></g><g transform="translate(713.6088225714284 272.5471166555352) rotate(0 27.25362129341852 0.9518207244397274)"><path d="M52 1.24 L40.14 8.06 L38.65 -6.73 L53.64 2.99" stroke="none" stroke-width="0" fill="#1e1e1e" fill-rule="evenodd"></path><path d="M53.48 1.89 C48.87 4.43, 41.86 7.41, 39.64 7.66 M53.48 1.89 C49.49 3.11, 45 5.12, 39.64 7.66 M39.64 7.66 C39.52 4.34, 39.34 2.44, 40.17 -5.01 M39.64 7.66 C39.27 5.6, 40.45 1.86, 40.17 -5.01 M40.17 -5.01 C44.2 -3.98, 46.96 -2.08, 53.48 1.89 M40.17 -5.01 C43.93 -3.63, 47.64 -1.53, 53.48 1.89 M53.48 1.89 C53.48 1.89, 53.48 1.89, 53.48 1.89 M53.48 1.89 C53.48 1.89, 53.48 1.89, 53.48 1.89" stroke="#1e1e1e" stroke-width="2" fill="none"></path></g></g><mask></mask><g transform="translate(170.21958628571423 201.42857142857133) rotate(0 33.3544921875 23)"><text x="0" y="18.400390625" font-family="Helvetica, Segoe UI Emoji" font-size="20px" fill="#f08c00" text-anchor="start" style="white-space: pre;" direction="ltr" dominant-baseline="alphabetic">HTTPS</text><text x="0" y="41.400390625" font-family="Helvetica, Segoe UI Emoji" font-size="20px" fill="#f08c00" text-anchor="start" style="white-space: pre;" direction="ltr" dominant-baseline="alphabetic">request</text></g><g transform="translate(83.076729142857 10) rotate(0 147.2998046875 23)"><text x="0" y="18.400390625" font-family="Helvetica, Segoe UI Emoji" font-size="20px" fill="#1971c2" text-anchor="start" style="white-space: pre;" direction="ltr" dominant-baseline="alphabetic">Thymeleaf &amp; HTML</text><text x="0" y="41.400390625" font-family="Helvetica, Segoe UI Emoji" font-size="20px" fill="#1971c2" text-anchor="start" style="white-space: pre;" direction="ltr" dominant-baseline="alphabetic">server-side Java template engine</text></g><g stroke-linecap="round"><g transform="translate(198.17929595674923 70.21887497526063) rotate(0 -27.000224905462005 70.87981000235902)"><path d="M-1.04 -0.32 C-1.12 15.74, 10.09 71.98, 0.56 95.73 C-8.97 119.48, -48.11 134.26, -58.24 142.2 M0.61 -1.53 C0.34 14.68, 9.74 72.51, -0.09 96.64 C-9.93 120.78, -48.35 135.87, -58.41 143.29" stroke="#1971c2" stroke-width="2" fill="none"></path></g><g transform="translate(198.17929595674923 70.21887497526063) rotate(0 -27.000224905462005 70.87981000235902)"><path d="M-0.19 -0.9 L7.18 13.83 L-6.13 14.6 L-0.59 0.76" stroke="none" stroke-width="0" fill="#1971c2" fill-rule="evenodd"></path><path d="M-1.04 -0.32 C1.35 5.46, 3.1 11.21, 6.37 12.73 M-1.04 -0.32 C0.86 3.61, 2.73 7.2, 6.37 12.73 M6.37 12.73 C3.7 12.37, -0.05 12.97, -6.27 13.74 M6.37 12.73 C2.38 12.69, -2.32 12.92, -6.27 13.74 M-6.27 13.74 C-4.21 10.24, -3.49 5.35, -1.04 -0.32 M-6.27 13.74 C-4.82 9.53, -2.86 4.53, -1.04 -0.32 M-1.04 -0.32 C-1.04 -0.32, -1.04 -0.32, -1.04 -0.32 M-1.04 -0.32 C-1.04 -0.32, -1.04 -0.32, -1.04 -0.32" stroke="#1971c2" stroke-width="2" fill="none"></path></g><g transform="translate(198.17929595674923 70.21887497526063) rotate(0 -27.000224905462005 70.87981000235902)"><path d="M-57.55 142.7 L-49.01 132.09 L-43.32 142.82 L-57.95 144.36" stroke="none" stroke-width="0" fill="#1971c2" fill-rule="evenodd"></path><path d="M-58.41 143.29 C-55.44 139.34, -53.24 135.34, -49.82 130.99 M-58.41 143.29 C-56.01 140.53, -53.83 137.44, -49.82 130.99 M-49.82 130.99 C-48.55 132.84, -48.31 135.53, -43.46 141.96 M-49.82 130.99 C-47.47 134.39, -45.92 137.9, -43.46 141.96 M-43.46 141.96 C-48.28 143.53, -54.47 143.9, -58.41 143.29 M-43.46 141.96 C-48.75 142.73, -53.42 142.79, -58.41 143.29 M-58.41 143.29 C-58.41 143.29, -58.41 143.29, -58.41 143.29 M-58.41 143.29 C-58.41 143.29, -58.41 143.29, -58.41 143.29" stroke="#1971c2" stroke-width="2" fill="none"></path></g></g><mask></mask><g stroke-linecap="round"><g transform="translate(325.5892422286204 67.14285714285717) rotate(0 0.5755482671322909 55.39761900581419)"><path d="M-0.43 0.62 C-0.18 18.88, 0.6 91.19, 0.82 109.58 M1.55 -0.1 C1.77 18.33, 0.46 92.69, 0.3 110.9" stroke="#1971c2" stroke-width="2" fill="none"></path></g><g transform="translate(325.5892422286204 67.14285714285717) rotate(0 0.5755482671322909 55.39761900581419)"><path d="M-1.28 0.68 L4.25 12.38 L-7.05 15.13 L-1.54 -1.02" stroke="none" stroke-width="0" fill="#1971c2" fill-rule="evenodd"></path><path d="M-0.43 0.62 C1.92 4.95, 2.21 8.3, 6.07 14.14 M-0.43 0.62 C2.62 5.79, 4.25 10.77, 6.07 14.14 M6.07 14.14 C0.6 13.07, -4.3 13.85, -6.61 14.28 M6.07 14.14 C1.18 14.65, -4.27 14.04, -6.61 14.28 M-6.61 14.28 C-5.21 10.9, -3.24 7.39, -0.43 0.62 M-6.61 14.28 C-5.61 11.17, -3.36 8.44, -0.43 0.62 M-0.43 0.62 C-0.43 0.62, -0.43 0.62, -0.43 0.62 M-0.43 0.62 C-0.43 0.62, -0.43 0.62, -0.43 0.62" stroke="#1971c2" stroke-width="2" fill="none"></path></g><g transform="translate(325.5892422286204 67.14285714285717) rotate(0 0.5755482671322909 55.39761900581419)"><path d="M-0.56 110.96 L-7.68 95.46 L6.38 98.23 L-0.81 109.26" stroke="none" stroke-width="0" fill="#1971c2" fill-rule="evenodd"></path><path d="M0.3 110.9 C-0.43 108.57, -3.22 105.3, -5.86 97.22 M0.3 110.9 C-1.74 105.68, -4.94 100.28, -5.86 97.22 M-5.86 97.22 C-1.51 96.16, 3.4 96.95, 6.82 97.39 M-5.86 97.22 C-1.03 97.97, 3.23 97.37, 6.82 97.39 M6.82 97.39 C4.76 101.39, 3.29 105.24, 0.3 110.9 M6.82 97.39 C4.93 100.54, 4.25 104.08, 0.3 110.9 M0.3 110.9 C0.3 110.9, 0.3 110.9, 0.3 110.9 M0.3 110.9 C0.3 110.9, 0.3 110.9, 0.3 110.9" stroke="#1971c2" stroke-width="2" fill="none"></path></g></g><mask></mask><g transform="translate(798.2936655267858 435.5714285714289) rotate(0 41.4990234375 23)"><text x="0" y="18.400390625" font-family="Helvetica, Segoe UI Emoji" font-size="20px" fill="#f08c00" text-anchor="start" style="white-space: pre;" direction="ltr" dominant-baseline="alphabetic">Spring </text><text x="0" y="41.400390625" font-family="Helvetica, Segoe UI Emoji" font-size="20px" fill="#f08c00" text-anchor="start" style="white-space: pre;" direction="ltr" dominant-baseline="alphabetic">Data JPA</text></g></svg>