<svg version="1.1" xmlns="http://www.w3.org/2000/svg" viewBox="0 0 1068.8333333333333 762.2204301375289" width="1068.8333333333333" height="762.2204301375289">
  <!-- svg-source:excalidraw -->
  
  <defs>
    <style class="style-fonts">
      @font-face {
        font-family: "Virgil";
        src: url("https://excalidraw.com/Virgil.woff2");
      }
      @font-face {
        font-family: "Cascadia";
        src: url("https://excalidraw.com/Cascadia.woff2");
      }
      @font-face {
        font-family: "Assistant";
        src: url("https://excalidraw.com/Assistant-Regular.woff2");
      }
    </style>
    
  </defs>
  <g stroke-linecap="round" transform="translate(10 24) rotate(0 100.99999999999994 91)"><path d="M32 0 C65.48 -1.79, 92.89 -1.31, 170 0 C189.82 -0.84, 198.4 13.01, 202 32 C205.98 75.15, 206.77 116.86, 202 150 C200.1 168.85, 191.11 184.45, 170 182 C136.17 178, 104.24 182.57, 32 182 C9.78 179.17, 1.72 174.4, 0 150 C-1.31 116.33, -0.54 77.17, 0 32 C1.32 10.86, 9.43 2.88, 32 0" stroke="none" stroke-width="0" fill="#f8f9fa"></path><path d="M32 0 C75.24 -0.57, 118.54 2.18, 170 0 M32 0 C73.39 1.6, 113.21 1.57, 170 0 M170 0 C192.16 -0.95, 201.84 11.59, 202 32 M170 0 C189.06 -0.8, 199.92 9.74, 202 32 M202 32 C201.71 75.82, 204.48 124.94, 202 150 M202 32 C201.64 59.25, 200.5 84.43, 202 150 M202 150 C202.85 170.9, 189.34 183.59, 170 182 M202 150 C202.07 171.89, 190.99 182.29, 170 182 M170 182 C125.93 181.17, 81.7 182.2, 32 182 M170 182 C126.98 184.08, 84.57 184.11, 32 182 M32 182 C9.24 181.29, 0.93 172.92, 0 150 M32 182 C10.91 182.53, 1.99 171.51, 0 150 M0 150 C-0.4 103.16, -1.27 57.35, 0 32 M0 150 C0.2 115.98, 0.39 83.44, 0 32 M0 32 C-0.6 12.02, 9.12 1.51, 32 0 M0 32 C-1.14 9.54, 12.66 -0.41, 32 0" stroke="#1e1e1e" stroke-width="2" fill="none"></path></g><g stroke-linecap="round"><g transform="translate(755.7672921276211 262) rotate(0 -1.1280422176180878 -55.74915553480386)"><path d="M0.91 0.72 C0.55 -17.96, -2.55 -93.5, -3.17 -112.22 M-0.07 0.05 C0.02 -18.43, -0.3 -91.83, -0.92 -110.79" stroke="#1e1e1e" stroke-width="2" fill="none"></path></g><g transform="translate(755.7672921276211 262) rotate(0 -1.1280422176180878 -55.74915553480386)"><path d="M0.6 0.91 L-7.36 -11.58 L8.19 -13.54 L0.2 -0.68" stroke="none" stroke-width="0" fill="#1e1e1e" fill-rule="evenodd"></path><path d="M0.91 0.72 C0.33 -3.27, -2.33 -5.69, -5.91 -12.64 M0.91 0.72 C-1.29 -3.64, -3.97 -8.24, -5.91 -12.64 M-5.91 -12.64 C-0.65 -12.09, 2.93 -12.22, 6.76 -13.09 M-5.91 -12.64 C-2.24 -12.78, 0.18 -13.13, 6.76 -13.09 M6.76 -13.09 C4.76 -6.88, 1.41 -0.95, 0.91 0.72 M6.76 -13.09 C4.29 -8.35, 1.85 -2.35, 0.91 0.72 M0.91 0.72 C0.91 0.72, 0.91 0.72, 0.91 0.72 M0.91 0.72 C0.91 0.72, 0.91 0.72, 0.91 0.72" stroke="#1e1e1e" stroke-width="2" fill="none"></path></g><g transform="translate(755.7672921276211 262) rotate(0 -1.1280422176180878 -55.74915553480386)"><path d="M-1.23 -110.61 L4.19 -96.25 L-5.6 -97.55 L-1.64 -112.19" stroke="none" stroke-width="0" fill="#1e1e1e" fill-rule="evenodd"></path><path d="M-0.92 -110.79 C1.4 -108.99, 1.67 -105.54, 5.64 -97.31 M-0.92 -110.79 C1.24 -106.17, 3.01 -101.84, 5.64 -97.31 M5.64 -97.31 C1.44 -96.52, -4.44 -96.4, -7.04 -97.1 M5.64 -97.31 C3.2 -97.08, -0.5 -97.27, -7.04 -97.1 M-7.04 -97.1 C-4.46 -101.74, -3.1 -106.65, -0.92 -110.79 M-7.04 -97.1 C-4.91 -102.92, -2.78 -107.42, -0.92 -110.79 M-0.92 -110.79 C-0.92 -110.79, -0.92 -110.79, -0.92 -110.79 M-0.92 -110.79 C-0.92 -110.79, -0.92 -110.79, -0.92 -110.79" stroke="#1e1e1e" stroke-width="2" fill="none"></path></g></g><mask></mask><g stroke-linecap="round"><g transform="translate(979.0044364212459 365.9999999999999) rotate(0 -0.28918405112972323 95.97791342305936)"><path d="M-0.94 0.03 C-1.15 32.05, -1.52 159.7, -1.61 191.7 M0.76 -1 C0.97 31.22, 1.27 160.59, 0.72 192.96" stroke="#1e1e1e" stroke-width="2" fill="none"></path></g><g transform="translate(979.0044364212459 365.9999999999999) rotate(0 -0.28918405112972323 95.97791342305936)"><path d="M-1.11 194.19 L-3.71 180.26 L6.57 180.68 L1.51 192.57" stroke="none" stroke-width="0" fill="#1e1e1e" fill-rule="evenodd"></path><path d="M0.72 192.96 C-0.9 188.3, -3.29 184.76, -5.54 179.33 M0.72 192.96 C-0.24 189.78, -2.41 185.17, -5.54 179.33 M-5.54 179.33 C0.16 180.73, 4.18 180, 7.14 179.4 M-5.54 179.33 C-2.75 178.75, 0.77 179.03, 7.14 179.4 M7.14 179.4 C5.9 184.82, 3.76 187.05, 0.72 192.96 M7.14 179.4 C5.65 183.62, 3.23 187.19, 0.72 192.96 M0.72 192.96 C0.72 192.96, 0.72 192.96, 0.72 192.96 M0.72 192.96 C0.72 192.96, 0.72 192.96, 0.72 192.96" stroke="#1e1e1e" stroke-width="2" fill="none"></path></g></g><mask></mask><g stroke-linecap="round" transform="translate(901.8333333333333 441.08333333333326) rotate(0 78.5 16.5)"><path d="M8.25 0 C51.58 -3.14, 95.79 -1.82, 148.75 0 C157.18 0.14, 158.04 3.92, 157 8.25 C158.56 14.67, 159.37 15.65, 157 24.75 C153.52 30.37, 151.41 31.45, 148.75 33 C97.37 32.81, 44.69 32.03, 8.25 33 C5.17 30.71, 0.4 30.37, 0 24.75 C0.75 20.83, -2.39 15.54, 0 8.25 C-1.16 0.08, -0.29 0, 8.25 0" stroke="none" stroke-width="0" fill="#e9ecef"></path><path d="M8.25 0 C44.85 2.03, 79.15 -0.99, 148.75 0 M8.25 0 C52.4 0.77, 98.06 -0.41, 148.75 0 M148.75 0 C156.2 0.08, 155.01 3.55, 157 8.25 M148.75 0 C154.04 0.51, 159.17 4.08, 157 8.25 M157 8.25 C155.75 10.83, 158.27 13.71, 157 24.75 M157 8.25 C157.38 13.28, 157.07 17.68, 157 24.75 M157 24.75 C156.51 30.59, 152.41 31.23, 148.75 33 M157 24.75 C157.09 28.21, 155.74 30.81, 148.75 33 M148.75 33 C100.79 35.2, 49.9 35.86, 8.25 33 M148.75 33 C114.79 32.1, 81.28 31.77, 8.25 33 M8.25 33 C2.73 32.91, -0.28 28.43, 0 24.75 M8.25 33 C1.74 32.18, 1.07 29.51, 0 24.75 M0 24.75 C-0.4 21.78, 0.42 17.98, 0 8.25 M0 24.75 C-0.15 19.9, -0.32 15.23, 0 8.25 M0 8.25 C1.3 3.32, 3.36 -1.38, 8.25 0 M0 8.25 C0.61 2.78, 2.55 -2.28, 8.25 0" stroke="#1e1e1e" stroke-width="2" fill="none"></path></g><g transform="translate(907.1497395833333 446.08333333333326) rotate(0 73.18359375 11.5)"><text x="73.18359375" y="18.400390625" font-family="Helvetica, Segoe UI Emoji" font-size="20px" fill="#1e1e1e" text-anchor="middle" style="white-space: pre;" direction="ltr" dominant-baseline="alphabetic">Spring Data JPA</text></g><g stroke-linecap="round" transform="translate(11.583333333333314 239.66666666666669) rotate(0 50.83333333333337 54.16666666666666)"><path d="M6.11 6.64 C6.11 6.64, 6.11 6.64, 6.11 6.64 M6.11 6.64 C6.11 6.64, 6.11 6.64, 6.11 6.64 M0.99 24.71 C7.65 18.18, 12.92 12.25, 21.99 0.56 M0.99 24.71 C8.2 16.61, 15.01 7.77, 21.99 0.56 M1.13 36.76 C9.89 27.24, 15.95 17.34, 32.62 0.53 M1.13 36.76 C8.93 28.58, 17.47 17.98, 32.62 0.53 M0.6 49.55 C13.04 36.52, 22.22 24.5, 43.25 0.49 M0.6 49.55 C11.52 36.29, 25.38 21.56, 43.25 0.49 M0.74 61.59 C15.98 45.64, 29.35 28.12, 53.88 0.46 M0.74 61.59 C17.16 42.12, 32.14 23.38, 53.88 0.46 M0.87 73.63 C18.11 54.8, 33.38 38.11, 64.51 0.43 M0.87 73.63 C20.19 50.19, 39.47 28.46, 64.51 0.43 M1 85.67 C27.91 53.5, 56.99 20.73, 74.48 1.15 M1 85.67 C27.48 57.33, 53.9 27.7, 74.48 1.15 M3.11 95.45 C23.57 70.96, 45.2 49.56, 84.46 1.87 M3.11 95.45 C25.94 69.26, 49.76 43.26, 84.46 1.87 M7.83 102.21 C35.98 70.07, 66.14 33.49, 92.46 4.85 M7.83 102.21 C34.42 72.17, 59.05 44.3, 92.46 4.85 M14.52 106.7 C33.54 85.69, 50.95 60.27, 98.5 10.1 M14.52 106.7 C37.28 81.51, 61.57 54.49, 98.5 10.1 M23.84 108.18 C54.09 75.14, 84.8 39.2, 100.6 19.88 M23.84 108.18 C46.67 82.54, 67.68 58.17, 100.6 19.88 M34.47 108.14 C50.04 90.87, 65.69 73.87, 102.05 30.41 M34.47 108.14 C59.69 78.12, 85.57 48.88, 102.05 30.41 M45.1 108.11 C56.47 94.42, 72 78.24, 102.18 42.45 M45.1 108.11 C59.33 91.93, 74.88 74.48, 102.18 42.45 M55.08 108.83 C71.38 93.19, 87.43 73.06, 101.66 55.24 M55.08 108.83 C69.91 93.58, 82.06 77.24, 101.66 55.24 M65.71 108.79 C77.25 99.49, 85.65 86.8, 101.79 67.28 M65.71 108.79 C78.97 93.54, 92.29 77.3, 101.79 67.28 M76.34 108.76 C85.35 98.37, 95.62 86.65, 101.92 79.33 M76.34 108.76 C85.02 99.26, 93.25 88.15, 101.92 79.33 M89.59 105.71 C90.89 101.88, 95.05 100.52, 100.09 93.63 M89.59 105.71 C91.93 102.74, 94.6 99.64, 100.09 93.63" stroke="#b2f2bb" stroke-width="1" fill="none"></path><path d="M25.42 0 C34.5 -0.57, 48.02 1.72, 76.25 0 M25.42 0 C40.04 -0.93, 55.22 -0.9, 76.25 0 M76.25 0 C92.05 0.72, 103.21 10.13, 101.67 25.42 M76.25 0 C93.18 1.62, 100.31 7.45, 101.67 25.42 M101.67 25.42 C99.29 48.94, 102.44 72.79, 101.67 82.92 M101.67 25.42 C102.46 41.96, 102.35 56.96, 101.67 82.92 M101.67 82.92 C102.98 99.44, 93.95 108.63, 76.25 108.33 M101.67 82.92 C100.75 99.5, 93.25 107.47, 76.25 108.33 M76.25 108.33 C56.07 108.25, 36.85 109.78, 25.42 108.33 M76.25 108.33 C57.52 107.62, 38.95 107.07, 25.42 108.33 M25.42 108.33 C7.48 109.16, 1.31 98.97, 0 82.92 M25.42 108.33 C6.68 107.99, 2.07 101.25, 0 82.92 M0 82.92 C1.56 61.51, -0.66 38.24, 0 25.42 M0 82.92 C-0.74 60.13, -0.45 39.18, 0 25.42 M0 25.42 C1.42 6.59, 8.34 0.66, 25.42 0 M0 25.42 C-0.8 7.54, 8.92 0.21, 25.42 0" stroke="#1e1e1e" stroke-width="2" fill="none"></path></g><g transform="translate(36.850260416666686 282.33333333333337) rotate(0 25.56640625 11.5)"><text x="25.56640625" y="18.400390625" font-family="Helvetica, Segoe UI Emoji" font-size="20px" fill="#1e1e1e" text-anchor="middle" style="white-space: pre;" direction="ltr" dominant-baseline="alphabetic">Client</text></g><g stroke-linecap="round" transform="translate(284.073955 274.66666666666674) rotate(0 53.33333333333337 127.5)"><path d="M6.44 6.93 C6.44 6.93, 6.44 6.93, 6.44 6.93 M6.44 6.93 C6.44 6.93, 6.44 6.93, 6.44 6.93 M0.67 25.76 C5.52 20.3, 13.92 10.92, 21.66 1.61 M0.67 25.76 C8.19 16.33, 16.44 7.54, 21.66 1.61 M0.8 37.8 C11.35 27.31, 23.7 12.8, 33.61 0.06 M0.8 37.8 C10.35 26.53, 19.3 18.03, 33.61 0.06 M0.94 49.84 C17.8 29.36, 33.09 13.74, 44.24 0.03 M0.94 49.84 C12.83 35.89, 25.89 20.12, 44.24 0.03 M1.07 61.88 C13.94 46.62, 23.88 36.49, 54.21 0.75 M1.07 61.88 C22.33 38.85, 43.52 13.55, 54.21 0.75 M0.55 74.68 C15.44 56.55, 28.36 40.94, 64.84 0.71 M0.55 74.68 C23.9 46.51, 48.24 20.12, 64.84 0.71 M0.68 86.72 C14.16 69.38, 31.81 50.88, 75.47 0.68 M0.68 86.72 C27.83 53.67, 56.66 21.43, 75.47 0.68 M0.81 98.76 C27.46 69.19, 52.24 37.74, 86.1 0.65 M0.81 98.76 C23.39 72.93, 44.91 47.09, 86.1 0.65 M0.95 110.8 C22.69 87.83, 45.6 62.06, 94.11 3.63 M0.95 110.8 C32.54 73.62, 65.09 36.86, 94.11 3.63 M0.42 123.59 C33.08 86, 65.71 44.73, 100.8 8.12 M0.42 123.59 C28.57 92.48, 55.13 63.22, 100.8 8.12 M0.56 135.64 C28.92 103.28, 61.5 69.26, 105.53 14.88 M0.56 135.64 C25.56 107.12, 52.55 78.05, 105.53 14.88 M0.69 147.68 C31.74 110.31, 67.94 71.06, 106.97 25.41 M0.69 147.68 C31.99 110.36, 63.77 75.7, 106.97 25.41 M0.82 159.72 C28.56 126.85, 60.06 93.62, 107.1 37.45 M0.82 159.72 C27.44 129.97, 54.23 96.94, 107.1 37.45 M0.96 171.76 C35.73 135.2, 68.11 96.48, 107.24 49.5 M0.96 171.76 C29.65 137.51, 60.28 104.46, 107.24 49.5 M0.43 184.55 C37.65 141.71, 75.2 98.36, 106.71 62.29 M0.43 184.55 C41.95 138.19, 81.4 93.21, 106.71 62.29 M0.57 196.59 C36.43 159.46, 67.29 119.32, 106.85 74.33 M0.57 196.59 C39.61 150.9, 78.25 105.81, 106.85 74.33 M0.7 208.64 C21.72 184.11, 41.63 160.94, 106.98 86.37 M0.7 208.64 C22.31 183.4, 45.01 158.39, 106.98 86.37 M0.83 220.68 C38.06 176.97, 78.04 133.36, 107.11 98.41 M0.83 220.68 C37.16 179.97, 72.31 139.01, 107.11 98.41 M0.97 232.72 C40.86 191.85, 77.94 149.09, 107.25 110.45 M0.97 232.72 C43.28 186.9, 83.57 139.51, 107.25 110.45 M3.07 242.49 C40.29 195.65, 82.75 150.1, 106.72 123.25 M3.07 242.49 C41.39 199.81, 78.52 156.85, 106.72 123.25 M7.79 249.25 C29.2 221.86, 48.29 200.24, 106.86 135.29 M7.79 249.25 C43.71 209.28, 77.51 168.25, 106.86 135.29 M15.14 252.99 C51.61 211.1, 87.66 168.63, 106.99 147.33 M15.14 252.99 C40.07 224.72, 65 195.97, 106.99 147.33 M23.8 255.22 C51.25 225.1, 73.41 198.45, 107.12 159.37 M23.8 255.22 C55.48 219.8, 86.85 183.16, 107.12 159.37 M34.43 255.19 C54.83 231.6, 76.09 210.74, 107.26 171.41 M34.43 255.19 C52.94 233.05, 73.05 211.09, 107.26 171.41 M45.06 255.15 C68.27 226.04, 95.4 200.05, 106.73 184.21 M45.06 255.15 C67.05 229.6, 87.61 204.69, 106.73 184.21 M55.69 255.12 C64.67 241.5, 76.69 233.05, 106.87 196.25 M55.69 255.12 C67.23 243.21, 77.83 230.01, 106.87 196.25 M65.67 255.84 C80.84 237.54, 96.32 221.97, 107 208.29 M65.67 255.84 C81.42 238.43, 96.02 221.31, 107 208.29 M76.3 255.8 C82.2 249.57, 89.7 238.18, 107.13 220.33 M76.3 255.8 C86.99 242.59, 99.87 229.22, 107.13 220.33 M88.24 254.26 C94.54 249.21, 100.78 242.34, 105.3 234.64 M88.24 254.26 C93.62 247.02, 99.51 239.8, 105.3 234.64" stroke="#99e9f2" stroke-width="1" fill="none"></path><path d="M26.67 0 C42.97 -1.36, 59.39 -0.32, 80 0 M26.67 0 C41.18 0.24, 55.41 0.15, 80 0 M80 0 C98.67 -0.83, 104.8 9.77, 106.67 26.67 M80 0 C96.41 0.89, 108.96 7.21, 106.67 26.67 M106.67 26.67 C108.22 87.38, 106.73 146.51, 106.67 228.33 M106.67 26.67 C104.74 83, 104.35 140.47, 106.67 228.33 M106.67 228.33 C106.43 246.2, 96.02 254.47, 80 255 M106.67 228.33 C106.91 247.32, 99.51 256.05, 80 255 M80 255 C67.01 253.86, 52.13 255.92, 26.67 255 M80 255 C67.83 254.03, 55.38 254.88, 26.67 255 M26.67 255 C10.67 255.29, -1.47 245.27, 0 228.33 M26.67 255 C10.51 252.77, 0.29 246.32, 0 228.33 M0 228.33 C1.14 149.19, 1.71 72.94, 0 26.67 M0 228.33 C0.75 175.21, 0.96 121.09, 0 26.67 M0 26.67 C-1.25 8.97, 8.88 -0.79, 26.67 0 M0 26.67 C-1.92 9.15, 7.6 0.23, 26.67 0" stroke="#1e1e1e" stroke-width="2" fill="none"></path></g><g transform="translate(294.0576789583334 390.66666666666674) rotate(0 43.349609375 11.5)"><text x="43.349609375" y="18.400390625" font-family="Helvetica, Segoe UI Emoji" font-size="20px" fill="#1e1e1e" text-anchor="middle" style="white-space: pre;" direction="ltr" dominant-baseline="alphabetic">Controller</text></g><g stroke-linecap="round" transform="translate(486.1974593333333 274.66666700000013) rotate(0 54.166666666666686 127.49999999999997)"><path d="M4.13 10.21 C4.13 10.21, 4.13 10.21, 4.13 10.21 M4.13 10.21 C4.13 10.21, 4.13 10.21, 4.13 10.21 M0.98 26.03 C9.47 16.57, 14.56 9.43, 22.63 1.12 M0.98 26.03 C8.81 17.42, 14.36 10.1, 22.63 1.12 M1.11 38.07 C14.35 26.25, 26.29 9.63, 33.92 0.33 M1.11 38.07 C13.2 24.77, 25.38 10.54, 33.92 0.33 M1.25 50.11 C14.49 33.41, 27.75 18.5, 44.55 0.3 M1.25 50.11 C16.97 32.67, 34.3 12.33, 44.55 0.3 M0.72 62.9 C11.73 49.01, 22.76 37.44, 55.18 0.26 M0.72 62.9 C14.98 46, 31.14 28.55, 55.18 0.26 M0.86 74.95 C18.41 55.78, 35.81 35.52, 65.81 0.23 M0.86 74.95 C22.29 51.13, 43.97 27.58, 65.81 0.23 M0.99 86.99 C22.4 62.88, 42.09 40.84, 75.78 0.95 M0.99 86.99 C23.61 59.63, 47.35 33.43, 75.78 0.95 M1.12 99.03 C17.96 77.64, 36.84 56.11, 86.41 0.91 M1.12 99.03 C24.94 72.04, 47.59 45.14, 86.41 0.91 M0.6 111.82 C34.83 73.27, 66.73 39.09, 95.07 3.14 M0.6 111.82 C27.83 78.64, 55.58 47.3, 95.07 3.14 M0.73 123.86 C21.66 102.17, 42.2 74.86, 102.42 6.88 M0.73 123.86 C24.91 97.96, 46.42 70.94, 102.42 6.88 M0.87 135.9 C29.82 105.87, 55.43 74.21, 106.49 14.4 M0.87 135.9 C34.95 98.1, 66.02 62.19, 106.49 14.4 M1 147.95 C36.45 110.22, 69.61 67.44, 107.94 24.93 M1 147.95 C29.88 116.44, 55.53 86.42, 107.94 24.93 M1.13 159.99 C24.62 129.03, 51.63 100.01, 108.73 36.21 M1.13 159.99 C34.5 120.72, 68.07 81.89, 108.73 36.21 M0.61 172.78 C31.06 141.3, 59.01 109.76, 108.86 48.25 M0.61 172.78 C35.58 132.31, 70.83 90.98, 108.86 48.25 M0.74 184.82 C36.65 144.66, 73.63 99.09, 108.34 61.05 M0.74 184.82 C39.56 137.55, 80.95 90.69, 108.34 61.05 M0.88 196.86 C36.51 153.77, 73.25 114.19, 108.47 73.09 M0.88 196.86 C29.64 163.55, 58.67 128.89, 108.47 73.09 M1.01 208.9 C28.89 178.3, 57.75 147.84, 108.6 85.13 M1.01 208.9 C25.01 182.52, 47.92 154.85, 108.6 85.13 M0.49 221.7 C32.16 184.16, 65.86 146.27, 108.74 97.17 M0.49 221.7 C25.04 193.11, 49.82 163.72, 108.74 97.17 M1.28 232.99 C29.59 200.1, 59.65 167.22, 108.87 109.21 M1.28 232.99 C29.9 201.96, 57.14 171.45, 108.87 109.21 M3.38 242.76 C32.37 210.09, 59.97 175.55, 108.35 122.01 M3.38 242.76 C43.05 197.26, 85.43 149.31, 108.35 122.01 M8.76 248.77 C36.58 213.51, 69.2 181.4, 108.48 134.05 M8.76 248.77 C46.4 204.86, 83.07 161.82, 108.48 134.05 M15.45 253.26 C41.42 223.1, 65.55 195.48, 108.61 146.09 M15.45 253.26 C36.39 228.47, 60.46 202.73, 108.61 146.09 M24.77 254.73 C47.88 228.93, 69.4 199.79, 108.75 158.13 M24.77 254.73 C56.33 220.21, 86.27 184.32, 108.75 158.13 M35.4 254.7 C53.86 235.04, 74.47 211.68, 108.22 170.93 M35.4 254.7 C62.44 225.95, 87.87 195.69, 108.22 170.93 M46.03 254.67 C65.72 229.28, 87.1 205.79, 108.36 182.97 M46.03 254.67 C64.06 236.07, 80.39 214.65, 108.36 182.97 M56.66 254.63 C68.42 240.05, 82.23 224, 108.49 195.01 M56.66 254.63 C76.43 232.73, 95.4 211.88, 108.49 195.01 M66.63 255.35 C78.64 242.5, 88.95 226.22, 108.62 207.05 M66.63 255.35 C76.84 242.31, 88.61 231.22, 108.62 207.05 M77.26 255.32 C87.63 244.82, 94 235.38, 108.76 219.09 M77.26 255.32 C84.91 247.31, 91.35 239.96, 108.76 219.09 M89.21 253.77 C93.03 246.77, 100.1 241.86, 108.23 231.89 M89.21 253.77 C95.18 246.79, 99.64 240.87, 108.23 231.89" stroke="#ffec99" stroke-width="1" fill="none"></path><path d="M27.08 0 C46.3 0.88, 70.33 -1.23, 81.25 0 M27.08 0 C38.66 1.32, 48.74 0.34, 81.25 0 M81.25 0 C99.29 1.78, 110.08 8.91, 108.33 27.08 M81.25 0 C99.42 -2.29, 107.91 6.82, 108.33 27.08 M108.33 27.08 C106.79 68.33, 107.73 108.83, 108.33 227.92 M108.33 27.08 C108.33 70.35, 108.27 111.79, 108.33 227.92 M108.33 227.92 C109.8 247.69, 99.54 253.41, 81.25 255 M108.33 227.92 C106.72 246.5, 97.59 256.52, 81.25 255 M81.25 255 C65.72 254.69, 54.27 254.86, 27.08 255 M81.25 255 C68.01 255.51, 56.8 256.22, 27.08 255 M27.08 255 C8.33 255.3, 0.56 244.01, 0 227.92 M27.08 255 C10.41 254.22, -0.79 244.07, 0 227.92 M0 227.92 C0.42 181.74, 0.38 135.81, 0 27.08 M0 227.92 C0.82 167.3, 0.81 107.35, 0 27.08 M0 27.08 C-0.98 9.84, 9.22 0, 27.08 0 M0 27.08 C-0.48 8.45, 6.89 -0.57, 27.08 0" stroke="#1e1e1e" stroke-width="2" fill="none"></path></g><g transform="translate(504.24107912499994 379.1666670000001) rotate(0 36.123046875 23)"><text x="36.123046875" y="18.400390625" font-family="Helvetica, Segoe UI Emoji" font-size="20px" fill="#1e1e1e" text-anchor="middle" style="white-space: pre;" direction="ltr" dominant-baseline="alphabetic">Service </text><text x="36.123046875" y="41.400390625" font-family="Helvetica, Segoe UI Emoji" font-size="20px" fill="#1e1e1e" text-anchor="middle" style="white-space: pre;" direction="ltr" dominant-baseline="alphabetic">Layer</text></g><g stroke-linecap="round" transform="translate(927.4999996666668 232.88316266666664) rotate(0 52.42512999999968 62.08333300000001)"><path d="M3.89 10.01 C3.89 10.01, 3.89 10.01, 3.89 10.01 M3.89 10.01 C3.89 10.01, 3.89 10.01, 3.89 10.01 M0.09 26.57 C7.54 17.07, 17.77 8.92, 22.39 0.91 M0.09 26.57 C5.41 20.31, 10.27 15.61, 22.39 0.91 M0.22 38.62 C7 31.15, 14.36 21.14, 33.02 0.88 M0.22 38.62 C12.27 24.44, 26.5 10.24, 33.02 0.88 M0.35 50.66 C12.17 37.42, 18.23 26.92, 43.65 0.85 M0.35 50.66 C16.67 32.18, 33.95 12.41, 43.65 0.85 M0.49 62.7 C14.6 47.94, 25.04 32.53, 54.28 0.81 M0.49 62.7 C12.45 48.82, 26.01 32.76, 54.28 0.81 M-0.04 75.49 C24.9 50.17, 46.16 20.98, 64.91 0.78 M-0.04 75.49 C13.77 59.81, 27.84 43.77, 64.91 0.78 M0.1 87.53 C26.07 58.9, 51.21 28.57, 75.54 0.74 M0.1 87.53 C20.01 64.59, 40.38 41.75, 75.54 0.74 M0.23 99.57 C32.31 62.23, 64.53 25.13, 86.17 0.71 M0.23 99.57 C22.75 74.84, 45.21 47.65, 86.17 0.71 M2.99 108.6 C34.41 72.28, 64.89 37.93, 94.18 3.69 M2.99 108.6 C21.73 85.26, 40.26 62.74, 94.18 3.69 M6.4 116.86 C37.54 77.62, 70.58 38.8, 100.22 8.94 M6.4 116.86 C36.25 81.4, 66.62 45.71, 100.22 8.94 M13.09 121.36 C39.65 90.68, 67.89 58.66, 102.97 17.96 M13.09 121.36 C31.42 98.01, 50.41 76.1, 102.97 17.96 M21.76 123.59 C40.92 100.64, 61.36 75.22, 105.07 27.74 M21.76 123.59 C55.6 85.51, 88.45 48.97, 105.07 27.74 M31.73 124.31 C59.24 92.8, 86.89 59.14, 105.21 39.78 M31.73 124.31 C48.96 105.01, 66.06 84.55, 105.21 39.78 M42.36 124.27 C63.59 99.16, 82.98 78.78, 104.68 52.58 M42.36 124.27 C61.16 101.45, 80.38 81.62, 104.68 52.58 M52.99 124.24 C75.34 99.39, 95.56 75.38, 104.82 64.62 M52.99 124.24 C66.25 109.63, 80.67 93.4, 104.82 64.62 M63.62 124.2 C73.9 110.13, 86.72 95.22, 104.95 76.66 M63.62 124.2 C75.88 111.57, 86 97.31, 104.95 76.66 M74.25 124.17 C83.39 112.47, 91.39 103.97, 105.08 88.7 M74.25 124.17 C83.97 113.02, 91.89 104.18, 105.08 88.7 M85.54 123.38 C93.83 114.88, 98.27 109.64, 104.56 101.49 M85.54 123.38 C93.9 115.46, 100.16 105.04, 104.56 101.49" stroke="#ffc9c9" stroke-width="1" fill="none"></path><path d="M26.21 0 C37.37 -0.49, 51.42 1.26, 78.64 0 M26.21 0 C45.52 -0.21, 65.87 -0.99, 78.64 0 M78.64 0 C95.69 -1.05, 103.56 9.2, 104.85 26.21 M78.64 0 C95.84 0.11, 102.83 8.13, 104.85 26.21 M104.85 26.21 C106.14 47.46, 106.7 72.5, 104.85 97.95 M104.85 26.21 C104.51 47.85, 104.94 70.63, 104.85 97.95 M104.85 97.95 C104.55 113.85, 94.96 124.29, 78.64 124.17 M104.85 97.95 C106.9 115.76, 94.42 123.2, 78.64 124.17 M78.64 124.17 C59.39 125.91, 39.09 124.53, 26.21 124.17 M78.64 124.17 C61.1 124.14, 43.41 123.78, 26.21 124.17 M26.21 124.17 C7.07 125.24, -1.2 115.33, 0 97.95 M26.21 124.17 C7.3 124.26, -0.02 114.52, 0 97.95 M0 97.95 C0.12 81.65, -1.06 67.68, 0 26.21 M0 97.95 C-0.25 74.8, -0.25 52.85, 0 26.21 M0 26.21 C1.02 7.34, 9.77 -1.32, 26.21 0 M0 26.21 C-0.18 8.48, 9.02 -0.46, 26.21 0" stroke="#1e1e1e" stroke-width="2" fill="none"></path></g><g transform="translate(952.6888015416664 283.4664956666666) rotate(0 27.236328125 11.5)"><text x="27.236328125" y="18.400390625" font-family="Helvetica, Segoe UI Emoji" font-size="20px" fill="#1e1e1e" text-anchor="middle" style="white-space: pre;" direction="ltr" dominant-baseline="alphabetic">Model</text></g><g stroke-linecap="round" transform="translate(689.9876303333333 275.78131666666667) rotate(0 64.16666666666674 127.49999999999997)"><path d="M7.86 8.16 C7.86 8.16, 7.86 8.16, 7.86 8.16 M7.86 8.16 C7.86 8.16, 7.86 8.16, 7.86 8.16 M2.75 26.24 C8.33 18.79, 18.53 11.39, 21.12 5.11 M2.75 26.24 C7.91 20.5, 10.2 16.1, 21.12 5.11 M2.88 38.28 C13.83 25.93, 26.99 11, 34.37 2.05 M2.88 38.28 C11.02 29.69, 17.29 20.77, 34.37 2.05 M2.36 51.07 C10.8 41.02, 22.84 26.24, 45 2.02 M2.36 51.07 C18.49 34.15, 32.78 15.35, 45 2.02 M2.49 63.11 C13.9 50.32, 25.45 37.33, 55.63 1.98 M2.49 63.11 C20.92 42.68, 38.82 21.39, 55.63 1.98 M2.62 75.16 C18.62 55.81, 36.27 36.68, 66.26 1.95 M2.62 75.16 C26.19 47.55, 50.02 20.12, 66.26 1.95 M2.76 87.2 C22.41 67.18, 41.14 42.94, 76.23 2.67 M2.76 87.2 C28.27 58.14, 53.19 29.82, 76.23 2.67 M2.23 99.99 C19.44 77.87, 35.99 56.43, 86.86 2.63 M2.23 99.99 C30.79 64.96, 60.51 30.36, 86.86 2.63 M2.37 112.03 C32.7 75.98, 63.47 39.07, 97.49 2.6 M2.37 112.03 C30.52 79.33, 60.08 45.55, 97.49 2.6 M2.5 124.07 C23.61 96.16, 45.69 70.65, 107.47 3.32 M2.5 124.07 C27.3 94.85, 53.44 63.81, 107.47 3.32 M2.63 136.11 C48.55 83.98, 93.05 35.26, 115.47 6.3 M2.63 136.11 C45.34 86.73, 88.1 36.61, 115.47 6.3 M2.11 148.91 C30.6 117.55, 58.6 83.76, 122.82 10.04 M2.11 148.91 C41.06 103.06, 79.63 59.64, 122.82 10.04 M2.24 160.95 C39.66 115.54, 77.9 76.11, 126.24 18.31 M2.24 160.95 C53.16 103.33, 102.49 46.21, 126.24 18.31 M2.38 172.99 C34.84 137.31, 69.4 98.28, 127.68 28.84 M2.38 172.99 C38.15 130.62, 74.75 88.44, 127.68 28.84 M2.51 185.03 C40.34 144.38, 73.81 100.66, 132.41 35.6 M2.51 185.03 C38.58 141.82, 74.92 100.37, 132.41 35.6 M1.99 197.83 C42.02 152.28, 78.24 111.17, 132.54 47.64 M1.99 197.83 C48 143.34, 93.31 91.15, 132.54 47.64 M2.12 209.87 C55.42 150.92, 104.82 87.65, 132.68 59.68 M2.12 209.87 C31.39 176.88, 60.03 143.61, 132.68 59.68 M0.94 223.42 C45.44 170.39, 94.75 116.6, 132.15 72.48 M0.94 223.42 C30.6 190.3, 58.07 158.88, 132.15 72.48 M2.39 233.95 C48.33 185.93, 91.38 136.01, 132.29 84.52 M2.39 233.95 C41.04 188.39, 81.06 142.72, 132.29 84.52 M5.14 242.97 C38.99 203.93, 72.28 166.46, 132.42 96.56 M5.14 242.97 C36.07 209.53, 64.18 175.9, 132.42 96.56 M10.52 248.98 C56.04 193.06, 104.61 140.7, 132.55 108.6 M10.52 248.98 C44.62 207.82, 79.72 166.01, 132.55 108.6 M16.56 254.22 C54.57 211.3, 89.64 169.53, 132.03 121.4 M16.56 254.22 C45.43 219.62, 74.8 186.2, 132.03 121.4 M25.88 255.7 C52.9 224.56, 82.33 190.69, 132.16 133.44 M25.88 255.7 C47.15 228.48, 69.76 203.5, 132.16 133.44 M36.51 255.67 C70.88 215.63, 104.51 179.81, 132.29 145.48 M36.51 255.67 C57.51 232.37, 77.88 208.09, 132.29 145.48 M47.14 255.63 C71.96 223.47, 98.62 193.03, 132.43 157.52 M47.14 255.63 C82.06 217.8, 114.61 178.24, 132.43 157.52 M57.77 255.6 C77.33 231.56, 95.78 210.37, 131.91 170.31 M57.77 255.6 C82.87 226.95, 107.46 196.65, 131.91 170.31 M67.74 256.32 C86.11 236.6, 103.8 215.79, 132.04 182.35 M67.74 256.32 C82.32 238.66, 99.55 221.33, 132.04 182.35 M78.37 256.28 C88.86 244, 100.03 229.44, 132.17 194.4 M78.37 256.28 C95.28 237.57, 112.82 216.85, 132.17 194.4 M89 256.25 C101.8 237.95, 118.49 223.9, 132.3 206.44 M89 256.25 C99.36 243.8, 109.7 232.01, 132.3 206.44 M98.98 256.97 C106.79 248.42, 117.73 235.77, 131.78 219.23 M98.98 256.97 C108.66 245.21, 119.18 234.69, 131.78 219.23 M111.58 254.67 C116.52 248.63, 122.41 240.97, 130.6 232.78 M111.58 254.67 C119.54 247.5, 125.62 238.59, 130.6 232.78" stroke="#a5d8ff" stroke-width="1" fill="none"></path><path d="M32 0 C51.1 0.58, 66.15 1.13, 96.33 0 M32 0 C56.11 0.74, 80.88 1.17, 96.33 0 M96.33 0 C116.98 -0.3, 126.75 9.52, 128.33 32 M96.33 0 C117.8 2.05, 128.67 8.98, 128.33 32 M128.33 32 C129.93 81.43, 131.35 129.81, 128.33 223 M128.33 32 C129.47 91.84, 128.53 151.53, 128.33 223 M128.33 223 C126.92 242.67, 118.74 253.8, 96.33 255 M128.33 223 C128.22 242.89, 117.76 254.98, 96.33 255 M96.33 255 C78.47 255.27, 62.08 254.09, 32 255 M96.33 255 C74.22 254.75, 51.59 254.75, 32 255 M32 255 C9.34 256.02, -1.4 245.37, 0 223 M32 255 C9.15 254.82, -0.26 244.61, 0 223 M0 223 C2.28 168.57, 2.27 117.15, 0 32 M0 223 C0.61 163.22, -0.18 104.68, 0 32 M0 32 C0.31 10.62, 12.11 1.97, 32 0 M0 32 C-1.36 9.99, 10.56 1.53, 32 0" stroke="#1e1e1e" stroke-width="2" fill="none"></path></g><g transform="translate(703.578125125 380.2813166666666) rotate(0 50.576171875 23)"><text x="50.576171875" y="18.400390625" font-family="Helvetica, Segoe UI Emoji" font-size="20px" fill="#1e1e1e" text-anchor="middle" style="white-space: pre;" direction="ltr" dominant-baseline="alphabetic">Repository </text><text x="50.576171875" y="41.400390625" font-family="Helvetica, Segoe UI Emoji" font-size="20px" fill="#1e1e1e" text-anchor="middle" style="white-space: pre;" direction="ltr" dominant-baseline="alphabetic">Interface</text></g><g stroke-linecap="round"><g transform="translate(891.4463637089626 586.7820011967353) rotate(0 68.29276359493196 75.03064638957272)" fill-rule="evenodd"><path d="M2.82 -4.17 C2.82 -4.17, 2.82 -4.17, 2.82 -4.17 M2.82 -4.17 C2.82 -4.17, 2.82 -4.17, 2.82 -4.17 M0.59 4.49 C1.71 0.89, 5.29 -2.31, 10.43 -6.83 M0.59 4.49 C2.92 1.6, 6.73 -2.16, 10.43 -6.83 M0.33 10.89 C4.98 7.01, 9.25 0.34, 17.39 -8.73 M0.33 10.89 C3.5 6.12, 7.15 1.62, 17.39 -8.73 M0.07 17.29 C6.5 10.74, 12.02 3.64, 24.34 -10.64 M0.07 17.29 C6.56 11.36, 10.67 5.26, 24.34 -10.64 M0.46 22.93 C12.3 7.79, 25.27 -5.11, 30.64 -11.79 M0.46 22.93 C11.65 10.04, 23.58 -3.54, 30.64 -11.79 M0.2 29.33 C8.27 18.74, 16.83 7.95, 36.29 -12.18 M0.2 29.33 C8.71 19.62, 15.17 11.77, 36.29 -12.18 M-0.06 35.72 C9.78 23.23, 19.91 12.64, 41.93 -12.58 M-0.06 35.72 C12.34 21.4, 24.32 7.52, 41.93 -12.58 M0.34 41.37 C13.9 27.29, 23.77 12.86, 46.92 -12.22 M0.34 41.37 C14.46 25.48, 28 8.78, 46.92 -12.22 M0.07 47.77 C11.5 32.08, 23.25 19.72, 52.56 -12.61 M0.07 47.77 C13.34 31.66, 27.96 15.78, 52.56 -12.61 M0.47 53.41 C22.44 28.7, 47.96 2.33, 58.2 -13.01 M0.47 53.41 C20 28.59, 41.99 5.29, 58.2 -13.01 M0.21 59.81 C24.17 34.03, 45.49 8.42, 63.85 -13.4 M0.21 59.81 C13.13 42.78, 28.65 27.19, 63.85 -13.4 M-0.05 66.2 C23.26 42.15, 44.65 17.87, 69.49 -13.8 M-0.05 66.2 C19.93 41.43, 42.04 18.09, 69.49 -13.8 M0.34 71.85 C26.53 42.6, 49.24 11.97, 74.48 -13.44 M0.34 71.85 C26.03 41.85, 53.13 12.19, 74.48 -13.44 M0.08 78.24 C21 53.49, 44.91 25.61, 79.46 -13.08 M0.08 78.24 C19.43 56.38, 37.94 35.74, 79.46 -13.08 M-0.18 84.64 C32.88 49.36, 61.57 12.5, 84.45 -12.72 M-0.18 84.64 C17.67 63.13, 35.48 42.63, 84.45 -12.72 M0.21 90.29 C27.13 59.42, 52.25 31.13, 89.44 -12.36 M0.21 90.29 C27.7 58.43, 55.75 25.93, 89.44 -12.36 M-0.05 96.68 C28.61 64.65, 53.84 33.07, 94.42 -12 M-0.05 96.68 C20.43 73.49, 40.46 50.11, 94.42 -12 M0.35 102.33 C18.98 79.87, 38.62 54.63, 99.41 -11.63 M0.35 102.33 C27.56 70.57, 56.11 38.32, 99.41 -11.63 M0.08 108.72 C31.89 75.45, 62.6 37.28, 103.74 -10.52 M0.08 108.72 C37.37 64.48, 77.73 20.15, 103.74 -10.52 M-0.18 115.12 C38.49 67.93, 79.49 23.52, 108.73 -10.16 M-0.18 115.12 C32.87 75.97, 66.78 37.29, 108.73 -10.16 M0.22 120.76 C43.84 70.63, 88.05 19.09, 113.72 -9.8 M0.22 120.76 C35.8 79.75, 72.94 37.09, 113.72 -9.8 M-0.04 127.16 C44.87 74.44, 87.67 21.73, 118.7 -9.44 M-0.04 127.16 C23.81 97.45, 49.44 68.98, 118.7 -9.44 M-0.31 133.56 C34.15 96.05, 68.33 57.84, 123.03 -8.32 M-0.31 133.56 C38.57 88.92, 78.8 44.44, 123.03 -8.32 M0.09 139.2 C45.52 87.59, 90.7 32.96, 127.36 -7.21 M0.09 139.2 C49.26 80.36, 99.53 22.41, 127.36 -7.21 M-0.17 145.6 C50.19 87.81, 98.22 32.32, 131.04 -5.34 M-0.17 145.6 C29.47 112.8, 57.9 80.1, 131.04 -5.34 M0.88 150.49 C43.21 105.9, 83.7 57.1, 134.71 -3.47 M0.88 150.49 C39.08 107.8, 76.62 64.93, 134.71 -3.47 M3.24 153.87 C51.98 100.45, 97.87 48.01, 138.39 -1.6 M3.24 153.87 C49.64 102.04, 94.14 49.86, 138.39 -1.6 M6.92 155.74 C40.76 116.4, 75.34 78.37, 138.13 4.8 M6.92 155.74 C50.77 104.89, 94.94 54.29, 138.13 4.8 M11.25 156.85 C53.39 106.36, 100.01 56.99, 138.52 10.44 M11.25 156.85 C58.91 104.57, 105.09 49.28, 138.52 10.44 M14.92 158.72 C62.47 102.95, 109.52 48.33, 138.26 16.84 M14.92 158.72 C43.06 128.25, 68.04 97.93, 138.26 16.84 M19.25 159.84 C44.3 130.68, 67.95 102.23, 138 23.23 M19.25 159.84 C49.24 124.96, 79.65 90.39, 138 23.23 M23.58 160.95 C56.56 122.58, 92.33 81.16, 138.39 28.88 M23.58 160.95 C47.54 133.55, 71.8 104.87, 138.39 28.88 M27.91 162.07 C55.44 128.23, 88.43 89.73, 138.13 35.28 M27.91 162.07 C64.6 120.55, 101.02 78.34, 138.13 35.28 M32.9 162.43 C67.85 122.99, 102.03 82.55, 138.53 40.92 M32.9 162.43 C59.44 131.83, 84.48 100.6, 138.53 40.92 M38.54 162.03 C69.27 125.34, 103.49 87.17, 138.27 47.32 M38.54 162.03 C75.13 118.48, 112.67 74.85, 138.27 47.32 M43.53 162.39 C66.14 134.54, 88.5 107.29, 138 53.71 M43.53 162.39 C65.05 138.8, 86.04 113.89, 138 53.71 M48.52 162.75 C72.46 136.2, 95.43 111.51, 138.4 59.36 M48.52 162.75 C80.88 125.05, 114.13 88.18, 138.4 59.36 M53.51 163.11 C83.07 131.47, 109.91 100, 138.14 65.76 M53.51 163.11 C80.11 132.6, 106.52 101.9, 138.14 65.76 M58.49 163.47 C75.59 142.16, 92.8 124.64, 138.53 71.4 M58.49 163.47 C83.63 135.49, 107.65 106.32, 138.53 71.4 M64.14 163.08 C87.72 132.06, 114.62 104.29, 138.27 77.8 M64.14 163.08 C83.6 142.55, 101.67 119.85, 138.27 77.8 M69.12 163.44 C85.14 143.98, 101.17 124.96, 138.01 84.19 M69.12 163.44 C84.85 145.31, 100.24 126.32, 138.01 84.19 M74.11 163.8 C92.08 142.7, 110.97 118.43, 138.4 89.84 M74.11 163.8 C89.33 146.47, 105.41 128.51, 138.4 89.84 M79.75 163.4 C97.16 143.41, 111.49 125.31, 138.14 96.23 M79.75 163.4 C100.66 139.26, 122.37 113.78, 138.14 96.23 M85.4 163.01 C105.04 140.66, 122.11 121.39, 138.54 101.88 M85.4 163.01 C98.51 145.99, 114.99 129.24, 138.54 101.88 M91.04 162.61 C106.53 142.9, 123.76 128.02, 138.28 108.28 M91.04 162.61 C108.87 141.03, 127.15 120.12, 138.28 108.28 M96.68 162.22 C105.57 152.32, 115.85 137.31, 138.67 113.92 M96.68 162.22 C113.15 143.45, 127.92 126.42, 138.67 113.92 M102.32 161.83 C114.01 150.85, 123.81 138.05, 138.41 120.32 M102.32 161.83 C115.37 148.3, 126.39 133.53, 138.41 120.32 M107.97 161.43 C118.16 150.18, 124.73 141.7, 138.15 126.71 M107.97 161.43 C118.56 148.06, 129.95 135.45, 138.15 126.71 M113.61 161.04 C119.99 151.96, 128.95 143.08, 138.54 132.36 M113.61 161.04 C123.15 150.62, 131.81 139.75, 138.54 132.36 M120.57 159.13 C124.59 152.27, 128.22 149.34, 138.28 138.76 M120.57 159.13 C125.34 151.52, 131.97 146.56, 138.28 138.76 M126.87 157.98 C131.16 154.59, 130.72 152.53, 138.67 144.4 M126.87 157.98 C131.44 152.92, 135.79 148.54, 138.67 144.4" stroke="#d0bfff" stroke-width="0.5" fill="none"></path><path d="M-0.39 -0.94 C-0.32 21.51, 0.6 109.17, 0.55 134.44 C0.49 159.71, -1.78 147.11, -0.71 150.67 C0.35 154.23, 1.62 153.87, 6.92 155.82 C12.22 157.76, 20.1 161.15, 31.11 162.35 C42.12 163.54, 59.14 163.28, 72.98 162.99 C86.83 162.71, 103.94 162.21, 114.17 160.64 C124.4 159.07, 130.38 155.61, 134.34 153.59 C138.31 151.56, 137.47 151.3, 137.96 148.48 C138.44 145.66, 137.35 159.5, 137.24 136.67 C137.12 113.84, 137.5 34.49, 137.25 11.52 C137 -11.45, 137.26 2.13, 135.74 -1.17 C134.22 -4.47, 132.57 -6.47, 128.14 -8.26 C123.72 -10.06, 119.53 -10.91, 109.17 -11.96 C98.81 -13, 78.92 -14.61, 65.99 -14.55 C53.07 -14.5, 41.82 -13.1, 31.61 -11.62 C21.4 -10.14, 10.04 -7.48, 4.75 -5.66 C-0.53 -3.85, 0.85 -1.47, -0.1 -0.72 C-1.05 0.04, -1 -1.4, -0.95 -1.14 M1.6 1.19 C1.52 23.87, -0.39 111.41, -0.35 136.02 C-0.32 160.63, 0.56 145.41, 1.79 148.86 C3.03 152.3, 1.88 154.33, 7.07 156.68 C12.27 159.04, 21.79 161.56, 32.98 162.99 C44.17 164.43, 61.08 165.92, 74.2 165.29 C87.32 164.66, 101.84 161.26, 111.7 159.2 C121.56 157.14, 129.2 154.96, 133.35 152.94 C137.51 150.91, 135.92 149.8, 136.65 147.05 C137.39 144.3, 137.63 158.84, 137.78 136.44 C137.92 114.03, 137.56 35.69, 137.52 12.63 C137.48 -10.43, 139.03 1.19, 137.54 -1.92 C136.05 -5.03, 133.42 -4.23, 128.58 -6.02 C123.74 -7.81, 118.93 -11.12, 108.49 -12.67 C98.06 -14.22, 78.69 -15.14, 65.96 -15.31 C53.23 -15.48, 42 -15.43, 32.1 -13.69 C22.2 -11.95, 12.14 -7.04, 6.56 -4.87 C0.98 -2.7, -0.45 -1.25, -1.41 -0.68 C-2.36 -0.12, 0.45 -1.51, 0.83 -1.48" stroke="#1e1e1e" stroke-width="1" fill="none"></path></g></g><mask></mask><g stroke-linecap="round" transform="translate(890.5632521912449 571.0918807689062) rotate(0 68.42837490493355 13.839124016720348)"><path d="M0.94 10.09 C0.94 10.09, 0.94 10.09, 0.94 10.09 M0.94 10.09 C0.94 10.09, 0.94 10.09, 0.94 10.09 M1.99 14.98 C3.49 13.27, 5.75 8.89, 8.55 7.43 M1.99 14.98 C3.07 13.51, 5.34 11.13, 8.55 7.43 M3.7 19.11 C9.23 13.08, 13.73 10.07, 16.82 4.02 M3.7 19.11 C6.55 15.91, 10.24 12, 16.82 4.02 M8.03 20.23 C12.25 13.93, 17.95 7.45, 22.46 3.63 M8.03 20.23 C11.12 16.3, 14.99 10.89, 22.46 3.63 M12.36 21.34 C16.95 15.84, 23.21 8.77, 28.76 2.48 M12.36 21.34 C16.35 16.55, 21.64 9.19, 28.76 2.48 M16.03 23.21 C19.34 16.85, 24.32 14.78, 34.4 2.08 M16.03 23.21 C19.98 17.83, 23.45 13.06, 34.4 2.08 M20.37 24.33 C25.09 17.3, 31.31 10.48, 40.05 1.69 M20.37 24.33 C25.82 18.01, 32.27 11.97, 40.05 1.69 M24.7 25.44 C31.57 20.73, 36.86 14.46, 46.35 0.54 M24.7 25.44 C32.8 17.02, 40.73 8.49, 46.35 0.54 M29.68 25.8 C34.4 20.73, 37.6 16.66, 51.99 0.14 M29.68 25.8 C34.43 21.07, 38.95 15.38, 51.99 0.14 M34.67 26.16 C43.96 18.31, 50.6 8.41, 56.98 0.5 M34.67 26.16 C42.55 18.25, 49.37 10.61, 56.98 0.5 M39.66 26.52 C47.15 15.2, 58.06 6.73, 62.62 0.11 M39.66 26.52 C47.37 19.02, 53.55 10.78, 62.62 0.11 M44.64 26.88 C53.33 16.63, 59.43 8.23, 67.61 0.47 M44.64 26.88 C49.35 21.74, 54.55 15.74, 67.61 0.47 M49.63 27.24 C57.58 16.57, 65.19 8.64, 73.25 0.07 M49.63 27.24 C54.67 20.9, 60.43 15.51, 73.25 0.07 M55.27 26.85 C61.53 20.7, 67.6 13.38, 78.24 0.43 M55.27 26.85 C63.06 17.85, 69.78 11.05, 78.24 0.43 M60.92 26.45 C64.37 21.2, 69.65 15.68, 83.88 0.04 M60.92 26.45 C66.16 20.57, 71 14.49, 83.88 0.04 M65.9 26.81 C70.35 18.91, 77.58 12.05, 88.21 1.15 M65.9 26.81 C75.06 16.74, 82.91 6.72, 88.21 1.15 M70.89 27.17 C78.18 18.2, 85.62 13.21, 93.2 1.51 M70.89 27.17 C76.71 21.74, 81.58 15.85, 93.2 1.51 M76.53 26.78 C85.73 17.29, 93.22 9.28, 98.18 1.87 M76.53 26.78 C83.37 19.3, 91.77 9.46, 98.18 1.87 M81.52 27.14 C89.69 17.04, 98.44 9.73, 102.52 2.99 M81.52 27.14 C87.85 20.5, 93.61 14.94, 102.52 2.99 M87.16 26.75 C91.8 18.26, 97.42 14.71, 107.5 3.35 M87.16 26.75 C94.06 19.5, 100.62 12.05, 107.5 3.35 M92.81 26.35 C98.14 23.57, 100.63 15.71, 111.83 4.46 M92.81 26.35 C99.77 19.2, 105.25 13.94, 111.83 4.46 M98.45 25.96 C100.91 21.47, 108.04 18.81, 116.16 5.58 M98.45 25.96 C105.76 17.54, 112.12 10.3, 116.16 5.58 M104.75 24.81 C109.78 17.98, 113.07 12.04, 120.5 6.69 M104.75 24.81 C108.57 20.26, 113.25 14.29, 120.5 6.69 M110.39 24.41 C113.3 20.35, 116.04 17.13, 124.83 7.81 M110.39 24.41 C113.8 21.09, 117.42 15.98, 124.83 7.81 M116.69 23.26 C123.18 18.69, 126.98 10.64, 129.16 8.92 M116.69 23.26 C119.94 19.03, 124.17 13.56, 129.16 8.92 M122.99 22.11 C124.13 20.43, 128.24 16.54, 133.49 10.04 M122.99 22.11 C126.91 17.63, 130.45 13.88, 133.49 10.04 M130.6 19.46 C132.59 18.08, 133.94 16.17, 134.54 14.93 M130.6 19.46 C131.39 18.34, 132.58 17.15, 134.54 14.93" stroke="#d0bfff" stroke-width="0.5" fill="none"></path><path d="M47.42 0.13 C57.37 -0.75, 72.47 -0.71, 83.58 0.01 C94.7 0.74, 105.78 2.87, 114.1 4.49 C122.42 6.11, 130.08 7.57, 133.52 9.73 C136.96 11.88, 137.21 15.23, 134.76 17.41 C132.31 19.59, 126.41 21.23, 118.85 22.82 C111.29 24.41, 100.24 26.32, 89.41 26.96 C78.59 27.6, 65.17 27.07, 53.88 26.64 C42.6 26.21, 30.32 25.81, 21.72 24.38 C13.11 22.95, 5.74 20.4, 2.25 18.05 C-1.25 15.7, -1.79 12.68, 0.78 10.28 C3.34 7.88, 8.44 5.46, 17.62 3.63 C26.79 1.8, 48.23 -0.14, 55.82 -0.69 C63.41 -1.25, 63.09 0.04, 63.14 0.3 M37.42 1.89 C46.45 0.48, 59.83 -0.39, 71.22 -0.31 C82.62 -0.23, 96.09 1.3, 105.79 2.36 C115.5 3.43, 124.32 4.09, 129.44 6.08 C134.57 8.07, 137.18 11.86, 136.56 14.31 C135.93 16.77, 131.86 18.92, 125.71 20.78 C119.57 22.65, 109.95 24.5, 99.67 25.53 C89.39 26.55, 75.51 26.91, 64.02 26.94 C52.53 26.97, 40.39 26.95, 30.74 25.69 C21.08 24.44, 11.27 21.69, 6.11 19.41 C0.95 17.14, -0.94 14.44, -0.21 12.06 C0.53 9.67, 4.32 7.01, 10.52 5.12 C16.72 3.22, 32.4 0.99, 37 0.68 C41.61 0.37, 37.79 2.9, 38.16 3.24" stroke="#1e1e1e" stroke-width="1" fill="none"></path></g><g transform="translate(915.333333333333 648.9166666666666) rotate(0 43.916015625 11.5)"><text x="0" y="18.400390625" font-family="Helvetica, Segoe UI Emoji" font-size="20px" fill="#1e1e1e" text-anchor="start" style="white-space: pre;" direction="ltr" dominant-baseline="alphabetic">DataBase</text></g><g stroke-linecap="round"><g transform="translate(125.1216413333336 317.48364521120516) rotate(0 73.54033723301244 29.28235978130465)"><path d="M0.94 0.33 C25.35 10.03, 122.8 48.24, 147.1 57.99 M-0.02 -0.54 C24.24 9.3, 122.19 48.98, 146.56 59.1" stroke="#1e1e1e" stroke-width="2" fill="none"></path></g><g transform="translate(125.1216413333336 317.48364521120516) rotate(0 73.54033723301244 29.28235978130465)"><path d="M1.96 0.18 L15.74 0.43 L10.51 11.57 L2.8 0.65" stroke="none" stroke-width="0" fill="#1e1e1e" fill-rule="evenodd"></path><path d="M0.94 0.33 C6.66 0.87, 10.52 0.1, 15.92 -0.58 M0.94 0.33 C5.61 -0.7, 9.76 0.43, 15.92 -0.58 M15.92 -0.58 C14.56 3.52, 12.47 7.87, 11.27 11.21 M15.92 -0.58 C13.91 3.13, 13.18 7.52, 11.27 11.21 M11.27 11.21 C9.09 8.72, 5.46 5.12, 0.94 0.33 M11.27 11.21 C9.04 8.76, 6.15 6.58, 0.94 0.33 M0.94 0.33 C0.94 0.33, 0.94 0.33, 0.94 0.33 M0.94 0.33 C0.94 0.33, 0.94 0.33, 0.94 0.33" stroke="#1e1e1e" stroke-width="2" fill="none"></path></g><g transform="translate(125.1216413333336 317.48364521120516) rotate(0 73.54033723301244 29.28235978130465)"><path d="M147.58 58.95 L131.41 60.83 L135.63 48.44 L148.42 59.41" stroke="none" stroke-width="0" fill="#1e1e1e" fill-rule="evenodd"></path><path d="M146.56 59.1 C141.68 60.45, 134.94 60.26, 131.58 59.82 M146.56 59.1 C142.15 58.64, 137.22 60.27, 131.58 59.82 M131.58 59.82 C133.84 54.57, 135.47 49.66, 136.38 48.08 M131.58 59.82 C132.95 55.6, 135.36 52.15, 136.38 48.08 M136.38 48.08 C140.73 52.66, 143.74 56.14, 146.56 59.1 M136.38 48.08 C139.01 50.89, 140.98 53.9, 146.56 59.1 M146.56 59.1 C146.56 59.1, 146.56 59.1, 146.56 59.1 M146.56 59.1 C146.56 59.1, 146.56 59.1, 146.56 59.1" stroke="#1e1e1e" stroke-width="2" fill="none"></path></g></g><mask></mask><g stroke-linecap="round"><g transform="translate(403.89899066666675 401.5995748742671) rotate(0 30.954126578846143 0.5352651518421965)"><path d="M0.1 -0.65 C10.31 -0.47, 50.65 -0.17, 60.92 -0.07 M-1.3 1.63 C9.32 2.01, 52.84 1.04, 63.21 0.9" stroke="#1e1e1e" stroke-width="2" fill="none"></path></g><g transform="translate(403.89899066666675 401.5995748742671) rotate(0 30.954126578846143 0.5352651518421965)"><path d="M-1.41 -1.29 L14.37 -6.44 L15.3 7.39 L-0.07 -2.14" stroke="none" stroke-width="0" fill="#1e1e1e" fill-rule="evenodd"></path><path d="M0.1 -0.65 C3.05 -3.33, 6.2 -4.02, 13.76 -6.85 M0.1 -0.65 C3.26 -1.26, 6.35 -3.4, 13.76 -6.85 M13.76 -6.85 C14.58 -3.41, 13.48 2.4, 13.63 5.82 M13.76 -6.85 C13.2 -3.24, 13.45 -0.71, 13.63 5.82 M13.63 5.82 C10.89 3.99, 6.48 1.27, 0.1 -0.65 M13.63 5.82 C9.46 3.97, 6.69 2.73, 0.1 -0.65 M0.1 -0.65 C0.1 -0.65, 0.1 -0.65, 0.1 -0.65 M0.1 -0.65 C0.1 -0.65, 0.1 -0.65, 0.1 -0.65" stroke="#1e1e1e" stroke-width="2" fill="none"></path></g><g transform="translate(403.89899066666675 401.5995748742671) rotate(0 30.954126578846143 0.5352651518421965)"><path d="M61.7 0.25 L50.35 7.89 L51.17 -3.63 L63.05 -0.59" stroke="none" stroke-width="0" fill="#1e1e1e" fill-rule="evenodd"></path><path d="M63.21 0.9 C58.69 1.7, 54.48 4.48, 49.73 7.48 M63.21 0.9 C60.57 2.83, 57.9 3.41, 49.73 7.48 M49.73 7.48 C50.45 1.53, 49.32 -2.05, 49.51 -5.2 M49.73 7.48 C49.33 4.63, 49.55 0.7, 49.51 -5.2 M49.51 -5.2 C54.01 -3.97, 56.75 -3.39, 63.21 0.9 M49.51 -5.2 C52.96 -3.7, 57.94 -1.37, 63.21 0.9 M63.21 0.9 C63.21 0.9, 63.21 0.9, 63.21 0.9 M63.21 0.9 C63.21 0.9, 63.21 0.9, 63.21 0.9" stroke="#1e1e1e" stroke-width="2" fill="none"></path></g></g><mask></mask><g stroke-linecap="round"><g transform="translate(607.9741980000001 397.48242486064055) rotate(0 34.28501397439163 0.6375098327634419)"><path d="M0.41 0.57 C11.96 0.42, 57.98 0.24, 69.41 0.17 M-0.84 -0.17 C10.56 0.35, 57.06 1.23, 68.55 1.45" stroke="#1e1e1e" stroke-width="2" fill="none"></path></g><g transform="translate(607.9741980000001 397.48242486064055) rotate(0 34.28501397439163 0.6375098327634419)"><path d="M0.12 -0.74 L15.2 -6.31 L13.11 6.07 L1.54 -0.89" stroke="none" stroke-width="0" fill="#1e1e1e" fill-rule="evenodd"></path><path d="M0.41 0.57 C5.24 -1.23, 8.08 -3.74, 13.96 -5.85 M0.41 0.57 C4.41 -0.52, 7.89 -1.97, 13.96 -5.85 M13.96 -5.85 C13.04 -0.21, 15.08 4.36, 14.04 6.83 M13.96 -5.85 C14.61 -1.21, 14.24 2.2, 14.04 6.83 M14.04 6.83 C8.5 5.02, 5.15 1.44, 0.41 0.57 M14.04 6.83 C9.98 4.54, 6.65 3.98, 0.41 0.57 M0.41 0.57 C0.41 0.57, 0.41 0.57, 0.41 0.57 M0.41 0.57 C0.41 0.57, 0.41 0.57, 0.41 0.57" stroke="#1e1e1e" stroke-width="2" fill="none"></path></g><g transform="translate(607.9741980000001 397.48242486064055) rotate(0 34.28501397439163 0.6375098327634419)"><path d="M68.26 0.13 L56.07 7.05 L54.15 -5.92 L69.69 -0.02" stroke="none" stroke-width="0" fill="#1e1e1e" fill-rule="evenodd"></path><path d="M68.55 1.45 C65.1 3.58, 59.53 4.93, 54.84 7.52 M68.55 1.45 C65.68 3.53, 62.24 5.25, 54.84 7.52 M54.84 7.52 C54.15 3.28, 56.25 -2.03, 55.08 -5.16 M54.84 7.52 C55.3 4.04, 54.98 -0.68, 55.08 -5.16 M55.08 -5.16 C58.32 -2.6, 63.62 -2.06, 68.55 1.45 M55.08 -5.16 C57.72 -4.16, 61.16 -1.51, 68.55 1.45 M68.55 1.45 C68.55 1.45, 68.55 1.45, 68.55 1.45 M68.55 1.45 C68.55 1.45, 68.55 1.45, 68.55 1.45" stroke="#1e1e1e" stroke-width="2" fill="none"></path></g></g><mask></mask><g stroke-linecap="round"><g transform="translate(832.9578703333335 366.68338332747567) rotate(0 39.95261141995093 -21.836837530426436)"><path d="M0.97 -0.42 C14.15 -7.71, 66.55 -36.05, 79.89 -43.25 M0.02 -1.69 C12.93 -8.88, 65.22 -35.23, 78.64 -42.1" stroke="#1e1e1e" stroke-width="2" fill="none"></path></g><g transform="translate(832.9578703333335 366.68338332747567) rotate(0 39.95261141995093 -21.836837530426436)"><path d="M1.53 -0.61 L8.79 -14.06 L14.77 -2.85 L-0.06 0.67" stroke="none" stroke-width="0" fill="#1e1e1e" fill-rule="evenodd"></path><path d="M0.97 -0.42 C3.66 -5.61, 6.54 -8.64, 9.89 -12.48 M0.97 -0.42 C2.52 -2.44, 4.72 -4.81, 9.89 -12.48 M9.89 -12.48 C10.98 -9.19, 14.32 -4.18, 15.94 -1.34 M9.89 -12.48 C11.41 -9.97, 13 -7.16, 15.94 -1.34 M15.94 -1.34 C11.51 -1.08, 6.29 -0.15, 0.97 -0.42 M15.94 -1.34 C13.09 -1.31, 10.21 -0.76, 0.97 -0.42 M0.97 -0.42 C0.97 -0.42, 0.97 -0.42, 0.97 -0.42 M0.97 -0.42 C0.97 -0.42, 0.97 -0.42, 0.97 -0.42" stroke="#1e1e1e" stroke-width="2" fill="none"></path></g><g transform="translate(832.9578703333335 366.68338332747567) rotate(0 39.95261141995093 -21.836837530426436)"><path d="M79.2 -42.29 L68.29 -31.87 L62.48 -43.1 L77.61 -41.01" stroke="none" stroke-width="0" fill="#1e1e1e" fill-rule="evenodd"></path><path d="M78.64 -42.1 C74.78 -38.41, 71.01 -32.7, 69.39 -30.29 M78.64 -42.1 C76.22 -39.25, 74.66 -36.68, 69.39 -30.29 M69.39 -30.29 C66.56 -34.22, 66.15 -36.35, 63.65 -41.59 M69.39 -30.29 C68.01 -33.16, 66.75 -35.79, 63.65 -41.59 M63.65 -41.59 C68.94 -41.65, 73.45 -41.19, 78.64 -42.1 M63.65 -41.59 C66.81 -41.85, 69.94 -41.6, 78.64 -42.1 M78.64 -42.1 C78.64 -42.1, 78.64 -42.1, 78.64 -42.1 M78.64 -42.1 C78.64 -42.1, 78.64 -42.1, 78.64 -42.1" stroke="#1e1e1e" stroke-width="2" fill="none"></path></g></g><mask></mask><g stroke-linecap="round"><g transform="translate(935.7062088324867 562.0739632075281) rotate(0 -51.435025471435495 -48.43423999560028)"><path d="M0.82 0.65 C-16.53 -15.75, -85.69 -81.2, -103.19 -97.52 M-0.21 -0.05 C-17.72 -16.37, -86.22 -80.19, -103.69 -96.18" stroke="#1e1e1e" stroke-width="2" fill="none"></path></g><g transform="translate(935.7062088324867 562.0739632075281) rotate(0 -51.435025471435495 -48.43423999560028)"><path d="M1.22 0.04 L-14.42 -3.82 L-6.32 -11.78 L-0.32 -0.44" stroke="none" stroke-width="0" fill="#1e1e1e" fill-rule="evenodd"></path><path d="M0.82 0.65 C-3.73 0.05, -10.36 -2.95, -13.41 -4.08 M0.82 0.65 C-3.98 -0.9, -6.6 -2.66, -13.41 -4.08 M-13.41 -4.08 C-12.14 -5.15, -8.26 -7.28, -4.71 -13.29 M-13.41 -4.08 C-10.42 -6.95, -7.18 -10.05, -4.71 -13.29 M-4.71 -13.29 C-2.97 -11.16, -1.64 -7.22, 0.82 0.65 M-4.71 -13.29 C-3.18 -8.01, 0.04 -1.77, 0.82 0.65 M0.82 0.65 C0.82 0.65, 0.82 0.65, 0.82 0.65 M0.82 0.65 C0.82 0.65, 0.82 0.65, 0.82 0.65" stroke="#1e1e1e" stroke-width="2" fill="none"></path></g><g transform="translate(935.7062088324867 562.0739632075281) rotate(0 -51.435025471435495 -48.43423999560028)"><path d="M-103.29 -96.8 L-90.42 -91.35 L-99.63 -80.79 L-104.83 -97.27" stroke="none" stroke-width="0" fill="#1e1e1e" fill-rule="evenodd"></path><path d="M-103.69 -96.18 C-97.49 -93.5, -93.43 -93.01, -89.41 -91.61 M-103.69 -96.18 C-100.37 -95.24, -94.78 -94.33, -89.41 -91.61 M-89.41 -91.61 C-92.34 -88.28, -92.72 -85.87, -98.02 -82.3 M-89.41 -91.61 C-92.58 -88.19, -95.35 -84.87, -98.02 -82.3 M-98.02 -82.3 C-98.84 -86.62, -100.13 -89.16, -103.69 -96.18 M-98.02 -82.3 C-100.81 -87.99, -102.02 -92.74, -103.69 -96.18 M-103.69 -96.18 C-103.69 -96.18, -103.69 -96.18, -103.69 -96.18 M-103.69 -96.18 C-103.69 -96.18, -103.69 -96.18, -103.69 -96.18" stroke="#1e1e1e" stroke-width="2" fill="none"></path></g></g><mask></mask><g stroke-linecap="round"><g transform="translate(263.40728833333316 310.7070275383704) rotate(0 -32.72953517194382 -39.787713444306576)"><path d="M0.52 -0.61 C-10.3 -14, -54.33 -67.72, -65.51 -81.25 M-0.67 1.68 C-11.51 -11.47, -54.85 -66.22, -65.98 -80" stroke="#1e1e1e" stroke-width="2" fill="none"></path></g><g transform="translate(263.40728833333316 310.7070275383704) rotate(0 -32.72953517194382 -39.787713444306576)"><path d="M1.82 -2.45 L-14.82 -6.28 L-2.89 -13.54 L2.27 1.38" stroke="none" stroke-width="0" fill="#1e1e1e" fill-rule="evenodd"></path><path d="M0.52 -0.61 C-3.55 -1.01, -6.81 -3.95, -13 -7.13 M0.52 -0.61 C-2.25 -2.08, -4.41 -3.29, -13 -7.13 M-13 -7.13 C-10.13 -8.31, -8.63 -9.56, -3.18 -15.15 M-13 -7.13 C-11.21 -8.83, -9 -10.88, -3.18 -15.15 M-3.18 -15.15 C-0.72 -10.71, -1.74 -5.9, 0.52 -0.61 M-3.18 -15.15 C-1.79 -10.93, -0.68 -5.25, 0.52 -0.61 M0.52 -0.61 C0.52 -0.61, 0.52 -0.61, 0.52 -0.61 M0.52 -0.61 C0.52 -0.61, 0.52 -0.61, 0.52 -0.61" stroke="#1e1e1e" stroke-width="2" fill="none"></path></g><g transform="translate(263.40728833333316 310.7070275383704) rotate(0 -32.72953517194382 -39.787713444306576)"><path d="M-64.68 -81.84 L-54.36 -72.49 L-62.15 -63.82 L-64.22 -78.01" stroke="none" stroke-width="0" fill="#1e1e1e" fill-rule="evenodd"></path><path d="M-65.98 -80 C-63.46 -77.25, -60.05 -76.92, -52.54 -73.34 M-65.98 -80 C-63.23 -78.51, -59.76 -76.96, -52.54 -73.34 M-52.54 -73.34 C-53.68 -71.31, -56.3 -69.22, -62.45 -65.43 M-52.54 -73.34 C-54.8 -71.95, -56.59 -70.77, -62.45 -65.43 M-62.45 -65.43 C-62.01 -69.52, -65.16 -73.31, -65.98 -80 M-62.45 -65.43 C-63.34 -71.02, -64.68 -75.18, -65.98 -80 M-65.98 -80 C-65.98 -80, -65.98 -80, -65.98 -80 M-65.98 -80 C-65.98 -80, -65.98 -80, -65.98 -80" stroke="#1e1e1e" stroke-width="2" fill="none"></path></g></g><mask></mask><g stroke-linecap="round" transform="translate(654.9999999999998 193) rotate(0 101.5 16.5)"><path d="M8.25 0 C72.42 -1.3, 138.49 2.1, 194.75 0 C201.94 -1.6, 205.14 1.28, 203 8.25 C205.56 9.21, 205.96 13.09, 203 24.75 C205.41 30.59, 202.74 33.41, 194.75 33 C136.93 34.26, 75.68 30.54, 8.25 33 C4.74 29.9, -2.63 31.51, 0 24.75 C-0.25 22.97, 0.87 16.52, 0 8.25 C-1.87 2.42, 4.78 0.72, 8.25 0" stroke="none" stroke-width="0" fill="#e9ecef"></path><path d="M8.25 0 C75.52 -1.78, 143.42 -1.88, 194.75 0 M8.25 0 C69.7 0.01, 131.04 -0.85, 194.75 0 M194.75 0 C199.37 -0.71, 203.93 2.11, 203 8.25 M194.75 0 C199.03 -1.3, 204.39 2.06, 203 8.25 M203 8.25 C202.94 14.78, 202.42 20.14, 203 24.75 M203 8.25 C203.48 13.43, 203.2 17.58, 203 24.75 M203 24.75 C203.53 30.28, 200.07 31.02, 194.75 33 M203 24.75 C203.04 28.47, 201.1 33.6, 194.75 33 M194.75 33 C151.89 32.62, 106.35 33.19, 8.25 33 M194.75 33 C153.48 34.43, 111.95 33.51, 8.25 33 M8.25 33 C0.81 33.07, -1.58 29.39, 0 24.75 M8.25 33 C4.19 32.06, -1.28 29.99, 0 24.75 M0 24.75 C1.21 18.19, 0.28 13.79, 0 8.25 M0 24.75 C0.28 19.54, -0.59 13.94, 0 8.25 M0 8.25 C-0.64 1.26, 1.06 0, 8.25 0 M0 8.25 C-0.14 1.35, 0.91 1.78, 8.25 0" stroke="#1e1e1e" stroke-width="2" fill="none"></path></g><g transform="translate(660.3232421874998 198) rotate(0 96.1767578125 11.5)"><text x="96.1767578125" y="18.400390625" font-family="Helvetica, Segoe UI Emoji" font-size="20px" fill="#1e1e1e" text-anchor="middle" style="white-space: pre;" direction="ltr" dominant-baseline="alphabetic">Dependency Injection</text></g><g stroke-linecap="round" transform="translate(695.9999999999998 10) rotate(0 61 62)"><path d="M7.46 7.81 C7.46 7.81, 7.46 7.81, 7.46 7.81 M7.46 7.81 C7.46 7.81, 7.46 7.81, 7.46 7.81 M0.38 28.15 C11.89 16.82, 17.39 7.92, 24 0.99 M0.38 28.15 C7.75 21.25, 13.17 13.7, 24 0.99 M0.51 40.2 C13.55 27, 24.74 13.65, 35.28 0.2 M0.51 40.2 C12.58 25.2, 26.12 10.85, 35.28 0.2 M0.65 52.24 C12.85 39.89, 26.49 24.03, 45.26 0.92 M0.65 52.24 C12.16 38.6, 21.51 26.35, 45.26 0.92 M0.78 64.28 C20.71 41.57, 39.3 18.49, 55.89 0.88 M0.78 64.28 C12.22 50.68, 23.01 36.79, 55.89 0.88 M0.26 77.07 C22.99 50.1, 48.07 22.08, 66.52 0.85 M0.26 77.07 C13.16 61.91, 27.39 45.18, 66.52 0.85 M0.39 89.11 C29.34 52.06, 59.45 19.85, 77.15 0.81 M0.39 89.11 C24.16 63.18, 46.53 35.68, 77.15 0.81 M1.18 100.4 C25.14 72.35, 48.37 45.63, 87.78 0.78 M1.18 100.4 C31.68 66.53, 60.97 32.65, 87.78 0.78 M3.28 110.18 C29.63 77.55, 59.73 45.52, 98.41 0.74 M3.28 110.18 C22.5 87.34, 41.07 64.55, 98.41 0.74 M8.66 116.18 C34.77 87.65, 60.26 55.25, 106.41 3.73 M8.66 116.18 C38.31 83.53, 67.42 49.95, 106.41 3.73 M15.35 120.67 C54.45 79.96, 89.94 35.97, 113.76 7.47 M15.35 120.67 C51.84 78.27, 89.2 35.54, 113.76 7.47 M23.36 123.66 C42.57 102.55, 62.31 82.33, 118.49 14.22 M23.36 123.66 C45.9 99.09, 68.99 73.07, 118.49 14.22 M33.99 123.62 C63.69 88.7, 94.08 51.34, 121.25 23.25 M33.99 123.62 C65 88.99, 96.1 52.61, 121.25 23.25 M44.62 123.59 C73.55 94.25, 100.66 62.16, 122.69 33.78 M44.62 123.59 C73.87 89.73, 103.91 55.16, 122.69 33.78 M55.25 123.55 C79.84 94.8, 107.14 66.93, 122.17 46.57 M55.25 123.55 C79.2 96.13, 103.26 67.25, 122.17 46.57 M65.88 123.52 C79.54 109.29, 91.98 93.27, 122.3 58.61 M65.88 123.52 C79.83 108.58, 91.26 92, 122.3 58.61 M75.85 124.24 C87.22 114.63, 96.7 100.42, 122.43 70.66 M75.85 124.24 C89.22 108.03, 102.58 93.55, 122.43 70.66 M86.48 124.21 C97.67 109.49, 110.38 97.89, 121.91 83.45 M86.48 124.21 C100.05 107.68, 112.58 92.73, 121.91 83.45 M97.77 123.42 C104.05 115.22, 108.16 111.46, 122.05 95.49 M97.77 123.42 C104.72 115.86, 112.43 107.09, 122.05 95.49" stroke="#a5d8ff" stroke-width="1" fill="none"></path><path d="M30.5 0 C47.81 1.14, 62.61 -0.89, 91.5 0 M30.5 0 C52.44 -0.3, 74.2 0.62, 91.5 0 M91.5 0 C113.72 -0.24, 123.73 11.73, 122 30.5 M91.5 0 C113.08 2.13, 120.35 10.08, 122 30.5 M122 30.5 C123.6 52.95, 121.72 74.11, 122 93.5 M122 30.5 C121.36 49.02, 122.39 66.17, 122 93.5 M122 93.5 C123.3 112.73, 113.65 124.58, 91.5 124 M122 93.5 C124.13 111.77, 113.16 122.66, 91.5 124 M91.5 124 C71.66 125.7, 53.55 122.8, 30.5 124 M91.5 124 C76 124.69, 59.75 123.88, 30.5 124 M30.5 124 C9.78 122.6, -0.36 115.49, 0 93.5 M30.5 124 C11.58 125.97, -0.01 112.49, 0 93.5 M0 93.5 C0.91 74.11, -0.51 53.83, 0 30.5 M0 93.5 C0.9 70.61, 0.03 48.16, 0 30.5 M0 30.5 C1.84 8.99, 12.03 0.96, 30.5 0 M0 30.5 C2.07 8.41, 10.02 1.93, 30.5 0" stroke="#1e1e1e" stroke-width="2" fill="none"></path></g><g transform="translate(718.6552734374998 49) rotate(0 38.3447265625 23)"><text x="38.3447265625" y="18.400390625" font-family="Helvetica, Segoe UI Emoji" font-size="20px" fill="#1e1e1e" text-anchor="middle" style="white-space: pre;" direction="ltr" dominant-baseline="alphabetic">CRUD </text><text x="38.3447265625" y="41.400390625" font-family="Helvetica, Segoe UI Emoji" font-size="20px" fill="#1e1e1e" text-anchor="middle" style="white-space: pre;" direction="ltr" dominant-baseline="alphabetic">Services</text></g><g stroke-linecap="round" transform="translate(156.50000000000023 311.91666666666686) rotate(0 42.5 28)"><path d="M14 0 C38.44 -0.53, 56.38 1.52, 71 0 C77.48 -2.08, 86.99 1.57, 85 14 C84.47 21.51, 84.8 30.19, 85 42 C85.99 52.62, 78.47 55.67, 71 56 C48.41 59.88, 28.48 54.51, 14 56 C7.84 54.52, 2.25 49.44, 0 42 C-2.68 32.32, 2.98 22.08, 0 14 C2.82 2, 7.78 -0.35, 14 0" stroke="none" stroke-width="0" fill="#e9ecef"></path><path d="M14 0 C34.95 1.28, 54.99 0.2, 71 0 M14 0 C28.65 0.23, 44.61 0.28, 71 0 M71 0 C80.95 -1.38, 85.53 4.69, 85 14 M71 0 C80.13 -2.28, 85.04 2.88, 85 14 M85 14 C86.6 22.94, 86.7 32.94, 85 42 M85 14 C84.92 23.49, 85.63 33.34, 85 42 M85 42 C86.63 51.34, 78.4 56.07, 71 56 M85 42 C83.19 50.34, 81.78 55.06, 71 56 M71 56 C55.88 56.43, 44.48 54.92, 14 56 M71 56 C52.36 55.4, 35.7 56.87, 14 56 M14 56 C2.88 57.49, -0.64 49.85, 0 42 M14 56 C2.72 56, -0.14 49.93, 0 42 M0 42 C1.37 34.59, -0.69 27.8, 0 14 M0 42 C-0.44 34.03, -0.41 24.08, 0 14 M0 14 C0.2 5.91, 6.37 -1.8, 14 0 M0 14 C2.27 2.78, 6.2 0.22, 14 0" stroke="#1e1e1e" stroke-width="2" fill="none"></path></g><g transform="translate(161.75390625000023 316.91666666666686) rotate(0 37.24609375 23)"><text x="37.24609375" y="18.400390625" font-family="Helvetica, Segoe UI Emoji" font-size="20px" fill="#1e1e1e" text-anchor="middle" style="white-space: pre;" direction="ltr" dominant-baseline="alphabetic">HTTPS</text><text x="37.24609375" y="41.400390625" font-family="Helvetica, Segoe UI Emoji" font-size="20px" fill="#1e1e1e" text-anchor="middle" style="white-space: pre;" direction="ltr" dominant-baseline="alphabetic">Request</text></g><g transform="translate(27.999999999999886 38) rotate(0 82.03125 16.799999999999997)"><text x="0" y="27.0375" font-family="Cascadia, Segoe UI Emoji" font-size="28px" fill="#f08c00" text-anchor="start" style="white-space: pre;" direction="ltr" dominant-baseline="alphabetic">{endpoint}</text></g><g stroke-linecap="round" transform="translate(27.999999999999943 100) rotate(0 79.00000000000001 45)"><path d="M22.5 0 C59.77 0.43, 95.5 -1.63, 135.5 0 M22.5 0 C50.9 -1.01, 77.83 -0.3, 135.5 0 M135.5 0 C150.88 -0.6, 157.55 9.13, 158 22.5 M135.5 0 C149.98 -0.88, 158.44 6.91, 158 22.5 M158 22.5 C157.52 38.63, 159.79 55.75, 158 67.5 M158 22.5 C158.63 33.24, 158.92 41.87, 158 67.5 M158 67.5 C157.99 82.36, 149.97 88.24, 135.5 90 M158 67.5 C160.21 80.71, 150.76 89.72, 135.5 90 M135.5 90 C106.38 91.53, 77.59 90.51, 22.5 90 M135.5 90 C108.46 91.51, 81.11 91.1, 22.5 90 M22.5 90 C6.06 89.64, -1.11 82.82, 0 67.5 M22.5 90 C7.06 89.57, 1.45 80.3, 0 67.5 M0 67.5 C-1.26 51.83, -0.67 37.06, 0 22.5 M0 67.5 C-0.48 57.15, 0.21 47.1, 0 22.5 M0 22.5 C0.66 8.74, 9.31 0.84, 22.5 0 M0 22.5 C-1.93 7.43, 8.76 1.8, 22.5 0" stroke="#1e1e1e" stroke-width="2" fill="none"></path></g><g transform="translate(61.43359374999994 133.5) rotate(0 45.56640625 11.5)"><text x="45.56640625" y="18.400390625" font-family="Helvetica, Segoe UI Emoji" font-size="20px" fill="#1e1e1e" text-anchor="middle" style="white-space: pre;" direction="ltr" dominant-baseline="alphabetic">API REST</text></g></svg>