<svg version="1.1" xmlns="http://www.w3.org/2000/svg" viewBox="0 0 754.1666666666667 734.3333333333335" width="754.1666666666667" height="734.3333333333335">
  <!-- svg-source:excalidraw -->
  
  <defs>
    <style class="style-fonts">
      @font-face {
        font-family: "Virgil";
        src: url("https://excalidraw.com/Virgil.woff2");
      }
      @font-face {
        font-family: "Cascadia";
        src: url("https://excalidraw.com/Cascadia.woff2");
      }
      @font-face {
        font-family: "Assistant";
        src: url("https://excalidraw.com/Assistant-Regular.woff2");
      }
    </style>
    
  </defs>
  <rect x="0" y="0" width="754.1666666666667" height="734.3333333333335" fill="#ffffff"></rect><g stroke-linecap="round" transform="translate(10 188.08333333333331) rotate(0 67 67.66666666666669)"><path d="M0 0 L134 0 L134 135.33 L0 135.33" stroke="none" stroke-width="0" fill="#ffec99"></path><path d="M0 0 C36.19 0, 72.38 0, 134 0 M0 0 C33.82 0, 67.64 0, 134 0 M134 0 C134 43.62, 134 87.25, 134 135.33 M134 0 C134 32.27, 134 64.54, 134 135.33 M134 135.33 C102.1 135.33, 70.2 135.33, 0 135.33 M134 135.33 C93.99 135.33, 53.98 135.33, 0 135.33 M0 135.33 C0 92.96, 0 50.58, 0 0 M0 135.33 C0 104.34, 0 73.35, 0 0" stroke="#1e1e1e" stroke-width="2" fill="none"></path></g><g transform="translate(35.984375 243.75) rotate(0 41.015625 12)"><text x="41.015625" y="19.3125" font-family="Cascadia, Segoe UI Emoji" font-size="20px" fill="#1e1e1e" text-anchor="middle" style="white-space: pre;" direction="ltr" dominant-baseline="alphabetic">Cliente</text></g><g stroke-linecap="round" transform="translate(296.6666666666667 173.08333333333343) rotate(0 201.5 91)"><path d="M0 0 L403 0 L403 182 L0 182" stroke="none" stroke-width="0" fill="#a5d8ff"></path><path d="M0 0 C93.52 0, 187.04 0, 403 0 M0 0 C88.36 0, 176.72 0, 403 0 M403 0 C403 43.74, 403 87.49, 403 182 M403 0 C403 40.18, 403 80.36, 403 182 M403 182 C258.88 182, 114.77 182, 0 182 M403 182 C297.87 182, 192.75 182, 0 182 M0 182 C0 115.84, 0 49.68, 0 0 M0 182 C0 119.2, 0 56.41, 0 0" stroke="#1e1e1e" stroke-width="2" fill="none"></path></g><g stroke-linecap="round" transform="translate(344.6666666666667 207.08333333333343) rotate(0 61 17)"><path d="M0 0 C31.79 0, 63.58 0, 122 0 M122 0 C122 8.5, 122 16.99, 122 34 M122 34 C79.07 34, 36.14 34, 0 34 M0 34 C0 26.28, 0 18.56, 0 0" stroke="#1971c2" stroke-width="2.5" fill="none" stroke-dasharray="8 10"></path></g><g transform="translate(382.2291666666667 212.08333333333343) rotate(0 23.4375 12)"><text x="23.4375" y="19.3125" font-family="Cascadia, Segoe UI Emoji" font-size="20px" fill="#1971c2" text-anchor="middle" style="white-space: pre;" direction="ltr" dominant-baseline="alphabetic">view</text></g><g stroke-linecap="round" transform="translate(339.1666666666667 287.0833333333334) rotate(0 76.5 17)"><path d="M0 0 C42.19 0, 84.39 0, 153 0 M153 0 C153 11.1, 153 22.19, 153 34 M153 34 C120.38 34, 87.76 34, 0 34 M0 34 C0 22.49, 0 10.98, 0 0" stroke="#1971c2" stroke-width="2.5" fill="none" stroke-dasharray="8 10"></path></g><g transform="translate(357.0729166666667 292.0833333333334) rotate(0 58.59375 12)"><text x="58.59375" y="19.3125" font-family="Cascadia, Segoe UI Emoji" font-size="20px" fill="#1971c2" text-anchor="middle" style="white-space: pre;" direction="ltr" dominant-baseline="alphabetic">controller</text></g><g stroke-linecap="round" transform="translate(528.1666666666667 241.08333333333343) rotate(0 64 17)"><path d="M0 0 C50.69 0, 101.38 0, 128 0 M128 0 C128 9.28, 128 18.55, 128 34 M128 34 C85.73 34, 43.46 34, 0 34 M0 34 C0 24.88, 0 15.75, 0 0" stroke="#1971c2" stroke-width="2.5" fill="none" stroke-dasharray="8 10"></path></g><g transform="translate(562.8697916666667 246.08333333333343) rotate(0 29.296875 12)"><text x="29.296875" y="19.3125" font-family="Cascadia, Segoe UI Emoji" font-size="20px" fill="#1971c2" text-anchor="middle" style="white-space: pre;" direction="ltr" dominant-baseline="alphabetic">model</text></g><g stroke-linecap="round" transform="translate(326.6666666666667 450.0833333333334) rotate(0 164 23)"><path d="M0 0 L328 0 L328 46 L0 46" stroke="none" stroke-width="0" fill="#b2f2bb"></path><path d="M0 0 C76.15 0, 152.31 0, 328 0 M0 0 C125.63 0, 251.26 0, 328 0 M328 0 C328 10.52, 328 21.04, 328 46 M328 0 C328 14.59, 328 29.17, 328 46 M328 46 C207.99 46, 87.98 46, 0 46 M328 46 C214.97 46, 101.94 46, 0 46 M0 46 C0 29.78, 0 13.55, 0 0 M0 46 C0 32.22, 0 18.43, 0 0" stroke="#1e1e1e" stroke-width="2" fill="none"></path></g><g transform="translate(449.6510416666667 461.0833333333334) rotate(0 41.015625 12)"><text x="41.015625" y="19.3125" font-family="Cascadia, Segoe UI Emoji" font-size="20px" fill="#1e1e1e" text-anchor="middle" style="white-space: pre;" direction="ltr" dominant-baseline="alphabetic">Negocio</text></g><g stroke-linecap="round" transform="translate(328.6666666666667 617.0833333333335) rotate(0 164 23)"><path d="M0 0 L328 0 L328 46 L0 46" stroke="none" stroke-width="0" fill="#b2f2bb"></path><path d="M0 0 C113.93 0, 227.87 0, 328 0 M0 0 C113.74 0, 227.49 0, 328 0 M328 0 C328 16.04, 328 32.07, 328 46 M328 0 C328 17.56, 328 35.12, 328 46 M328 46 C242.01 46, 156.02 46, 0 46 M328 46 C237.17 46, 146.33 46, 0 46 M0 46 C0 33.22, 0 20.43, 0 0 M0 46 C0 28.45, 0 10.9, 0 0" stroke="#1e1e1e" stroke-width="2" fill="none"></path></g><g transform="translate(410.6354166666667 628.0833333333335) rotate(0 82.03125 12)"><text x="82.03125" y="19.3125" font-family="Cascadia, Segoe UI Emoji" font-size="20px" fill="#1e1e1e" text-anchor="middle" style="white-space: pre;" direction="ltr" dominant-baseline="alphabetic">Acceso a datos</text></g><g transform="translate(307.00000000000006 135.7500000000001) rotate(0 64.453125 12)"><text x="0" y="19.3125" font-family="Cascadia, Segoe UI Emoji" font-size="20px" fill="#1e1e1e" text-anchor="start" style="white-space: pre;" direction="ltr" dominant-baseline="alphabetic">@Controller</text></g><g transform="translate(298.00000000000006 414.75000000000017) rotate(0 46.875 12)"><text x="0" y="19.3125" font-family="Cascadia, Segoe UI Emoji" font-size="20px" fill="#1e1e1e" text-anchor="start" style="white-space: pre;" direction="ltr" dominant-baseline="alphabetic">@Service</text></g><g transform="translate(311.3333333333333 575.75) rotate(0 64.453125 12)"><text x="0" y="19.3125" font-family="Cascadia, Segoe UI Emoji" font-size="20px" fill="#1e1e1e" text-anchor="start" style="white-space: pre;" direction="ltr" dominant-baseline="alphabetic">@Repository</text></g><g stroke-linecap="round"><g transform="translate(334.6666666666668 221.2439747218961) rotate(0 -93.33333333333337 5.838573592201669)"><path d="M0 0 C-58.02 3.63, -116.03 7.26, -186.67 11.68" stroke="#1971c2" stroke-width="2.5" fill="none" stroke-dasharray="8 10"></path></g><g transform="translate(334.6666666666668 221.2439747218961) rotate(0 -93.33333333333337 5.838573592201669)"><path d="M-163.75 1.68 C-170.88 4.78, -178 7.89, -186.67 11.68" stroke="#1971c2" stroke-width="2.5" fill="none"></path></g><g transform="translate(334.6666666666668 221.2439747218961) rotate(0 -93.33333333333337 5.838573592201669)"><path d="M-162.69 18.74 C-170.14 16.55, -177.59 14.35, -186.67 11.68" stroke="#1971c2" stroke-width="2.5" fill="none"></path></g></g><mask></mask><g stroke-linecap="round"><g transform="translate(150.99999999999994 289.2630020209055) rotate(0 91.83333333333337 6.041722655246275)"><path d="M0 0 C39.4 2.59, 78.81 5.18, 183.67 12.08" stroke="#1e1e1e" stroke-width="2.5" fill="none" stroke-dasharray="8 10"></path></g><g transform="translate(150.99999999999994 289.2630020209055) rotate(0 91.83333333333337 6.041722655246275)"><path d="M159.66 19.07 C164.81 17.57, 169.96 16.07, 183.67 12.08" stroke="#1e1e1e" stroke-width="2.5" fill="none"></path></g><g transform="translate(150.99999999999994 289.2630020209055) rotate(0 91.83333333333337 6.041722655246275)"><path d="M160.79 2.01 C165.7 4.17, 170.6 6.33, 183.67 12.08" stroke="#1e1e1e" stroke-width="2.5" fill="none"></path></g></g><mask></mask><g stroke-linecap="round"><g transform="translate(503.61398929582896 364.75000000000006) rotate(0 -0.22560744864370008 40)"><path d="M0 0 C-0.17 29.58, -0.33 59.17, -0.45 80" stroke="#1e1e1e" stroke-width="2.5" fill="none" stroke-dasharray="8 10"></path></g><g transform="translate(503.61398929582896 364.75000000000006) rotate(0 -0.22560744864370008 40)"><path d="M-8.87 56.46 C-5.76 65.16, -2.64 73.87, -0.45 80" stroke="#1e1e1e" stroke-width="2.5" fill="none"></path></g><g transform="translate(503.61398929582896 364.75000000000006) rotate(0 -0.22560744864370008 40)"><path d="M8.23 56.56 C5.02 65.23, 1.81 73.89, -0.45 80" stroke="#1e1e1e" stroke-width="2.5" fill="none"></path></g></g><mask></mask><g stroke-linecap="round"><g transform="translate(498.38133370548 507.75000000000006) rotate(0 -0.018584054235645908 51.5)"><path d="M0 0 C-0.01 26.45, -0.02 52.89, -0.04 103" stroke="#1e1e1e" stroke-width="2.5" fill="none" stroke-dasharray="8 10"></path></g><g transform="translate(498.38133370548 507.75000000000006) rotate(0 -0.018584054235645908 51.5)"><path d="M-8.58 79.5 C-6.39 85.54, -4.19 91.57, -0.04 103" stroke="#1e1e1e" stroke-width="2.5" fill="none"></path></g><g transform="translate(498.38133370548 507.75000000000006) rotate(0 -0.018584054235645908 51.5)"><path d="M8.52 79.51 C6.32 85.54, 4.13 91.57, -0.04 103" stroke="#1e1e1e" stroke-width="2.5" fill="none"></path></g></g><mask></mask><g stroke-linecap="round"><g transform="translate(580 611.0833333333335) rotate(0 0 -55)"><path d="M0 0 C0 -27.35, 0 -54.7, 0 -110" stroke="#1971c2" stroke-width="2.5" fill="none" stroke-dasharray="8 10"></path></g><g transform="translate(580 611.0833333333335) rotate(0 0 -55)"><path d="M8.55 -86.51 C6.42 -92.35, 4.3 -98.19, 0 -110" stroke="#1971c2" stroke-width="2.5" fill="none"></path></g><g transform="translate(580 611.0833333333335) rotate(0 0 -55)"><path d="M-8.55 -86.51 C-6.42 -92.35, -4.3 -98.19, 0 -110" stroke="#1971c2" stroke-width="2.5" fill="none"></path></g></g><mask></mask><g stroke-linecap="round"><g transform="translate(577.6666666666667 442.4166666666668) rotate(0 -0.5 -37.5)"><path d="M0 0 C-0.36 -26.68, -0.71 -53.37, -1 -75" stroke="#1971c2" stroke-width="2.5" fill="none" stroke-dasharray="8 10"></path></g><g transform="translate(577.6666666666667 442.4166666666668) rotate(0 -0.5 -37.5)"><path d="M7.86 -51.62 C4.71 -59.94, 1.56 -68.26, -1 -75" stroke="#1971c2" stroke-width="2.5" fill="none"></path></g><g transform="translate(577.6666666666667 442.4166666666668) rotate(0 -0.5 -37.5)"><path d="M-9.24 -51.4 C-6.31 -59.79, -3.38 -68.19, -1 -75" stroke="#1971c2" stroke-width="2.5" fill="none"></path></g></g><mask></mask><g transform="translate(203.50000000000006 10) rotate(0 58.59375 12)"><text x="0" y="19.3125" font-family="Cascadia, Segoe UI Emoji" font-size="20px" fill="#1e1e1e" text-anchor="start" style="white-space: pre;" direction="ltr" dominant-baseline="alphabetic">@Component</text></g><g stroke-linecap="round" transform="translate(237.91666666666669 99.33333333333343) rotate(0 253.125 312.5)"><path d="M0 0 C192.13 0, 384.27 0, 506.25 0 M0 0 C157.86 0, 315.72 0, 506.25 0 M506.25 0 C506.25 197.06, 506.25 394.12, 506.25 625 M506.25 0 C506.25 147.2, 506.25 294.4, 506.25 625 M506.25 625 C352.53 625, 198.81 625, 0 625 M506.25 625 C367.95 625, 229.66 625, 0 625 M0 625 C0 481.21, 0 337.42, 0 0 M0 625 C0 391.48, 0 157.96, 0 0" stroke="#1e1e1e" stroke-width="2" fill="none"></path></g><g stroke-linecap="round"><g transform="translate(264.48652023358085 44.92857142857166) rotate(0 16.506739883209605 49.763424174726744)"><path d="M0 0 C0.52 37.94, 1.04 75.88, 1.35 98.33 M0 0 C0.43 31.14, 0.85 62.28, 1.35 98.33 M1.35 98.33 C11.22 98.71, 21.1 99.08, 33.01 99.53 M1.35 98.33 C10.67 98.68, 20 99.04, 33.01 99.53" stroke="#f08c00" stroke-width="2" fill="none"></path></g><g transform="translate(264.48652023358085 44.92857142857166) rotate(0 16.506739883209605 49.763424174726744)"><path d="M17.93 104.38 C23.75 102.51, 29.57 100.64, 33.01 99.53 M17.93 104.38 C22.71 102.84, 27.48 101.31, 33.01 99.53" stroke="#f08c00" stroke-width="2" fill="none"></path></g><g transform="translate(264.48652023358085 44.92857142857166) rotate(0 16.506739883209605 49.763424174726744)"><path d="M18.34 93.55 C24 95.86, 29.66 98.16, 33.01 99.53 M18.34 93.55 C22.99 95.44, 27.63 97.34, 33.01 99.53" stroke="#f08c00" stroke-width="2" fill="none"></path></g></g><mask></mask><g stroke-linecap="round"><g transform="translate(264.26316236934093 44.928571428571644) rotate(0 12.451752148662877 190)"><path d="M0 0 C0.45 108.15, 0.89 216.29, 1.57 380 M0 0 C0.33 80.41, 0.66 160.83, 1.57 380 M1.57 380 C9.73 379.93, 17.89 379.85, 24.9 379.79 M1.57 380 C9.72 379.93, 17.88 379.85, 24.9 379.79" stroke="#f08c00" stroke-width="2" fill="none"></path></g><g transform="translate(264.26316236934093 44.928571428571644) rotate(0 12.451752148662877 190)"><path d="M13.98 383.88 C17.09 382.71, 20.2 381.55, 24.9 379.79 M13.98 383.88 C16.29 383.01, 18.6 382.15, 24.9 379.79" stroke="#f08c00" stroke-width="2" fill="none"></path></g><g transform="translate(264.26316236934093 44.928571428571644) rotate(0 12.451752148662877 190)"><path d="M13.9 375.9 C17.03 377, 20.16 378.11, 24.9 379.79 M13.9 375.9 C16.23 376.72, 18.56 377.54, 24.9 379.79" stroke="#f08c00" stroke-width="2" fill="none"></path></g></g><mask></mask><g stroke-linecap="round"><g transform="translate(264.2406870611496 46.595238095238244) rotate(0 16.629656469425242 269.9999999999999)"><path d="M0 0 C0.51 171.69, 1.02 343.38, 1.59 538.33 M0 0 C0.35 117.05, 0.69 234.1, 1.59 538.33 M1.59 538.33 C10.21 538.79, 18.82 539.24, 33.26 540 M1.59 538.33 C8.49 538.7, 15.39 539.06, 33.26 540" stroke="#f08c00" stroke-width="2" fill="none"></path></g><g transform="translate(264.2406870611496 46.595238095238244) rotate(0 16.629656469425242 269.9999999999999)"><path d="M18.1 544.63 C22.93 543.15, 27.77 541.68, 33.26 540 M18.1 544.63 C21.39 543.63, 24.69 542.62, 33.26 540" stroke="#f08c00" stroke-width="2" fill="none"></path></g><g transform="translate(264.2406870611496 46.595238095238244) rotate(0 16.629656469425242 269.9999999999999)"><path d="M18.67 533.8 C23.32 535.78, 27.97 537.76, 33.26 540 M18.67 533.8 C21.84 535.15, 25.01 536.5, 33.26 540" stroke="#f08c00" stroke-width="2" fill="none"></path></g></g><mask></mask></svg>