<svg version="1.1" xmlns="http://www.w3.org/2000/svg" viewBox="0 0 932.2819296424897 601.9118716263259" width="932.2819296424897" height="601.9118716263259">
  <!-- svg-source:excalidraw -->
  
  <defs>
    <style class="style-fonts">
      @font-face {
        font-family: "Virgil";
        src: url("https://excalidraw.com/Virgil.woff2");
      }
      @font-face {
        font-family: "Cascadia";
        src: url("https://excalidraw.com/Cascadia.woff2");
      }
      @font-face {
        font-family: "Assistant";
        src: url("https://excalidraw.com/Assistant-Regular.woff2");
      }
    </style>
    
  </defs>
  <rect x="0" y="0" width="932.2819296424897" height="601.9118716263259" fill="#ffffff"></rect><g stroke-linecap="round" transform="translate(180.94214798155394 357.1985596309281) rotate(0 278.5559872549155 117.35665599769891)"><path d="M32 0 C167.43 -1.49, 302.79 -1.6, 525.11 0 M525.11 0 C545.24 -1.75, 558.89 12.07, 557.11 32 M557.11 32 C556.68 95.41, 558.12 155.71, 557.11 202.71 M557.11 202.71 C556.46 225.17, 547.74 235.07, 525.11 234.71 M525.11 234.71 C376.24 232.55, 227.26 232.97, 32 234.71 M32 234.71 C12.2 233.01, 1.11 225.41, 0 202.71 M0 202.71 C-1.47 165.59, -0.13 131.73, 0 32 M0 32 C1.24 12.25, 11.45 0.73, 32 0" stroke="#1e1e1e" stroke-width="2.5" fill="none" stroke-dasharray="8 10"></path></g><g stroke-linecap="round"><g transform="translate(144.53481240285407 120.60299053230298) rotate(0 45.13532211205211 50.14891449204231)"><path d="M0.75 -1.15 C4.33 13.25, 6.24 70.01, 21.33 86.87 C36.43 103.74, 79.78 97.9, 91.32 100.04 M-0.31 0.87 C3.64 15.36, 8.33 71.26, 23.57 87.99 C38.8 104.72, 79.86 99.13, 91.1 101.22" stroke="#1e1e1e" stroke-width="2" fill="none"></path></g><g transform="translate(144.53481240285407 120.60299053230298) rotate(0 45.13532211205211 50.14891449204231)"><path d="M90.97 101.08 L79.04 107.6 L79.41 96.29 L90.74 102.32" stroke="none" stroke-width="0" fill="#1e1e1e" fill-rule="evenodd"></path><path d="M91.1 101.22 C85.66 101.88, 82.05 106.02, 77.28 107.05 M91.1 101.22 C86.72 103.37, 83.77 103.95, 77.28 107.05 M77.28 107.05 C76.4 101.92, 78.24 98.05, 77.75 94.38 M77.28 107.05 C77.18 102.17, 77.31 97.54, 77.75 94.38 M77.75 94.38 C82.48 98.11, 88.98 98.52, 91.1 101.22 M77.75 94.38 C81.91 96.47, 87.96 99.03, 91.1 101.22 M91.1 101.22 C91.1 101.22, 91.1 101.22, 91.1 101.22 M91.1 101.22 C91.1 101.22, 91.1 101.22, 91.1 101.22" stroke="#1e1e1e" stroke-width="2" fill="none"></path></g></g><mask></mask><g stroke-linecap="round"><g transform="translate(257.91418602501926 254.3140432804252) rotate(0 -1.2912444013547741 65.75930328920143)"><path d="M0.33 0.47 C-0.17 22.44, -1.55 109.22, -2.2 131.24 M-0.96 -0.33 C-1.65 21.88, -2.9 110.77, -2.95 132.64" stroke="#1e1e1e" stroke-width="2" fill="none"></path></g><g transform="translate(257.91418602501926 254.3140432804252) rotate(0 -1.2912444013547741 65.75930328920143)"><path d="M-1.17 133.88 L-9.37 120.08 L2.37 120.43 L-1.39 133.23" stroke="none" stroke-width="0" fill="#1e1e1e" fill-rule="evenodd"></path><path d="M-2.95 132.64 C-4.57 128.14, -7.77 121.39, -9.16 118.98 M-2.95 132.64 C-5.28 126.6, -8.3 121.71, -9.16 118.98 M-9.16 118.98 C-4.98 119.22, -1.55 118.08, 3.52 119.1 M-9.16 118.98 C-4.5 119.52, -0.43 119.43, 3.52 119.1 M3.52 119.1 C-0.15 125.36, -1.51 130.28, -2.95 132.64 M3.52 119.1 C1.61 122.11, 0.11 126.2, -2.95 132.64 M-2.95 132.64 C-2.95 132.64, -2.95 132.64, -2.95 132.64 M-2.95 132.64 C-2.95 132.64, -2.95 132.64, -2.95 132.64" stroke="#1e1e1e" stroke-width="2" fill="none"></path></g></g><mask></mask><g transform="translate(205.03439738760017 313.83714451899095) rotate(0 20 11.5)"><text x="20" y="18.400390625" font-family="Helvetica, Segoe UI Emoji" font-size="20px" fill="#1e1e1e" text-anchor="middle" style="white-space: pre;" direction="ltr" dominant-baseline="alphabetic">Fork</text></g><g stroke-linecap="round"><g transform="translate(314.9056405383591 384.0598570347238) rotate(0 0.5232496753185956 -64.87290687714929)"><path d="M0.88 0.24 C0.87 -21.38, 0.2 -106.87, 0.34 -128.61 M-0.11 -0.69 C0.22 -22.1, 2.44 -108.73, 2.68 -130.13" stroke="#1e1e1e" stroke-width="2" fill="none"></path></g><g transform="translate(314.9056405383591 384.0598570347238) rotate(0 0.5232496753185956 -64.87290687714929)"><path d="M3.31 -130.63 L8.48 -116.56 L-2.79 -115.66 L1.73 -130.14" stroke="none" stroke-width="0" fill="#1e1e1e" fill-rule="evenodd"></path><path d="M2.68 -130.13 C5.15 -126.44, 8.33 -120.08, 8.76 -116.42 M2.68 -130.13 C4.78 -126.46, 5.99 -123.08, 8.76 -116.42 M8.76 -116.42 C4.82 -115.7, 1.67 -115.78, -3.92 -116.66 M8.76 -116.42 C5.42 -116.64, 2.33 -116.62, -3.92 -116.66 M-3.92 -116.66 C-1.6 -121.92, 0.76 -125.61, 2.68 -130.13 M-3.92 -116.66 C-1.79 -121.34, 0.97 -125.55, 2.68 -130.13 M2.68 -130.13 C2.68 -130.13, 2.68 -130.13, 2.68 -130.13 M2.68 -130.13 C2.68 -130.13, 2.68 -130.13, 2.68 -130.13" stroke="#1e1e1e" stroke-width="2" fill="none"></path></g></g><mask></mask><g transform="translate(323.08304387911807 311.4199282951177) rotate(0 57.2509765625 11.5)"><text x="57.2509765625" y="18.400390625" font-family="Helvetica, Segoe UI Emoji" font-size="20px" fill="#1e1e1e" text-anchor="middle" style="white-space: pre;" direction="ltr" dominant-baseline="alphabetic">Pull-Request</text></g><g stroke-linecap="round"><g transform="translate(277.20198906103036 452.1219145947036) rotate(0 74.61567946069829 47.755924453272115)"><path d="M0.07 0.45 C24.65 16.31, 123.49 79.39, 148.42 95.2 M-1.36 -0.36 C23.53 15.67, 125.63 80.42, 150.7 96.57" stroke="#1e1e1e" stroke-width="2" fill="none"></path></g><g transform="translate(277.20198906103036 452.1219145947036) rotate(0 74.61567946069829 47.755924453272115)"><path d="M152.28 95.51 L137.29 93.12 L142.16 85.24 L150.09 97.25" stroke="none" stroke-width="0" fill="#1e1e1e" fill-rule="evenodd"></path><path d="M150.7 96.57 C145.69 94.82, 139.16 95.58, 135.83 94.6 M150.7 96.57 C146.21 96.7, 142.33 95.1, 135.83 94.6 M135.83 94.6 C138.8 90.77, 140.24 89.45, 142.66 83.91 M135.83 94.6 C137.98 92.11, 139.29 89.82, 142.66 83.91 M142.66 83.91 C146.64 87.48, 148.41 94.07, 150.7 96.57 M142.66 83.91 C146.19 87.97, 148.01 93.5, 150.7 96.57 M150.7 96.57 C150.7 96.57, 150.7 96.57, 150.7 96.57 M150.7 96.57 C150.7 96.57, 150.7 96.57, 150.7 96.57" stroke="#1e1e1e" stroke-width="2" fill="none"></path></g></g><mask></mask><g transform="translate(306.6990439942776 511.3807860725905) rotate(0 20.56640625 11.5)"><text x="20.56640625" y="18.400390625" font-family="Helvetica, Segoe UI Emoji" font-size="20px" fill="#1e1e1e" text-anchor="middle" style="white-space: pre;" direction="ltr" dominant-baseline="alphabetic">Clon</text></g><g stroke-linecap="round" transform="translate(44.10528761516139 39.98797344654909) rotate(0 68.25252372801297 39.15846817100977)"><path d="M53.87 1.05 C64.52 -0.74, 79.95 0.92, 90.73 3 C101.51 5.08, 111.15 8.7, 118.55 13.53 C125.95 18.35, 132.72 25.47, 135.13 31.94 C137.54 38.41, 136.68 46.27, 133.04 52.35 C129.39 58.43, 121.84 64.09, 113.25 68.44 C104.67 72.79, 92.49 77.2, 81.52 78.43 C70.55 79.65, 58.24 77.95, 47.43 75.77 C36.63 73.59, 24.42 70.17, 16.67 65.34 C8.93 60.51, 3 53.13, 0.97 46.79 C-1.06 40.45, 0.78 33.47, 4.49 27.3 C8.2 21.12, 13.03 14.29, 23.23 9.73 C33.43 5.18, 57 1.3, 65.67 -0.02 C74.34 -1.34, 75.3 1.06, 75.25 1.82 M76.15 1.63 C86.78 2.28, 99.75 6.07, 109 9.72 C118.24 13.36, 127.1 17.54, 131.63 23.5 C136.16 29.45, 137.57 38.64, 136.18 45.46 C134.8 52.29, 130.56 59.38, 123.32 64.45 C116.07 69.51, 103.37 73.64, 92.73 75.85 C82.09 78.05, 70.41 78.78, 59.48 77.69 C48.55 76.59, 36.12 73.03, 27.15 69.27 C18.18 65.5, 9.82 61.12, 5.63 55.08 C1.45 49.04, 0.41 39.7, 2.02 33.01 C3.64 26.31, 8.76 20.09, 15.32 14.9 C21.89 9.72, 31.26 4.08, 41.41 1.9 C51.57 -0.28, 70.08 1.97, 76.25 1.81 C82.41 1.65, 78.33 0.58, 78.41 0.92" stroke="#1e1e1e" stroke-width="2" fill="none"></path></g><g transform="translate(70.92606710700062 67.45722323296027) rotate(0 41.669921875 11.5)"><text x="41.669921875" y="18.400390625" font-family="Helvetica, Segoe UI Emoji" font-size="20px" fill="#1e1e1e" text-anchor="middle" style="white-space: pre;" direction="ltr" dominant-baseline="alphabetic">MASTER</text></g><g stroke-linecap="round"><g transform="translate(443.101300758716 561.4399093198484) rotate(0 1.7776815517621465 0)"><path d="M0 0 C0.93 -0.11, 1.75 -0.05, 3.56 0 M0 0 C1.21 -0.02, 2.56 0.04, 3.56 0" stroke="#000000" stroke-width="4" fill="none"></path></g></g><mask></mask><g stroke-linecap="round"><g transform="translate(472.81397812388434 561.1859548124539) rotate(0 1.7776815517621465 0)"><path d="M0 0 C1.29 -0.04, 2.52 -0.04, 3.56 0 M0 0 C1.27 0.05, 2.45 0.05, 3.56 0" stroke="#000000" stroke-width="4" fill="none"></path></g></g><mask></mask><g stroke-linecap="round"><g transform="translate(457.57670768020967 561.185954812454) rotate(0 1.7776815517621465 0)"><path d="M0 0 C0.83 -0.04, 1.58 -0.11, 3.56 0 M0 0 C0.94 0.04, 2.01 -0.06, 3.56 0" stroke="#000000" stroke-width="4" fill="none"></path></g></g><mask></mask><g stroke-linecap="round"><g transform="translate(487.2893850453763 560.9320003050592) rotate(0 1.7776815517621465 0)"><path d="M0 0 C0.98 -0.11, 1.82 0.05, 3.56 0 M0 0 C1.41 -0.06, 2.75 0.02, 3.56 0" stroke="#000000" stroke-width="4" fill="none"></path></g></g><mask></mask><g stroke-linecap="round"><g transform="translate(450.46598147315933 561.4399093198485) rotate(0 1.7776815517621465 0)"><path d="M0 0 C0.9 0.06, 1.95 -0.07, 3.56 0 M0 0 C1.4 0.04, 2.75 -0.03, 3.56 0" stroke="#000000" stroke-width="4" fill="none"></path></g></g><mask></mask><g stroke-linecap="round"><g transform="translate(480.17865883832695 561.1859548124538) rotate(0 1.7776815517621465 0)"><path d="M0 0 C0.82 -0.08, 1.55 0.11, 3.56 0 M0 0 C0.77 -0.05, 1.45 -0.01, 3.56 0" stroke="#000000" stroke-width="4" fill="none"></path></g></g><mask></mask><g stroke-linecap="round"><g transform="translate(464.9413883946511 561.1859548124539) rotate(0 1.7776815517621465 0)"><path d="M0 0 C1.31 0.12, 2.32 0.09, 3.56 0 M0 0 C1.22 0.01, 2.52 -0.02, 3.56 0" stroke="#000000" stroke-width="4" fill="none"></path></g></g><mask></mask><g stroke-linecap="round"><g transform="translate(494.6540657598189 560.9320003050594) rotate(0 1.777681551762143 0)"><path d="M0 0 C0.72 0.07, 1.72 0.04, 3.56 0 M0 0 C0.8 -0.03, 1.67 0.02, 3.56 0" stroke="#000000" stroke-width="4" fill="none"></path></g></g><mask></mask><g stroke-linecap="round"><g transform="translate(501.764791966868 561.1859548124537) rotate(0 1.777681551762143 0)"><path d="M0 0 C1.48 0.05, 2.75 -0.09, 3.56 0 M0 0 C1.11 0.03, 2.1 0.02, 3.56 0" stroke="#000000" stroke-width="4" fill="none"></path></g></g><mask></mask><g stroke-linecap="round"><g transform="translate(446.91061836963706 565.2492269307672) rotate(0 1.7776815517621465 0)"><path d="M0 0 C1.24 -0.09, 2.65 -0.03, 3.56 0 M0 0 C0.87 0.01, 1.83 -0.05, 3.56 0" stroke="#000000" stroke-width="4" fill="none"></path></g></g><mask></mask><g stroke-linecap="round"><g transform="translate(440.5617556847707 565.2492269307671) rotate(0 1.7776815517621465 0)"><path d="M0 0 C1.23 -0.02, 2.41 0.1, 3.56 0 M0 0 C1.24 -0.05, 2.42 0, 3.56 0" stroke="#000000" stroke-width="4" fill="none"></path></g></g><mask></mask><g stroke-linecap="round"><g transform="translate(476.6232957348049 564.9952724233729) rotate(0 1.7776815517621465 0)"><path d="M0 0 C0.75 0.09, 1.66 -0.05, 3.56 0 M0 0 C1.15 0.01, 2.3 0.03, 3.56 0" stroke="#000000" stroke-width="4" fill="none"></path></g></g><mask></mask><g stroke-linecap="round"><g transform="translate(461.38602529112694 564.9952724233727) rotate(0 1.7776815517621465 0)"><path d="M0 0 C1.04 -0.06, 2.01 0.08, 3.56 0 M0 0 C0.83 0.02, 1.61 -0.01, 3.56 0" stroke="#000000" stroke-width="4" fill="none"></path></g></g><mask></mask><g stroke-linecap="round"><g transform="translate(491.09870265629587 564.7413179159785) rotate(0 1.777681551762143 0)"><path d="M0 0 C1.36 0.09, 2.59 0.04, 3.56 0 M0 0 C1.06 -0.02, 2.17 -0.01, 3.56 0" stroke="#000000" stroke-width="4" fill="none"></path></g></g><mask></mask><g stroke-linecap="round"><g transform="translate(454.2752990840797 565.2492269307672) rotate(0 1.7776815517621465 0)"><path d="M0 0 C0.83 0.03, 1.84 0.05, 3.56 0 M0 0 C1.27 -0.01, 2.47 0.04, 3.56 0" stroke="#000000" stroke-width="4" fill="none"></path></g></g><mask></mask><g stroke-linecap="round"><g transform="translate(483.98797644924826 564.9952724233731) rotate(0 1.7776815517621465 0)"><path d="M0 0 C1.33 0.05, 2.71 0, 3.56 0 M0 0 C1.03 0.04, 1.9 -0.01, 3.56 0" stroke="#000000" stroke-width="4" fill="none"></path></g></g><mask></mask><g stroke-linecap="round"><g transform="translate(468.7507060055703 564.9952724233729) rotate(0 1.7776815517621465 0)"><path d="M0 0 C1.22 0, 2.32 0.11, 3.56 0 M0 0 C0.96 -0.02, 2.04 0, 3.56 0" stroke="#000000" stroke-width="4" fill="none"></path></g></g><mask></mask><g stroke-linecap="round"><g transform="translate(498.4633833707385 564.7413179159782) rotate(0 1.777681551762143 0)"><path d="M0 0 C1.21 0.12, 2.45 0.09, 3.56 0 M0 0 C1.32 0.01, 2.58 -0.06, 3.56 0" stroke="#000000" stroke-width="4" fill="none"></path></g></g><mask></mask><g stroke-linecap="round"><g transform="translate(505.57410957778814 564.9952724233731) rotate(0 1.777681551762143 0)"><path d="M0 0 C1.07 0.08, 2.26 -0.12, 3.56 0 M0 0 C0.98 -0.06, 2.02 -0.01, 3.56 0" stroke="#000000" stroke-width="4" fill="none"></path></g></g><mask></mask><g stroke-linecap="round"><g transform="translate(450.7199359805552 569.0585445416864) rotate(0 1.7776815517621465 0)"><path d="M0 0 C1.5 -0.12, 2.83 0.01, 3.56 0 M0 0 C1.1 0, 2.26 0.01, 3.56 0" stroke="#000000" stroke-width="4" fill="none"></path></g></g><mask></mask><g stroke-linecap="round"><g transform="translate(444.371073295691 569.0585445416866) rotate(0 1.7776815517621465 0)"><path d="M0 0 C1.34 0.03, 2.72 -0.07, 3.56 0 M0 0 C0.71 0, 1.43 -0.02, 3.56 0" stroke="#000000" stroke-width="4" fill="none"></path></g></g><mask></mask><g stroke-linecap="round"><g transform="translate(494.9080202672143 568.5506355268974) rotate(0 1.777681551762143 0)"><path d="M0 0 C0.77 -0.08, 1.38 -0.05, 3.56 0 M0 0 C1.03 -0.02, 1.99 0, 3.56 0" stroke="#000000" stroke-width="4" fill="none"></path></g></g><mask></mask><g stroke-linecap="round"><g transform="translate(461.61274175410665 569.4127035379549) rotate(0 13.169091982685696 -0.27501593810103486)"><path d="M0 0 C7.32 -0.52, 16.52 -0.31, 26.34 -0.55 M0 0 C7.42 -0.17, 16.27 -0.4, 26.34 -0.55" stroke="#000000" stroke-width="4" fill="none"></path></g></g><mask></mask><g stroke-linecap="round"><g transform="translate(502.2727009816587 568.5506355268972) rotate(0 1.777681551762143 0)"><path d="M0 0 C0.81 0, 1.65 0.02, 3.56 0 M0 0 C1.01 -0.01, 1.93 0, 3.56 0" stroke="#000000" stroke-width="4" fill="none"></path></g></g><mask></mask><g stroke-linecap="round"><g transform="translate(432.03489766515315 572.2423623739055) rotate(0 43.80715252556756 -7.0472375802000045)"><path d="M0 0 C22.45 0.37, 44.27 -1.95, 87.61 0 M0 0 C25.84 0.21, 51.47 0.72, 87.61 0 M87.61 0 C86.33 -4.3, 81.55 -8.12, 77.71 -13.71 M87.61 0 C84.07 -4.87, 80.49 -10.16, 77.71 -13.71 M77.71 -13.71 C52.71 -11.34, 29.53 -15.16, 8 -14.09 M77.71 -13.71 C61.26 -14.86, 42.29 -13.89, 8 -14.09 M8 -14.09 C4.12 -8.66, 2.24 -5.84, 0 0 M8 -14.09 C6 -10.79, 3.51 -6.75, 0 0" stroke="#000000" stroke-width="1" fill="none"></path></g></g><mask></mask><g stroke-linecap="round" transform="translate(431.5463706722632 571.598089615632) rotate(0 43.807152525567496 0.8888407758810786)"><path d="M0 0 C25.5 -1.07, 51.54 0.8, 87.61 0 M0 0 C24.48 0.25, 48.27 -0.1, 87.61 0 M87.61 0 C87.54 0.27, 87.7 0.68, 87.61 1.78 M87.61 0 C87.64 0.54, 87.64 1.08, 87.61 1.78 M87.61 1.78 C52.61 1.25, 17.44 3.06, 0 1.78 M87.61 1.78 C69.55 1.97, 52.36 1.21, 0 1.78 M0 1.78 C-0.02 1.09, -0.05 0.41, 0 0 M0 1.78 C-0.03 1.13, 0 0.41, 0 0" stroke="#000000" stroke-width="1" fill="none"></path></g><g stroke-linecap="round" transform="translate(442.91083487817093 507.79201963274045) rotate(0 31.045938528989183 17.713326890772947)"><path d="M0 0 C19.47 2.36, 38.82 1.18, 62.09 0 M0 0 C18.02 -0.5, 36.43 0.26, 62.09 0 M62.09 0 C63.51 7.58, 61.63 17.5, 62.09 35.43 M62.09 0 C62.72 13.45, 63.27 24.45, 62.09 35.43 M62.09 35.43 C36.76 36.6, 11.53 36.61, 0 35.43 M62.09 35.43 C45.92 35.05, 30 35.11, 0 35.43 M0 35.43 C-1.17 21.3, 1.84 10.3, 0 0 M0 35.43 C0.28 25.2, -0.31 14.64, 0 0" stroke="#000000" stroke-width="1" fill="none"></path></g><g stroke-linecap="round" transform="translate(439.4824490283443 503.2208384996377) rotate(0 34.474324378816185 21.903576262783787)"><path d="M0 0 C13.36 -0.04, 27.66 0.11, 68.95 0 M0 0 C23.28 0.71, 47.92 -0.76, 68.95 0 M68.95 0 C69.18 9.37, 70.38 18.79, 68.95 43.81 M68.95 0 C70.11 14.94, 70.05 30.79, 68.95 43.81 M68.95 43.81 C52.72 46.17, 39.68 42.88, 0 43.81 M68.95 43.81 C44.12 42.5, 18.55 42.92, 0 43.81 M0 43.81 C2.01 32.82, 0.07 20.35, 0 0 M0 43.81 C-0.58 26.93, -0.78 9.76, 0 0" stroke="#000000" stroke-width="1" fill="none"></path></g><g stroke-linecap="round"><g transform="translate(469.38559227405756 547.3454341594484) rotate(0 4.263256414560601e-14 2.6665223276432357)"><path d="M0 0 C0 2.13, 0.09 4.01, 0 5.33 M0 0 C-0.07 1.43, -0.1 3.08, 0 5.33" stroke="#000000" stroke-width="2" fill="none"></path></g></g><mask></mask><g stroke-linecap="round"><g transform="translate(477.5121365106855 547.0914796520541) rotate(0 4.263256414560601e-14 2.6665223276432357)"><path d="M0 0 C0.09 1.63, -0.03 3.33, 0 5.33 M0 0 C-0.1 1.99, -0.05 3.81, 0 5.33" stroke="#000000" stroke-width="2" fill="none"></path></g></g><mask></mask><g stroke-linecap="round"><g transform="translate(462.51432730527745 553.1813342445851) rotate(0 10.61798391048777 0.0278863160304752)"><path d="M0 0 C6.94 -0.89, 14.83 -0.5, 21.24 0.06 M0 0 C4.27 -0.12, 9.12 0.19, 21.24 0.06" stroke="#000000" stroke-width="2" fill="none"></path></g></g><mask></mask><g stroke-linecap="round"><g transform="translate(429.17450948153595 521.7597965877121) rotate(0 -52.681716692943 -34.58600830175598)"><path d="M0.08 0.45 C-17.27 -10.83, -87.65 -56.95, -105.05 -68.44 M-1.34 -0.37 C-18.73 -11.92, -88.64 -58.5, -105.83 -70.18" stroke="#1e1e1e" stroke-width="2" fill="none"></path></g><g transform="translate(429.17450948153595 521.7597965877121) rotate(0 -52.681716692943 -34.58600830175598)"><path d="M-104.63 -69.43 L-91.13 -66.14 L-98.65 -58.85 L-105.88 -69.98" stroke="none" stroke-width="0" fill="#1e1e1e" fill-rule="evenodd"></path><path d="M-105.83 -70.18 C-102.01 -69.28, -98.37 -67.8, -91.01 -67.86 M-105.83 -70.18 C-100.76 -69.79, -95.07 -68.35, -91.01 -67.86 M-91.01 -67.86 C-92.71 -63.9, -97.79 -60.3, -98.08 -57.34 M-91.01 -67.86 C-93.44 -64.9, -94.51 -62.7, -98.08 -57.34 M-98.08 -57.34 C-100.05 -61.15, -104.85 -66.59, -105.83 -70.18 M-98.08 -57.34 C-100.23 -61.33, -103.74 -67.38, -105.83 -70.18 M-105.83 -70.18 C-105.83 -70.18, -105.83 -70.18, -105.83 -70.18 M-105.83 -70.18 C-105.83 -70.18, -105.83 -70.18, -105.83 -70.18" stroke="#1e1e1e" stroke-width="2" fill="none"></path></g></g><mask></mask><g transform="translate(388.4011343865139 454.69667855067115) rotate(0 22.79296875 11.5)"><text x="22.79296875" y="18.400390625" font-family="Helvetica, Segoe UI Emoji" font-size="20px" fill="#1e1e1e" text-anchor="middle" style="white-space: pre;" direction="ltr" dominant-baseline="alphabetic">Push</text></g><g stroke-linecap="round" transform="translate(235.8054566269583 199.53932761593012) rotate(0 56.72937037133545 26.887357832247552)"><path d="M13.44 0 C42.28 -1.31, 68.63 -0.19, 100.02 0 M13.44 0 C46.54 -1.26, 81.26 -0.13, 100.02 0 M100.02 0 C110.52 0.28, 114.96 6.08, 113.46 13.44 M100.02 0 C110.47 0.7, 112.09 3.85, 113.46 13.44 M113.46 13.44 C112.31 18.53, 115.36 26.47, 113.46 40.33 M113.46 13.44 C114.53 21.86, 113.61 29.62, 113.46 40.33 M113.46 40.33 C112.27 48.1, 108.85 51.99, 100.02 53.77 M113.46 40.33 C113.88 49.76, 110.75 52.18, 100.02 53.77 M100.02 53.77 C64.21 51.3, 29.47 51.39, 13.44 53.77 M100.02 53.77 C76.02 53.89, 53.97 53.26, 13.44 53.77 M13.44 53.77 C5.71 54.59, 1.14 50.77, 0 40.33 M13.44 53.77 C2.77 52.66, -1.1 50.25, 0 40.33 M0 40.33 C1.68 33.06, 0.01 21.49, 0 13.44 M0 40.33 C0.18 33.09, -0.81 27.7, 0 13.44 M0 13.44 C0.66 5.22, 3.78 -1.86, 13.44 0 M0 13.44 C-1.24 5.17, 2.9 0.63, 13.44 0" stroke="#1e1e1e" stroke-width="2" fill="none"></path></g><g transform="translate(271.97330356079374 214.92668544817766) rotate(0 20.5615234375 11.5)"><text x="20.5615234375" y="18.400390625" font-family="Helvetica, Segoe UI Emoji" font-size="20px" fill="#1e1e1e" text-anchor="middle" style="white-space: pre;" direction="ltr" dominant-baseline="alphabetic">DEV</text></g><g stroke-linecap="round" transform="translate(228.94882918660653 388.7873045656685) rotate(0 56.72937037133545 26.88735783224756)"><path d="M13.44 0 C45.05 -0.77, 73.47 -0.17, 100.02 0 M13.44 0 C43.33 -0.09, 73.31 0.58, 100.02 0 M100.02 0 C110.69 1.38, 111.5 5.22, 113.46 13.44 M100.02 0 C108.54 -2.21, 111.65 5.27, 113.46 13.44 M113.46 13.44 C115.46 24.72, 114.67 32.95, 113.46 40.33 M113.46 13.44 C114.32 23.48, 114.23 32.41, 113.46 40.33 M113.46 40.33 C114.12 49.27, 109 54.14, 100.02 53.77 M113.46 40.33 C113.08 47.9, 109.73 52.53, 100.02 53.77 M100.02 53.77 C73.86 53.85, 45.1 53.35, 13.44 53.77 M100.02 53.77 C78.39 54.14, 57.94 53.93, 13.44 53.77 M13.44 53.77 C6.48 55.43, -1.15 50.25, 0 40.33 M13.44 53.77 C2.25 53.56, 0.87 48.51, 0 40.33 M0 40.33 C1.71 28.91, -1.16 21.76, 0 13.44 M0 40.33 C0.93 32.55, -0.63 27.07, 0 13.44 M0 13.44 C-1.43 5.48, 6.23 0.27, 13.44 0 M0 13.44 C1.56 5.72, 6.37 -1.24, 13.44 0" stroke="#1e1e1e" stroke-width="2" fill="none"></path></g><g transform="translate(265.116676120442 404.17466239791605) rotate(0 20.5615234375 11.5)"><text x="20.5615234375" y="18.400390625" font-family="Helvetica, Segoe UI Emoji" font-size="20px" fill="#1e1e1e" text-anchor="middle" style="white-space: pre;" direction="ltr" dominant-baseline="alphabetic">DEV</text></g><g stroke-linecap="round"><g transform="translate(192.9993848488573 77.4010095767638) rotate(0 311.0956141823968 -1.5681491639356437)"><path d="M0.46 -0.58 C104.17 -1.19, 519.04 -3.2, 622.49 -3.46 M-0.76 1.73 C102.8 1.29, 517.66 -1.14, 621.71 -2.1" stroke="#1e1e1e" stroke-width="2" fill="none"></path></g><g transform="translate(192.9993848488573 77.4010095767638) rotate(0 311.0956141823968 -1.5681491639356437)"><path d="M620.76 -3.56 L608.59 4.48 L606.55 -8.69 L623.48 -0.88" stroke="none" stroke-width="0" fill="#1e1e1e" fill-rule="evenodd"></path><path d="M621.71 -2.1 C616.66 0.39, 612.66 0.78, 608.16 4.34 M621.71 -2.1 C616.25 0.94, 611.78 2.92, 608.16 4.34 M608.16 4.34 C607.48 -0.09, 607.32 -3.59, 608.07 -8.34 M608.16 4.34 C608.01 0.93, 608.1 -1.71, 608.07 -8.34 M608.07 -8.34 C612.24 -5.79, 613.41 -6.72, 621.71 -2.1 M608.07 -8.34 C610.89 -6.82, 613.3 -5.66, 621.71 -2.1 M621.71 -2.1 C621.71 -2.1, 621.71 -2.1, 621.71 -2.1 M621.71 -2.1 C621.71 -2.1, 621.71 -2.1, 621.71 -2.1" stroke="#1e1e1e" stroke-width="2" fill="none"></path></g></g><mask></mask><g stroke-linecap="round"><g transform="translate(483.85517704731274 207.51346632065557) rotate(0 -0.07182543642637995 -52.70973438795161)"><path d="M-1 0.45 C-1.15 -17.36, -0.02 -88.35, 0.13 -105.85 M0.68 -0.36 C0.3 -17.47, -0.43 -86.86, -0.68 -104.53" stroke="#1e1e1e" stroke-width="2" fill="none"></path></g><g transform="translate(483.85517704731274 207.51346632065557) rotate(0 -0.07182543642637995 -52.70973438795161)"><path d="M-1.67 -103.99 L6.46 -90.89 L-6.15 -89.08 L0.44 -102.67" stroke="none" stroke-width="0" fill="#1e1e1e" fill-rule="evenodd"></path><path d="M-0.68 -104.53 C2.51 -98.92, 3.93 -93.97, 5.83 -91.02 M-0.68 -104.53 C2.22 -99.86, 4.72 -94.92, 5.83 -91.02 M5.83 -91.02 C3.31 -91.79, -0.07 -91.38, -6.85 -90.86 M5.83 -91.02 C1.02 -91.33, -3.97 -90.75, -6.85 -90.86 M-6.85 -90.86 C-5.18 -94.53, -4.3 -97.95, -0.68 -104.53 M-6.85 -90.86 C-5.39 -95.36, -2.32 -100.04, -0.68 -104.53 M-0.68 -104.53 C-0.68 -104.53, -0.68 -104.53, -0.68 -104.53 M-0.68 -104.53 C-0.68 -104.53, -0.68 -104.53, -0.68 -104.53" stroke="#1e1e1e" stroke-width="2" fill="none"></path></g></g><mask></mask><g stroke-linecap="round" transform="translate(468.7980966551552 66.68547912341685) rotate(0 14.171369780854207 11.95709325259574)"><path d="M16.55 0.53 C19.54 0.89, 23.41 2.85, 25.46 4.79 C27.51 6.74, 28.89 9.67, 28.83 12.19 C28.77 14.71, 27.27 17.94, 25.12 19.91 C22.97 21.88, 19.04 23.68, 15.95 24 C12.87 24.31, 9.2 23.2, 6.6 21.78 C4 20.36, 1.34 17.84, 0.38 15.49 C-0.58 13.14, -0.38 10, 0.83 7.69 C2.03 5.37, 4.8 2.83, 7.6 1.59 C10.41 0.35, 15.8 0.43, 17.66 0.24 C19.53 0.05, 18.88 0.28, 18.79 0.46 M13.45 0.34 C16.13 -0.1, 19.54 0.71, 21.84 2.01 C24.14 3.31, 26.39 5.76, 27.25 8.14 C28.11 10.52, 28.08 13.87, 26.99 16.3 C25.91 18.72, 23.58 21.61, 20.74 22.71 C17.9 23.81, 13.07 23.46, 9.95 22.89 C6.84 22.32, 3.64 21.22, 2.05 19.3 C0.45 17.38, 0.11 13.94, 0.37 11.38 C0.63 8.82, 1.62 5.88, 3.62 3.94 C5.61 2.01, 10.84 0.5, 12.35 -0.22 C13.86 -0.95, 12.62 -0.72, 12.69 -0.39" stroke="none" stroke-width="0" fill="#ffffff"></path><path d="M11.89 -0.32 C14.63 -0.84, 18.92 0.24, 21.6 1.74 C24.27 3.24, 27.02 6.18, 27.93 8.71 C28.83 11.23, 28.17 14.58, 27.03 16.9 C25.88 19.22, 23.67 21.48, 21.05 22.63 C18.43 23.78, 14.31 24.42, 11.33 23.8 C8.35 23.19, 5.06 21.04, 3.19 18.94 C1.32 16.84, -0.06 13.67, 0.1 11.21 C0.26 8.75, 2 6.07, 4.15 4.18 C6.3 2.29, 11.46 0.49, 12.99 -0.13 C14.52 -0.76, 13.42 0.16, 13.33 0.42 M12.74 0.17 C15.78 -0.21, 20.4 -0.03, 22.92 1.4 C25.43 2.84, 27.13 6.2, 27.82 8.77 C28.51 11.34, 28.43 14.4, 27.07 16.8 C25.71 19.2, 22.36 22.07, 19.66 23.16 C16.95 24.25, 13.65 24.16, 10.84 23.34 C8.04 22.52, 4.68 20.42, 2.84 18.24 C0.99 16.07, -0.44 12.63, -0.22 10.29 C0 7.96, 1.98 5.98, 4.15 4.24 C6.32 2.5, 11.38 0.42, 12.8 -0.17 C14.21 -0.75, 12.68 0.58, 12.64 0.72" stroke="#1e1e1e" stroke-width="2" fill="none"></path></g><g transform="translate(491.82458554825155 147.28514475202513) rotate(0 28.3447265625 11.5)"><text x="28.3447265625" y="18.400390625" font-family="Helvetica, Segoe UI Emoji" font-size="20px" fill="#1e1e1e" text-anchor="middle" style="white-space: pre;" direction="ltr" dominant-baseline="alphabetic">Merge</text></g><g transform="translate(415.75481444278387 32.142765282584705) rotate(0 34.443359375 11.5)"><text x="34.443359375" y="18.400390625" font-family="Helvetica, Segoe UI Emoji" font-size="20px" fill="#1e1e1e" text-anchor="middle" style="white-space: pre;" direction="ltr" dominant-baseline="alphabetic">Commit</text></g><g stroke-linecap="round"><g transform="translate(357.1985596309281 230.54194221454367) rotate(0 227.62762710497077 0)"><path d="M0.77 0.22 C76.39 0.13, 378.84 0.54, 454.53 0.41 M-0.28 -0.7 C75.65 -0.65, 381.16 -1.7, 456.86 -1.49" stroke="#1e1e1e" stroke-width="2" fill="none"></path></g><g transform="translate(357.1985596309281 230.54194221454367) rotate(0 227.62762710497077 0)"><path d="M458.01 -0.66 L445.26 5.46 L444.19 -6.88 L456.45 -1.27" stroke="none" stroke-width="0" fill="#1e1e1e" fill-rule="evenodd"></path><path d="M456.86 -1.49 C452.17 0.03, 447.38 2.83, 443.27 4.86 M456.86 -1.49 C453.29 0.98, 450.56 2.55, 443.27 4.86 M443.27 4.86 C442.87 1, 442.87 -3.3, 443.26 -7.82 M443.27 4.86 C443.44 0.93, 443.69 -3.76, 443.26 -7.82 M443.26 -7.82 C447.13 -6.92, 451.25 -2.49, 456.86 -1.49 M443.26 -7.82 C447.4 -5.42, 451.25 -3.48, 456.86 -1.49 M456.86 -1.49 C456.86 -1.49, 456.86 -1.49, 456.86 -1.49 M456.86 -1.49 C456.86 -1.49, 456.86 -1.49, 456.86 -1.49" stroke="#1e1e1e" stroke-width="2" fill="none"></path></g></g><mask></mask><g stroke-linecap="round" transform="translate(387.31272041524335 216.81342773934117) rotate(0 14.171369780854207 11.95709325259574)"><path d="M11.84 0.26 C14.53 -0.19, 18.47 0.58, 21.06 1.83 C23.64 3.08, 26.32 5.41, 27.32 7.76 C28.33 10.1, 28.13 13.39, 27.08 15.88 C26.03 18.38, 23.65 21.36, 21.01 22.72 C18.37 24.08, 14.21 24.5, 11.25 24.03 C8.29 23.56, 5.14 21.94, 3.27 19.9 C1.41 17.86, 0.03 14.37, 0.08 11.81 C0.13 9.24, 1.52 6.46, 3.57 4.49 C5.61 2.51, 10.87 0.63, 12.35 -0.05 C13.84 -0.72, 12.58 0.14, 12.48 0.44 M17.9 -0.41 C20.9 -0.01, 24.34 2.1, 26.09 4.19 C27.85 6.28, 28.67 9.45, 28.42 12.15 C28.18 14.84, 26.61 18.37, 24.63 20.35 C22.65 22.34, 19.5 23.8, 16.52 24.05 C13.54 24.29, 9.33 23.28, 6.77 21.84 C4.21 20.4, 2.01 17.72, 1.15 15.41 C0.28 13.09, 0.52 10.24, 1.58 7.94 C2.64 5.63, 4.92 2.81, 7.51 1.58 C10.1 0.35, 15.49 0.83, 17.12 0.55 C18.74 0.27, 17.14 -0.31, 17.26 -0.09" stroke="none" stroke-width="0" fill="#ffffff"></path><path d="M16.7 0.59 C19.45 0.84, 22.41 2.7, 24.35 4.5 C26.29 6.31, 28.17 8.98, 28.33 11.39 C28.49 13.81, 27.13 16.97, 25.3 19 C23.46 21.03, 20.29 23.02, 17.3 23.58 C14.32 24.13, 10.11 23.57, 7.4 22.32 C4.69 21.07, 2.23 18.49, 1.04 16.07 C-0.14 13.64, -0.64 10.13, 0.29 7.77 C1.21 5.41, 3.91 3.12, 6.6 1.91 C9.28 0.71, 14.67 0.73, 16.4 0.53 C18.14 0.33, 17.11 0.64, 17.03 0.74 M15.25 0.64 C17.94 0.8, 21.68 1.73, 23.8 3.41 C25.91 5.08, 27.53 8.02, 27.93 10.72 C28.33 13.41, 27.89 17.43, 26.19 19.56 C24.48 21.69, 20.87 23.05, 17.7 23.48 C14.54 23.92, 9.93 23.29, 7.2 22.18 C4.47 21.08, 2.49 19.07, 1.32 16.85 C0.15 14.63, -0.6 11.37, 0.19 8.87 C0.98 6.36, 3.54 3.28, 6.05 1.83 C8.56 0.38, 13.77 0.46, 15.27 0.18 C16.78 -0.1, 14.96 -0.06, 15.08 0.16" stroke="#1e1e1e" stroke-width="2" fill="none"></path></g><g stroke-linecap="round" transform="translate(467.02667543254836 215.0420065167344) rotate(0 14.171369780854207 11.95709325259574)"><path d="M14.56 0.39 C17.45 0.45, 22.08 1.79, 24.39 3.42 C26.71 5.05, 28.12 7.61, 28.46 10.17 C28.79 12.74, 28.14 16.67, 26.4 18.81 C24.65 20.95, 20.91 22.4, 18 23.01 C15.1 23.62, 11.73 23.36, 8.96 22.48 C6.18 21.6, 2.87 20.03, 1.36 17.75 C-0.14 15.47, -0.79 11.33, -0.09 8.82 C0.6 6.31, 2.85 4.1, 5.54 2.68 C8.22 1.26, 14.31 0.62, 16.03 0.31 C17.76 0, 15.99 0.64, 15.88 0.82 M14.87 -0.67 C17.74 -0.71, 21.56 0.81, 23.72 2.66 C25.88 4.52, 27.43 7.87, 27.83 10.45 C28.23 13.02, 27.69 16.02, 26.13 18.11 C24.56 20.2, 21.26 22.1, 18.46 23.01 C15.66 23.92, 12.17 24.44, 9.31 23.56 C6.45 22.68, 2.82 20.09, 1.29 17.73 C-0.25 15.37, -0.54 11.84, 0.09 9.39 C0.73 6.94, 2.68 4.71, 5.09 3.02 C7.5 1.34, 13 -0.24, 14.55 -0.71 C16.1 -1.18, 14.44 -0.17, 14.38 0.2" stroke="none" stroke-width="0" fill="#ffffff"></path><path d="M15.98 -0.34 C18.76 -0.12, 22.41 1.71, 24.45 3.76 C26.49 5.82, 28.09 9.46, 28.22 11.98 C28.35 14.5, 27.01 16.92, 25.24 18.88 C23.47 20.84, 20.62 23.22, 17.61 23.75 C14.59 24.28, 9.94 23.33, 7.17 22.08 C4.39 20.83, 2.09 18.58, 0.97 16.22 C-0.16 13.87, -0.62 10.34, 0.39 7.93 C1.4 5.51, 4.35 3.05, 7.01 1.73 C9.68 0.42, 14.71 0.23, 16.38 0.03 C18.06 -0.17, 17.09 0.29, 17.08 0.53 M13.62 -0.15 C16.5 -0.12, 20.26 1.72, 22.65 3.41 C25.03 5.1, 27.36 7.56, 27.95 9.99 C28.54 12.43, 27.6 15.81, 26.17 18.03 C24.74 20.26, 22.1 22.55, 19.36 23.32 C16.62 24.1, 12.6 23.49, 9.74 22.67 C6.88 21.84, 3.78 20.55, 2.21 18.4 C0.64 16.25, -0.02 12.4, 0.33 9.79 C0.69 7.18, 2.18 4.47, 4.37 2.74 C6.56 1.02, 11.81 -0.21, 13.47 -0.57 C15.13 -0.94, 14.18 0.18, 14.31 0.56" stroke="#1e1e1e" stroke-width="2" fill="none"></path></g><g stroke-linecap="round" transform="translate(10 10) rotate(0 456.14096482124484 139.05656597463195)"><path d="M32 0 C360.54 3.22, 689.43 3.19, 880.28 0 M880.28 0 C900.03 0.41, 912.43 12.54, 912.28 32 M912.28 32 C913.4 104.67, 913.31 182.29, 912.28 246.11 M912.28 246.11 C910.48 268.84, 902.96 276.32, 880.28 278.11 M880.28 278.11 C698.45 280.61, 517.5 279.19, 32 278.11 M32 278.11 C12.24 276.22, -0.64 267.55, 0 246.11 M0 246.11 C1.04 197.55, -1.16 147.75, 0 32 M0 32 C1.78 9.38, 12.26 0.77, 32 0" stroke="#1e1e1e" stroke-width="2.5" fill="none" stroke-dasharray="8 10"></path></g><g transform="translate(381.92751272349074 191.57067531719457) rotate(0 17.78515625 9.200000000000003)"><text x="17.78515625" y="14.720312499999999" font-family="Helvetica, Segoe UI Emoji" font-size="16px" fill="#1e1e1e" text-anchor="middle" style="white-space: pre;" direction="ltr" dominant-baseline="alphabetic">react</text></g><g stroke-linecap="round" transform="translate(573.2680575410361 386.11097031079413) rotate(0 56.72937037133545 26.887357832247545)"><path d="M13.44 0 C47.23 -1.13, 81.62 -1.43, 100.02 0 M13.44 0 C35.85 -0.14, 58.9 -0.65, 100.02 0 M100.02 0 C109.82 -1.81, 111.95 5.95, 113.46 13.44 M100.02 0 C108.06 -1.05, 114.76 3.47, 113.46 13.44 M113.46 13.44 C113.48 21.96, 114.5 28.49, 113.46 40.33 M113.46 13.44 C114.6 19.34, 114.68 25.81, 113.46 40.33 M113.46 40.33 C112.1 50.53, 110.49 53.85, 100.02 53.77 M113.46 40.33 C114.07 49.57, 110.07 54.02, 100.02 53.77 M100.02 53.77 C83.15 53.57, 62.16 54.61, 13.44 53.77 M100.02 53.77 C79.07 54.44, 57.54 52.87, 13.44 53.77 M13.44 53.77 C2.78 52.55, 1.54 50.68, 0 40.33 M13.44 53.77 C3.4 53.51, -2.08 49.1, 0 40.33 M0 40.33 C-0.41 32, 1.27 19.4, 0 13.44 M0 40.33 C0.45 34.96, -0.85 27.59, 0 13.44 M0 13.44 C-1.75 5.33, 5.85 0.58, 13.44 0 M0 13.44 C-1.25 5.65, 3.69 0.53, 13.44 0" stroke="#1e1e1e" stroke-width="2" fill="none"></path></g><g transform="translate(581.0960607248716 401.4983281430417) rotate(0 48.9013671875 11.5)"><text x="48.9013671875" y="18.400390625" font-family="Helvetica, Segoe UI Emoji" font-size="20px" fill="#1e1e1e" text-anchor="middle" style="white-space: pre;" direction="ltr" dominant-baseline="alphabetic">SANDBOX</text></g><g stroke-linecap="round"><g transform="translate(612.2193918665558 450.4538482380424) rotate(0 -45.398108370910705 31.370278144159414)"><path d="M-0.3 -0.81 C-3.32 6.12, -3.22 32.06, -18.25 42.56 C-33.28 53.05, -78.26 58.98, -90.46 62.17 M1.74 1.38 C-1.39 8.38, -3.58 33.48, -19.05 43.78 C-34.51 54.09, -78.97 60.11, -91.05 63.2" stroke="#1e1e1e" stroke-width="2" fill="none"></path></g><g transform="translate(612.2193918665558 450.4538482380424) rotate(0 -45.398108370910705 31.370278144159414)"><path d="M-91.34 63.45 L-78.36 55.75 L-76.32 66.82 L-92.94 63.83" stroke="none" stroke-width="0" fill="#1e1e1e" fill-rule="evenodd"></path><path d="M-91.05 63.2 C-88.69 61.05, -84.97 58.57, -78.97 54.3 M-91.05 63.2 C-88.33 61.26, -85.07 58.35, -78.97 54.3 M-78.97 54.3 C-78.45 58.83, -77.91 63.87, -76.48 66.73 M-78.97 54.3 C-78.46 57.25, -78.49 59.31, -76.48 66.73 M-76.48 66.73 C-81.06 64.24, -86.13 63.12, -91.05 63.2 M-76.48 66.73 C-81.65 65.81, -87.01 64.78, -91.05 63.2 M-91.05 63.2 C-91.05 63.2, -91.05 63.2, -91.05 63.2 M-91.05 63.2 C-91.05 63.2, -91.05 63.2, -91.05 63.2" stroke="#1e1e1e" stroke-width="2" fill="none"></path></g></g><mask></mask><g stroke-linecap="round"><g transform="translate(520.62149417863 536.0345212345119) rotate(0 65.11779461040759 -42.55740380348644)"><path d="M0.29 -0.59 C16.85 -4.52, 77.53 -10.15, 99.08 -24.4 C120.63 -38.66, 124.49 -76.06, 129.58 -86.13 M-1.02 1.72 C15.44 -1.99, 76.73 -8.65, 98.31 -23.16 C119.89 -37.67, 123.26 -75.28, 128.47 -85.34" stroke="#1e1e1e" stroke-width="2" fill="none"></path></g><g transform="translate(520.62149417863 536.0345212345119) rotate(0 65.11779461040759 -42.55740380348644)"><path d="M129.08 -83.89 L130.62 -70.39 L116.47 -73.62 L128 -86.56" stroke="none" stroke-width="0" fill="#1e1e1e" fill-rule="evenodd"></path><path d="M128.47 -85.34 C128.18 -80.84, 128.75 -78, 130.46 -70.47 M128.47 -85.34 C128.65 -82.59, 129.85 -78.84, 130.46 -70.47 M130.46 -70.47 C126.32 -71.41, 122.71 -71.88, 118.36 -74.26 M130.46 -70.47 C126.28 -71.68, 123.6 -72.11, 118.36 -74.26 M118.36 -74.26 C121.36 -78.32, 125 -80.23, 128.47 -85.34 M118.36 -74.26 C122.83 -78.01, 126.72 -83.09, 128.47 -85.34 M128.47 -85.34 C128.47 -85.34, 128.47 -85.34, 128.47 -85.34 M128.47 -85.34 C128.47 -85.34, 128.47 -85.34, 128.47 -85.34" stroke="#1e1e1e" stroke-width="2" fill="none"></path></g></g><mask></mask></svg>