<svg version="1.1" xmlns="http://www.w3.org/2000/svg" viewBox="0 0 4016.1666664126956 3504.666666666666" width="4016.1666664126956" height="3504.666666666666">
  <!-- svg-source:excalidraw -->
  
  <defs>
    <style class="style-fonts">
      @font-face {
        font-family: "Virgil";
        src: url("https://excalidraw.com/Virgil.woff2");
      }
      @font-face {
        font-family: "Cascadia";
        src: url("https://excalidraw.com/Cascadia.woff2");
      }
      @font-face {
        font-family: "Assistant";
        src: url("https://excalidraw.com/Assistant-Regular.woff2");
      }
    </style>
    
  </defs>
  <rect x="0" y="0" width="4016.1666664126956" height="3504.666666666666" fill="#ffffff"></rect><g stroke-linecap="round" transform="translate(696.1666659999996 829.9999999999977) rotate(0 1645 350.9999999999999)"><path d="M32 0 C803.22 -7.06, 1574.59 -7.58, 3258 0 M3258 0 C3279.06 -0.75, 3288.54 11.44, 3290 32 M3290 32 C3289.77 186.1, 3289.87 338.54, 3290 670 M3290 670 C3289.5 689.95, 3281.02 702.93, 3258 702 M3258 702 C2564.39 713.43, 1871.73 714.52, 32 702 M32 702 C11.57 702.5, 1.77 690.04, 0 670 M0 670 C0.49 422.55, 0.76 176.81, 0 32 M0 32 C0.52 9.25, 9.47 1.58, 32 0" stroke="#1e1e1e" stroke-width="4.5" fill="none" stroke-dasharray="8 12"></path></g><g stroke-linecap="round" transform="translate(10.000000358689704 10) rotate(0 1998.083332987322 236.66666666666652)"><path d="M0 0 C1267.38 0, 2534.77 0, 3996.17 0 M0 0 C901.98 0, 1803.96 0, 3996.17 0 M3996.17 0 C3996.17 178.54, 3996.17 357.09, 3996.17 473.33 M3996.17 0 C3996.17 95.53, 3996.17 191.06, 3996.17 473.33 M3996.17 473.33 C2930.18 473.33, 1864.2 473.33, 0 473.33 M3996.17 473.33 C2792.05 473.33, 1587.92 473.33, 0 473.33 M0 473.33 C0 337.35, 0 201.37, 0 0 M0 473.33 C0 358.5, 0 243.66, 0 0" stroke="#1e1e1e" stroke-width="1" fill="none"></path></g><g transform="translate(1923.7083333460116 15) rotate(0 84.375 21.59999999999991)"><text x="84.375" y="34.762499999999996" font-family="Cascadia, Segoe UI Emoji" font-size="36px" fill="#1e1e1e" text-anchor="middle" style="white-space: pre;" direction="ltr" dominant-baseline="alphabetic">/api/v1/</text></g><g transform="translate(1269.166666412697 229.99999999999955) rotate(0 98.4375 84)"><text x="0" y="27.0375" font-family="Cascadia, Segoe UI Emoji" font-size="28px" fill="#1e1e1e" text-anchor="start" style="white-space: pre;" direction="ltr" dominant-baseline="alphabetic">/simulations</text><text x="0" y="60.6375" font-family="Cascadia, Segoe UI Emoji" font-size="28px" fill="#1e1e1e" text-anchor="start" style="white-space: pre;" direction="ltr" dominant-baseline="alphabetic">create</text><text x="0" y="94.23750000000001" font-family="Cascadia, Segoe UI Emoji" font-size="28px" fill="#1e1e1e" text-anchor="start" style="white-space: pre;" direction="ltr" dominant-baseline="alphabetic">/delete</text><text x="0" y="127.8375" font-family="Cascadia, Segoe UI Emoji" font-size="28px" fill="#1e1e1e" text-anchor="start" style="white-space: pre;" direction="ltr" dominant-baseline="alphabetic">/update/{id}</text><text x="0" y="161.4375" font-family="Cascadia, Segoe UI Emoji" font-size="28px" fill="#1e1e1e" text-anchor="start" style="white-space: pre;" direction="ltr" dominant-baseline="alphabetic">/populate</text></g><g stroke-linecap="round" transform="translate(1227.4999997460302 149.99999999999773) rotate(0 146.66666666666674 140)"><path d="M0 0 C102.27 0, 204.53 0, 293.33 0 M0 0 C91.01 0, 182.02 0, 293.33 0 M293.33 0 C293.33 109.61, 293.33 219.22, 293.33 280 M293.33 0 C293.33 92.31, 293.33 184.61, 293.33 280 M293.33 280 C177.7 280, 62.07 280, 0 280 M293.33 280 C202.64 280, 111.96 280, 0 280 M0 280 C0 197.68, 0 115.36, 0 0 M0 280 C0 175.59, 0 71.18, 0 0" stroke="#1e1e1e" stroke-width="1" fill="none"></path></g><g transform="translate(1258.151041412697 154.99999999999773) rotate(0 116.015625 21.59999999999991)"><text x="116.015625" y="34.762499999999996" font-family="Cascadia, Segoe UI Emoji" font-size="36px" fill="#1e1e1e" text-anchor="middle" style="white-space: pre;" direction="ltr" dominant-baseline="alphabetic">simulation/</text></g><g stroke-linecap="round" transform="translate(2874.1666664126956 136.6666666666656) rotate(0 163.33333333333348 143.33333333333326)"><path d="M0 0 C81.44 0, 162.88 0, 326.67 0 M0 0 C92.88 0, 185.77 0, 326.67 0 M326.67 0 C326.67 78.42, 326.67 156.84, 326.67 286.67 M326.67 0 C326.67 109.21, 326.67 218.41, 326.67 286.67 M326.67 286.67 C221.7 286.67, 116.73 286.67, 0 286.67 M326.67 286.67 C255.27 286.67, 183.88 286.67, 0 286.67 M0 286.67 C0 192.57, 0 98.47, 0 0 M0 286.67 C0 186.94, 0 87.22, 0 0" stroke="#1e1e1e" stroke-width="1" fill="none"></path></g><g transform="translate(2900.390624746029 141.6666666666656) rotate(0 137.109375 21.59999999999991)"><text x="137.109375" y="34.762499999999996" font-family="Cascadia, Segoe UI Emoji" font-size="36px" fill="#1e1e1e" text-anchor="middle" style="white-space: pre;" direction="ltr" dominant-baseline="alphabetic">subscription/</text></g><g transform="translate(2904.0624997460295 209.33333333333348) rotate(0 114.84375 84)"><text x="0" y="27.0375" font-family="Cascadia, Segoe UI Emoji" font-size="28px" fill="#1e1e1e" text-anchor="start" style="white-space: pre;" direction="ltr" dominant-baseline="alphabetic">/subscriptions</text><text x="0" y="60.6375" font-family="Cascadia, Segoe UI Emoji" font-size="28px" fill="#1e1e1e" text-anchor="start" style="white-space: pre;" direction="ltr" dominant-baseline="alphabetic">create</text><text x="0" y="94.23750000000001" font-family="Cascadia, Segoe UI Emoji" font-size="28px" fill="#1e1e1e" text-anchor="start" style="white-space: pre;" direction="ltr" dominant-baseline="alphabetic">/delete</text><text x="0" y="127.8375" font-family="Cascadia, Segoe UI Emoji" font-size="28px" fill="#1e1e1e" text-anchor="start" style="white-space: pre;" direction="ltr" dominant-baseline="alphabetic">/update/{id}</text><text x="0" y="161.4375" font-family="Cascadia, Segoe UI Emoji" font-size="28px" fill="#1e1e1e" text-anchor="start" style="white-space: pre;" direction="ltr" dominant-baseline="alphabetic">/populate</text></g><g stroke-linecap="round" transform="translate(776.9451384126979 1859.6666666031742) rotate(0 271.66666666666646 817.500000031746)"><path d="M32 0 C204.79 0.29, 377.68 0.26, 511.33 0 M511.33 0 C531.52 -1.09, 541.72 9.34, 543.33 32 M543.33 32 C545.43 468.64, 546.57 906.99, 543.33 1603 M543.33 1603 C543.74 1625.36, 534.29 1635.13, 511.33 1635 M511.33 1635 C348.28 1635.68, 183.41 1636.14, 32 1635 M32 1635 C9.95 1636.64, -1.33 1625.64, 0 1603 M0 1603 C1.58 1095.53, 0.81 587.65, 0 32 M0 32 C-0.9 9.13, 9.72 -0.51, 32 0" stroke="#e03131" stroke-width="4.5" fill="none" stroke-dasharray="8 12"></path></g><g stroke-linecap="round" transform="translate(716.1666664126982 1799.6666666666665) rotate(0 999.9999999999995 464.9999999999998)"><path d="M32 0 C471.45 1.81, 911.59 1, 1968 0 M1968 0 C1989.97 0.62, 1998.77 10.44, 2000 32 M2000 32 C1998.2 247.67, 1996.97 463.82, 2000 898 M2000 898 C2001.49 920.8, 1988.21 929.04, 1968 930 M1968 930 C1337.8 937.63, 706.71 937.4, 32 930 M32 930 C11.18 929.22, 0.13 917.34, 0 898 M0 898 C1.12 553.68, 1.09 209.79, 0 32 M0 32 C-1.27 10.23, 11.23 -1.73, 32 0" stroke="#2f9e44" stroke-width="4.5" fill="none" stroke-dasharray="8 12"></path></g><g stroke-linecap="round" transform="translate(2066.166666412697 1859.6666666666665) rotate(0 969.9999999999993 416.66666666666623)"><path d="M32 0 C734.2 -5.53, 1436.71 -4.18, 1908 0 M1908 0 C1930.26 -1.9, 1941.2 10, 1940 32 M1940 32 C1938.91 308.46, 1938.29 584.37, 1940 801.33 M1940 801.33 C1939.67 823.64, 1928.55 832.74, 1908 833.33 M1908 833.33 C1471.24 831.78, 1033.26 831.57, 32 833.33 M32 833.33 C10.4 832.27, 1.44 820.69, 0 801.33 M0 801.33 C2.98 592.21, 1.82 383.89, 0 32 M0 32 C-1.89 11.83, 12.1 -1.45, 32 0" stroke="#1971c2" stroke-width="4.5" fill="none" stroke-dasharray="8 12"></path></g><g stroke-linecap="round" transform="translate(852.611805079365 2123.833333333333) rotate(0 117.5833333333332 167.99999999999994)"><path d="M0 0 C68.72 -0.11, 139.39 0.29, 235.17 0 M0 0 C65.69 -0.65, 132.78 -1.07, 235.17 0 M235.17 0 C235.99 71.74, 236.81 145.62, 235.17 336 M235.17 0 C235.8 130.59, 236.67 261.86, 235.17 336 M235.17 336 C176.59 334.35, 117.92 334.49, 0 336 M235.17 336 C162.09 337.11, 89.57 336.6, 0 336 M0 336 C2.07 215.01, 0.2 91.26, 0 0 M0 336 C1.18 255.56, 0.9 174.97, 0 0" stroke="#1e1e1e" stroke-width="1" fill="none"></path></g><g transform="translate(912.7732634126983 2128.833333333333) rotate(0 57.421875 16.80000000000001)"><text x="57.421875" y="27.0375" font-family="Cascadia, Segoe UI Emoji" font-size="28px" fill="#1e1e1e" text-anchor="middle" style="white-space: pre;" direction="ltr" dominant-baseline="alphabetic">@Player</text></g><g stroke-linecap="round" transform="translate(1463.4998107460317 2095.903210333333) rotate(0 173.49999999999977 228.49999999999997)"><path d="M0 0 C112.01 -1.17, 221.72 0.05, 347 0 M0 0 C100.57 -0.28, 199.88 -0.68, 347 0 M347 0 C346.03 177.18, 345.29 357.14, 347 457 M347 0 C345.58 113.56, 345.7 227.23, 347 457 M347 457 C255.93 457.78, 165.53 457.52, 0 457 M347 457 C263.12 459.81, 178.95 459.83, 0 457 M0 457 C0.56 325.93, 0.05 193.71, 0 0 M0 457 C-1.35 325.95, -2.02 196.04, 0 0" stroke="#1e1e1e" stroke-width="1" fill="none"></path></g><g transform="translate(1546.7654357460315 2100.903210333333) rotate(0 90.234375 16.80000000000001)"><text x="90.234375" y="27.0375" font-family="Cascadia, Segoe UI Emoji" font-size="28px" fill="#1e1e1e" text-anchor="middle" style="white-space: pre;" direction="ltr" dominant-baseline="alphabetic">@Enrollment</text></g><g stroke-linecap="round" transform="translate(2163.333333079365 2119.666666666666) rotate(0 180.5 189.99999999999997)"><path d="M0 0 C80.6 0.28, 161.51 0.29, 361 0 M0 0 C73.46 1.4, 145.27 1.4, 361 0 M361 0 C362.97 127.98, 362.41 256.27, 361 380 M361 0 C362.97 91.66, 362.13 183.63, 361 380 M361 380 C288.48 380.42, 213.34 379.36, 0 380 M361 380 C282.75 380.63, 204.51 381.37, 0 380 M0 380 C-0.25 233.29, -1.3 86.91, 0 0 M0 380 C-1.96 275.55, -1.44 171.38, 0 0" stroke="#1e1e1e" stroke-width="1" fill="none"></path></g><g transform="translate(2237.192708079365 2124.666666666666) rotate(0 106.640625 16.80000000000001)"><text x="106.640625" y="27.0375" font-family="Cascadia, Segoe UI Emoji" font-size="28px" fill="#1e1e1e" text-anchor="middle" style="white-space: pre;" direction="ltr" dominant-baseline="alphabetic">@TrafficTrial</text></g><g stroke-linecap="round" transform="translate(3540.4999997460304 2141.8333333333335) rotate(0 184.75 159.50000000000006)"><path d="M0 0 C101.44 -2.8, 203.12 -2.02, 369.5 0 M0 0 C132.24 -0.31, 263.07 0.39, 369.5 0 M369.5 0 C368.83 98.5, 370.57 196.1, 369.5 319 M369.5 0 C369.7 68.53, 370.44 136.97, 369.5 319 M369.5 319 C264.78 318.65, 158.97 317.08, 0 319 M369.5 319 C276.94 318.68, 183.69 318.66, 0 319 M0 319 C0.19 200.58, -1.31 81.54, 0 0 M0 319 C1.01 236.9, 1.1 153.96, 0 0" stroke="#1e1e1e" stroke-width="1" fill="none"></path></g><g transform="translate(3635.0156247460304 2146.8333333333335) rotate(0 90.234375 16.80000000000001)"><text x="90.234375" y="27.0375" font-family="Cascadia, Segoe UI Emoji" font-size="28px" fill="#1e1e1e" text-anchor="middle" style="white-space: pre;" direction="ltr" dominant-baseline="alphabetic">@University</text></g><g stroke-linecap="round" transform="translate(2776.9999997460322 2018.8333333333326) rotate(0 257.4999999999991 203.74999999999983)"><path d="M32 0 C194.89 -0.35, 358.22 1.1, 483 0 M483 0 C503.21 -0.51, 514.34 11.27, 515 32 M515 32 C513.92 127.26, 513.91 221.63, 515 375.5 M515 375.5 C513.87 398.1, 504.55 408.58, 483 407.5 M483 407.5 C373.49 408.09, 262.07 409.28, 32 407.5 M32 407.5 C11.62 407.23, -1.27 397.77, 0 375.5 M0 375.5 C1.57 249.83, -0.79 125.35, 0 32 M0 32 C-1.25 10.2, 8.99 1.59, 32 0" stroke="#1e1e1e" stroke-width="1.5" fill="none" stroke-dasharray="8 9"></path></g><g transform="translate(2804.8124997460313 2023.8333333333326) rotate(0 229.6875 16.80000000000001)"><text x="229.6875" y="27.0375" font-family="Cascadia, Segoe UI Emoji" font-size="28px" fill="#1e1e1e" text-anchor="middle" style="white-space: pre;" direction="ltr" dominant-baseline="alphabetic">TRAFFIC_TRIAL_UNIVERSITY_FKS</text></g><g stroke-linecap="round" transform="translate(852.6118054126982 2883.666666333332) rotate(0 124.58333333333326 143.33333333333326)"><path d="M0 0 C75.08 -0.68, 149.66 1.33, 249.17 0 M0 0 C85.89 -0.74, 172.12 -1.7, 249.17 0 M249.17 0 C249.49 74.24, 248.91 150.79, 249.17 286.67 M249.17 0 C251.78 82.75, 251.46 167.07, 249.17 286.67 M249.17 286.67 C177.24 287.1, 105.36 287.01, 0 286.67 M249.17 286.67 C198.23 285.75, 147.68 284.52, 0 286.67 M0 286.67 C2.18 209.68, 1.38 131.41, 0 0 M0 286.67 C0.8 199.55, 0.71 112.96, 0 0" stroke="#1e1e1e" stroke-width="1" fill="none"></path></g><g transform="translate(878.7576387460315 2888.666666333332) rotate(0 98.4375 16.799999999999997)"><text x="98.4375" y="27.0375" font-family="Cascadia, Segoe UI Emoji" font-size="28px" fill="#1e1e1e" text-anchor="middle" style="white-space: pre;" direction="ltr" dominant-baseline="alphabetic">@ImagePlayer</text></g><g mask="url(#mask-KZyWnbg1sGh5u4lMMk-gP)" stroke-linecap="round"><g transform="translate(1106.278471746031 2156.993854728504) rotate(0 165.6106695000001 -16.460475222145135)"><path d="M0 0 C94.61 -6.86, 189.5 -17.51, 331.22 -32.92 M0 0 C107.71 -10.65, 214.25 -21.78, 331.22 -32.92" stroke="#1e1e1e" stroke-width="1" fill="none"></path></g></g><mask id="mask-KZyWnbg1sGh5u4lMMk-gP"><rect x="0" y="0" fill="#fff" width="1537.4998107460312" height="2289.9148051727943"></rect><rect x="1247.2797662460314" y="2123.733379506359" fill="#000" width="49.21875" height="33.6" opacity="1"></rect></mask><g transform="translate(1247.2797662460314 2123.7333795063587) rotate(0 24.60937499999997 16.80000000000001)"><text x="24.609375" y="27.0375" font-family="Cascadia, Segoe UI Emoji" font-size="28px" fill="#1e1e1e" text-anchor="middle" style="white-space: pre;" direction="ltr" dominant-baseline="alphabetic">1:n</text></g><g mask="url(#mask-dGSnhQU5s9X940ERmJUY2)" stroke-linecap="round"><g transform="translate(1833.3331440793643 2134.128192740863) rotate(0 152.66676116666667 8.690008533704031)"><path d="M0 0 C105.52 6.61, 212.28 12.89, 305.33 17.38 M0 0 C78.14 3.09, 156.42 6.95, 305.33 17.38" stroke="#1e1e1e" stroke-width="1" fill="none"></path></g></g><mask id="mask-dGSnhQU5s9X940ERmJUY2"><rect x="0" y="0" fill="#fff" width="2238.666666412698" height="2251.508209808271"></rect><rect x="1961.390530246031" y="2126.018201274567" fill="#000" width="49.21875" height="33.6" opacity="1"></rect></mask><g transform="translate(1961.3905302460307 2126.018201274567) rotate(0 24.609375 16.799999999999955)"><text x="24.609375" y="27.0375" font-family="Cascadia, Segoe UI Emoji" font-size="28px" fill="#1e1e1e" text-anchor="middle" style="white-space: pre;" direction="ltr" dominant-baseline="alphabetic">n:1</text></g><g mask="url(#mask-GqVy7sZ-rd24U5EKXXpvU)" stroke-linecap="round"><g transform="translate(949.6496629300391 2473.833333333333) rotate(0 -1.2434497875801753e-14 191.24999999999972)"><path d="M0 0 C-1.26 126.29, -2.41 253.82, 0 382.5 M0 0 C-1.11 84.55, -0.71 169.96, 0 382.5" stroke="#1e1e1e" stroke-width="1" fill="none"></path></g></g><mask id="mask-GqVy7sZ-rd24U5EKXXpvU"><rect x="0" y="0" fill="#fff" width="1049.649662930039" height="2956.3333333333326"></rect><rect x="925.0402879300391" y="2648.283333333333" fill="#000" width="49.21875" height="33.6" opacity="1"></rect></mask><g transform="translate(925.0402879300391 2648.283333333333) rotate(0 23.904490758338714 16.80000000000001)"><text x="24.609375" y="27.0375" font-family="Cascadia, Segoe UI Emoji" font-size="28px" fill="#1e1e1e" text-anchor="middle" style="white-space: pre;" direction="ltr" dominant-baseline="alphabetic">1:n</text></g><g mask="url(#mask-605DVLv5zTO_XbmN0oSlv)" stroke-linecap="round"><g transform="translate(1021.7445227186595 2487.57524562477) rotate(0 600.2498353073222 63.545710520948006)"><path d="M0 0 C-2.98 39.07, -2.26 76.34, 0 127.09 M0 127.09 C352.96 128.47, 708.02 127.9, 1200.09 127.09 M1200.09 127.09 C1199.94 94.78, 1201.71 63.7, 1200.5 33.67" stroke="#1e1e1e" stroke-width="1.5" fill="none" stroke-dasharray="8 9"></path></g></g><mask id="mask-605DVLv5zTO_XbmN0oSlv"><rect x="0" y="0" fill="#fff" width="2322.244193333304" height="2714.666666666666"></rect><rect x="1598.4510372740117" y="2598.566666666666" fill="#000" width="46.67578125" height="32.199999999999996" opacity="1"></rect></mask><g transform="translate(1598.4510372740117 2598.566666666666) rotate(0 22.77040462588252 -47.02848991264419)"><text x="23.337890625" y="25.760546874999996" font-family="Helvetica, Segoe UI Emoji" font-size="28px" fill="#1e1e1e" text-anchor="middle" style="white-space: pre;" direction="ltr" dominant-baseline="alphabetic">n:m</text></g><g transform="translate(874.8565967460318 2173.2333333333327) rotate(0 98.4375 100.80000000000001)"><text x="0" y="27.0375" font-family="Cascadia, Segoe UI Emoji" font-size="28px" fill="#1e1e1e" text-anchor="start" style="white-space: pre;" direction="ltr" dominant-baseline="alphabetic">id</text><text x="0" y="60.6375" font-family="Cascadia, Segoe UI Emoji" font-size="28px" fill="#1e1e1e" text-anchor="start" style="white-space: pre;" direction="ltr" dominant-baseline="alphabetic">player</text><text x="0" y="94.23750000000001" font-family="Cascadia, Segoe UI Emoji" font-size="28px" fill="#1e1e1e" text-anchor="start" style="white-space: pre;" direction="ltr" dominant-baseline="alphabetic">age</text><text x="0" y="127.8375" font-family="Cascadia, Segoe UI Emoji" font-size="28px" fill="#1e1e1e" text-anchor="start" style="white-space: pre;" direction="ltr" dominant-baseline="alphabetic">isActive</text><text x="0" y="161.4375" font-family="Cascadia, Segoe UI Emoji" font-size="28px" fill="#1e1e1e" text-anchor="start" style="white-space: pre;" direction="ltr" dominant-baseline="alphabetic">idImage</text><text x="0" y="195.0375" font-family="Cascadia, Segoe UI Emoji" font-size="28px" fill="#1e1e1e" text-anchor="start" style="white-space: pre;" direction="ltr" dominant-baseline="alphabetic">List&lt;String&gt;</text></g><g transform="translate(1501.7446024126978 2144.169877) rotate(0 65.625 84)"><text x="0" y="27.0375" font-family="Cascadia, Segoe UI Emoji" font-size="28px" fill="#1e1e1e" text-anchor="start" style="white-space: pre;" direction="ltr" dominant-baseline="alphabetic">id</text><text x="0" y="60.6375" font-family="Cascadia, Segoe UI Emoji" font-size="28px" fill="#1e1e1e" text-anchor="start" style="white-space: pre;" direction="ltr" dominant-baseline="alphabetic">joinDate</text><text x="0" y="94.23750000000001" font-family="Cascadia, Segoe UI Emoji" font-size="28px" fill="#1e1e1e" text-anchor="start" style="white-space: pre;" direction="ltr" dominant-baseline="alphabetic">salary</text><text x="0" y="127.8375" font-family="Cascadia, Segoe UI Emoji" font-size="28px" fill="#1e1e1e" text-anchor="start" style="white-space: pre;" direction="ltr" dominant-baseline="alphabetic">status</text><text x="0" y="161.4375" font-family="Cascadia, Segoe UI Emoji" font-size="28px" fill="#1e1e1e" text-anchor="start" style="white-space: pre;" direction="ltr" dominant-baseline="alphabetic">isActive</text></g><g transform="translate(3593.8229164126965 2227.4666666666667) rotate(0 114.84375 67.19999999999999)"><text x="0" y="27.0375" font-family="Cascadia, Segoe UI Emoji" font-size="28px" fill="#1e1e1e" text-anchor="start" style="white-space: pre;" direction="ltr" dominant-baseline="alphabetic">id</text><text x="0" y="60.6375" font-family="Cascadia, Segoe UI Emoji" font-size="28px" fill="#1e1e1e" text-anchor="start" style="white-space: pre;" direction="ltr" dominant-baseline="alphabetic">universityName</text><text x="0" y="94.23750000000001" font-family="Cascadia, Segoe UI Emoji" font-size="28px" fill="#1e1e1e" text-anchor="start" style="white-space: pre;" direction="ltr" dominant-baseline="alphabetic">department</text><text x="0" y="127.8375" font-family="Cascadia, Segoe UI Emoji" font-size="28px" fill="#1e1e1e" text-anchor="start" style="white-space: pre;" direction="ltr" dominant-baseline="alphabetic">yearFoundation</text></g><g transform="translate(2202.208333079364 2181.066666666666) rotate(0 131.25 134.4)"><text x="0" y="27.0375" font-family="Cascadia, Segoe UI Emoji" font-size="28px" fill="#1e1e1e" text-anchor="start" style="white-space: pre;" direction="ltr" dominant-baseline="alphabetic">id</text><text x="0" y="60.6375" font-family="Cascadia, Segoe UI Emoji" font-size="28px" fill="#1e1e1e" text-anchor="start" style="white-space: pre;" direction="ltr" dominant-baseline="alphabetic">initDate</text><text x="0" y="94.23750000000001" font-family="Cascadia, Segoe UI Emoji" font-size="28px" fill="#1e1e1e" text-anchor="start" style="white-space: pre;" direction="ltr" dominant-baseline="alphabetic">endingDate</text><text x="0" y="127.8375" font-family="Cascadia, Segoe UI Emoji" font-size="28px" fill="#1e1e1e" text-anchor="start" style="white-space: pre;" direction="ltr" dominant-baseline="alphabetic">budget</text><text x="0" y="161.4375" font-family="Cascadia, Segoe UI Emoji" font-size="28px" fill="#1e1e1e" text-anchor="start" style="white-space: pre;" direction="ltr" dominant-baseline="alphabetic">mainInvestigator</text><text x="0" y="195.0375" font-family="Cascadia, Segoe UI Emoji" font-size="28px" fill="#1e1e1e" text-anchor="start" style="white-space: pre;" direction="ltr" dominant-baseline="alphabetic">qty</text><text x="0" y="228.63750000000002" font-family="Cascadia, Segoe UI Emoji" font-size="28px" fill="#1e1e1e" text-anchor="start" style="white-space: pre;" direction="ltr" dominant-baseline="alphabetic">status</text><text x="0" y="262.2375" font-family="Cascadia, Segoe UI Emoji" font-size="28px" fill="#1e1e1e" text-anchor="start" style="white-space: pre;" direction="ltr" dominant-baseline="alphabetic">description</text></g><g transform="translate(881.1534720793645 2945.899999666666) rotate(0 73.828125 100.80000000000001)"><text x="0" y="27.0375" font-family="Cascadia, Segoe UI Emoji" font-size="28px" fill="#1e1e1e" text-anchor="start" style="white-space: pre;" direction="ltr" dominant-baseline="alphabetic">id</text><text x="0" y="60.6375" font-family="Cascadia, Segoe UI Emoji" font-size="28px" fill="#1e1e1e" text-anchor="start" style="white-space: pre;" direction="ltr" dominant-baseline="alphabetic">idPlayer</text><text x="0" y="94.23750000000001" font-family="Cascadia, Segoe UI Emoji" font-size="28px" fill="#1e1e1e" text-anchor="start" style="white-space: pre;" direction="ltr" dominant-baseline="alphabetic">nameImage</text><text x="0" y="127.8375" font-family="Cascadia, Segoe UI Emoji" font-size="28px" fill="#1e1e1e" text-anchor="start" style="white-space: pre;" direction="ltr" dominant-baseline="alphabetic">type</text><text x="0" y="161.4375" font-family="Cascadia, Segoe UI Emoji" font-size="28px" fill="#1e1e1e" text-anchor="start" style="white-space: pre;" direction="ltr" dominant-baseline="alphabetic">size</text><text x="0" y="195.0375" font-family="Cascadia, Segoe UI Emoji" font-size="28px" fill="#1e1e1e" text-anchor="start" style="white-space: pre;" direction="ltr" dominant-baseline="alphabetic">imageData</text></g><g mask="url(#mask-JC4dlqKemtOIHwZOIaQNA)" stroke-linecap="round"><g transform="translate(1121.9451384126976 3096.3135127765718) rotate(0 49.94409733333336 61.551528016746204)"><path d="M0 0 C30.86 1.14, 64.21 1.12, 99.89 0 M0 0 C27.91 -1.36, 55.4 -0.62, 99.89 0 M99.89 0 C97.73 28.07, 97.54 51.58, 98.5 123.1 M99.89 0 C97.48 45.26, 97.83 90.26, 98.5 123.1" stroke="#1e1e1e" stroke-width="1" fill="none"></path></g></g><mask id="mask-JC4dlqKemtOIHwZOIaQNA"><rect x="0" y="0" fill="#fff" width="1321.8333330793644" height="3319.4165688100643"></rect><rect x="1148.0052080793644" y="3079.513512776572" fill="#000" width="147.65625" height="33.6" opacity="1"></rect></mask><g transform="translate(1148.0052080793644 3079.513512776572) rotate(0 23.88402766666664 77.9674361778124)"><text x="73.828125" y="27.0375" font-family="Cascadia, Segoe UI Emoji" font-size="28px" fill="#1e1e1e" text-anchor="middle" style="white-space: pre;" direction="ltr" dominant-baseline="alphabetic">@Document</text></g><g stroke-linecap="round"><g transform="translate(2539.3013953173954 2449.3128128388344) rotate(0 19.43659932178116 0.5328447757649997)"><path d="M0 0 C13.62 1.05, 25.57 0.79, 38.87 1.07 M0 0 C13.6 0.23, 25.86 0.37, 38.87 1.07" stroke="#1e1e1e" stroke-width="1" fill="none"></path></g></g><mask></mask><g stroke-linecap="round"><g transform="translate(3516.4007314771875 2459.72483194698) rotate(0 -38.6639248634865 11.959747569815505)"><path d="M0 0 C-32.34 8.01, -60.34 19.68, -77.33 23.92 M0 0 C-19.19 4.99, -37.15 10.88, -77.33 23.92" stroke="#1e1e1e" stroke-width="1" fill="none"></path></g></g><mask></mask><g mask="url(#mask-7iP6JkQAo-ZbGURmY7gLK)" stroke-linecap="round"><g transform="translate(2543.24999974603 2148.2162960849755) rotate(0 489.7649238710119 12.386663764687796)"><path d="M0 0 C307.37 5.05, 614.29 13.15, 979.53 24.77 M0 0 C362.13 9.61, 724.93 19.32, 979.53 24.77" stroke="#1e1e1e" stroke-width="1" fill="none"></path></g></g><mask id="mask-7iP6JkQAo-ZbGURmY7gLK"><rect x="0" y="0" fill="#fff" width="3622.7798474880537" height="2272.9896236143513"></rect><rect x="3008.4055486170414" y="2143.8029598496632" fill="#000" width="49.21875" height="33.6" opacity="1"></rect></mask><g transform="translate(3008.4055486170423 2143.8029598496637) rotate(0 24.609375 16.799999999999955)"><text x="24.609375" y="27.0375" font-family="Cascadia, Segoe UI Emoji" font-size="28px" fill="#1e1e1e" text-anchor="middle" style="white-space: pre;" direction="ltr" dominant-baseline="alphabetic">n:m</text></g><g stroke-linecap="round"><g transform="translate(3347.815104238835 2496.1710460877985) rotate(0 44.76949610193037 48.621918424596345)"><path d="M-0.58 -0.79 C-0.47 13.52, -0.46 70.34, -0.28 86.69 C-0.1 103.05, -0.39 94.91, 0.51 97.36 C1.42 99.8, 1.82 100.09, 5.15 101.37 C8.49 102.64, 13.41 104.05, 20.52 105.01 C27.64 105.96, 38.92 107.32, 47.83 107.09 C56.75 106.85, 67.63 104.72, 74.02 103.59 C80.42 102.47, 83.55 101.45, 86.21 100.33 C88.88 99.2, 89.37 98.8, 90.02 96.84 C90.66 94.89, 90.2 103.45, 90.09 88.59 C89.99 73.74, 89.62 22.61, 89.39 7.7 C89.17 -7.2, 89.68 1.09, 88.73 -0.84 C87.79 -2.77, 86.79 -2.78, 83.74 -3.89 C80.68 -4.99, 77.04 -6.51, 70.4 -7.47 C63.75 -8.44, 52.1 -9.71, 43.88 -9.68 C35.67 -9.65, 27.68 -8.14, 21.12 -7.3 C14.56 -6.45, 8.04 -5.81, 4.55 -4.62 C1.06 -3.43, 0.87 -0.76, 0.19 -0.17 C-0.48 0.42, 0.55 -1.3, 0.52 -1.07 M1.31 1.41 C1.31 15.78, -1.31 71.63, -1.53 87.84 C-1.75 104.05, -1.19 96.25, 0.01 98.66 C1.21 101.07, 2.52 101.21, 5.68 102.3 C8.85 103.39, 11.72 104.55, 18.99 105.22 C26.26 105.9, 39.98 106.35, 49.3 106.37 C58.61 106.39, 68.39 106.41, 74.88 105.35 C81.37 104.28, 85.93 101.62, 88.24 99.99 C90.55 98.36, 88.23 97.53, 88.71 95.54 C89.19 93.56, 90.96 102.55, 91.13 88.1 C91.3 73.66, 90.37 23.82, 89.73 8.88 C89.08 -6.06, 88.14 0.68, 87.24 -1.52 C86.33 -3.72, 87.26 -3.26, 84.28 -4.32 C81.31 -5.37, 76 -6.82, 69.37 -7.84 C62.73 -8.87, 52.35 -10.23, 44.47 -10.48 C36.59 -10.73, 28.89 -10.37, 22.09 -9.35 C15.29 -8.32, 7.51 -5.91, 3.67 -4.33 C-0.17 -2.75, -0.25 -0.35, -0.96 0.14 C-1.67 0.63, -0.85 -1.36, -0.59 -1.38" stroke="#1e1e1e" stroke-width="1" fill="none"></path></g></g><mask></mask><g stroke-linecap="round" transform="translate(3347.2404100407853 2485.9605336036216) rotate(0 44.53049162067191 9.005956913636624)"><path d="M49.01 0 C57.3 0.02, 67.61 1.13, 74.16 2.35 C80.72 3.56, 86.57 5.65, 88.34 7.29 C90.11 8.93, 88.37 10.55, 84.78 12.18 C81.2 13.81, 74.29 16.09, 66.83 17.09 C59.36 18.09, 48.66 18.4, 39.98 18.17 C31.3 17.94, 21.21 16.94, 14.73 15.71 C8.26 14.49, 2.98 12.5, 1.13 10.82 C-0.72 9.13, 0.06 7.25, 3.63 5.6 C7.2 3.96, 14.83 1.84, 22.55 0.95 C30.27 0.06, 45.25 0.39, 49.94 0.27 C54.63 0.15, 50.71 0.05, 50.69 0.22 M36.79 -0.52 C44.81 -0.81, 55.98 0.73, 63.77 1.62 C71.56 2.51, 79.44 3.31, 83.53 4.81 C87.62 6.31, 89.55 8.78, 88.31 10.62 C87.07 12.46, 82.13 14.52, 76.08 15.84 C70.03 17.16, 60.61 18.42, 52.03 18.55 C43.45 18.67, 32.33 17.47, 24.6 16.57 C16.87 15.66, 9.78 14.47, 5.64 13.12 C1.5 11.77, -1.4 10.14, -0.24 8.47 C0.92 6.8, 6.58 4.4, 12.61 3.1 C18.63 1.81, 31.96 1.2, 35.92 0.68 C39.88 0.17, 36.19 0.04, 36.38 0.01" stroke="#1e1e1e" stroke-width="1" fill="none"></path></g><g transform="translate(3375.3333330793635 2542.166666666667) rotate(0 17.896484375 16.099999999999994)"><text x="0" y="25.760546874999996" font-family="Helvetica, Segoe UI Emoji" font-size="28px" fill="#1e1e1e" text-anchor="start" style="white-space: pre;" direction="ltr" dominant-baseline="alphabetic">H2</text></g><g stroke-linecap="round"><g transform="translate(2583.047092793487 2456.3905463314914) rotate(0 44.76949610193037 48.621918424596345)"><path d="M1.01 0.7 C1.24 15.35, 0.53 71, 0.44 87.04 C0.35 103.08, -0.31 94.59, 0.48 96.94 C1.26 99.28, 1.87 99.82, 5.14 101.12 C8.4 102.42, 12.9 103.91, 20.08 104.74 C27.26 105.58, 39.25 106.28, 48.23 106.14 C57.21 106, 67.47 104.94, 73.96 103.9 C80.44 102.86, 84.56 100.94, 87.15 99.9 C89.74 98.86, 89.1 99.7, 89.49 97.65 C89.87 95.61, 89.45 102.7, 89.46 87.64 C89.47 72.58, 89.75 21.83, 89.53 7.29 C89.32 -7.26, 89.11 2.47, 88.19 0.37 C87.27 -1.74, 86.78 -4.25, 84.04 -5.33 C81.3 -6.41, 78.55 -5.52, 71.78 -6.1 C65 -6.68, 51.97 -8.37, 43.41 -8.82 C34.85 -9.27, 27.13 -9.71, 20.42 -8.8 C13.71 -7.9, 6.41 -4.81, 3.13 -3.39 C-0.14 -1.97, 1.31 -0.73, 0.78 -0.28 C0.26 0.17, 0.19 -0.88, -0.03 -0.69 M0.08 0.02 C0.25 14.91, -0.41 72.04, -0.43 88.37 C-0.45 104.7, -1.06 95.75, -0.05 98.01 C0.97 100.27, 1.99 100.79, 5.65 101.93 C9.32 103.06, 15.21 104.33, 21.97 104.83 C28.74 105.33, 37.44 104.76, 46.24 104.93 C55.04 105.09, 68.15 106.75, 74.78 105.81 C81.4 104.88, 83.81 100.84, 86 99.34 C88.19 97.83, 87.22 98.29, 87.91 96.78 C88.6 95.28, 89.82 105.07, 90.16 90.31 C90.5 75.55, 89.95 23.24, 89.94 8.25 C89.92 -6.75, 90.93 2.17, 90.07 0.32 C89.2 -1.53, 87.84 -1.85, 84.74 -2.86 C81.64 -3.87, 78.3 -4.69, 71.47 -5.75 C64.64 -6.8, 52.15 -8.8, 43.74 -9.17 C35.34 -9.54, 27.45 -9.1, 21.02 -7.99 C14.59 -6.87, 8.69 -3.79, 5.17 -2.46 C1.66 -1.13, 1.04 -0.31, -0.06 -0.03 C-1.16 0.25, -1.39 -0.73, -1.44 -0.8" stroke="#1e1e1e" stroke-width="1" fill="none"></path></g></g><mask></mask><g stroke-linecap="round" transform="translate(2582.4723985954374 2446.180033847314) rotate(0 44.530491620671796 9.005956913636624)"><path d="M48.58 -0.19 C56.88 -0.16, 67.26 1.24, 73.81 2.47 C80.35 3.7, 86 5.53, 87.87 7.2 C89.75 8.87, 88.53 10.9, 85.04 12.51 C81.56 14.11, 74.34 15.94, 66.94 16.84 C59.54 17.74, 49.38 18.09, 40.65 17.92 C31.92 17.75, 21.19 17.03, 14.58 15.82 C7.98 14.61, 2.8 12.33, 1.03 10.66 C-0.73 8.99, 0.56 7.3, 4 5.79 C7.44 4.27, 13.9 2.51, 21.66 1.56 C29.42 0.61, 45.6 0.35, 50.57 0.08 C55.54 -0.19, 51.7 -0.16, 51.48 -0.06 M47.77 -0.41 C55.94 -0.29, 66.24 1.42, 72.93 2.67 C79.63 3.93, 85.76 5.38, 87.92 7.12 C90.08 8.86, 89.17 11.5, 85.86 13.11 C82.55 14.72, 75.47 16, 68.06 16.79 C60.66 17.58, 50.25 17.91, 41.43 17.83 C32.61 17.74, 21.97 17.5, 15.15 16.28 C8.34 15.06, 2.48 12.37, 0.55 10.53 C-1.37 8.69, 0.27 6.84, 3.6 5.24 C6.94 3.64, 13.16 1.82, 20.57 0.92 C27.98 0.02, 43.6 0.04, 48.05 -0.15 C52.5 -0.34, 47.26 -0.44, 47.29 -0.21" stroke="#1e1e1e" stroke-width="1" fill="none"></path></g><g transform="translate(2610.565321634016 2502.3861669103594) rotate(0 17.896484375 16.099999999999994)"><text x="0" y="25.760546874999996" font-family="Helvetica, Segoe UI Emoji" font-size="28px" fill="#1e1e1e" text-anchor="start" style="white-space: pre;" direction="ltr" dominant-baseline="alphabetic">H2</text></g><g stroke-linecap="round"><g transform="translate(1155.1101340618359 3240.8716508029324) rotate(0 55.5465505584437 60.32634014622997)"><path d="M0 0 C0.1 29.36, 0.2 58.71, 0.37 108.49 M0 0 C0.09 27.17, 0.18 54.34, 0.37 108.49 M0.37 108.49 C0.24 112.93, 0.12 117.37, 0.02 120.84 M0.37 108.49 C0.27 111.93, 0.17 115.38, 0.02 120.84 M0.02 120.84 C1.9 122.6, 3.79 124.36, 5.73 126.17 M0.02 120.84 C2.28 122.95, 4.54 125.06, 5.73 126.17 M5.73 126.17 C10.2 127.19, 14.68 128.21, 25.61 130.69 M5.73 126.17 C10.05 127.15, 14.38 128.14, 25.61 130.69 M25.61 130.69 C34.62 131.07, 43.62 131.44, 59.23 132.1 M25.61 130.69 C38.79 131.24, 51.96 131.79, 59.23 132.1 M59.23 132.1 C66.02 131.62, 72.81 131.15, 91.35 129.85 M59.23 132.1 C68.97 131.41, 78.7 130.73, 91.35 129.85 M91.35 129.85 C97.91 127.78, 104.48 125.72, 108.41 124.48 M91.35 129.85 C96.01 128.38, 100.68 126.91, 108.41 124.48 M108.41 124.48 C108.99 123.4, 109.56 122.31, 110.82 119.95 M108.41 124.48 C109.05 123.28, 109.69 122.07, 110.82 119.95 M110.82 119.95 C110.95 116.02, 111.08 112.08, 111.15 110.01 M110.82 119.95 C110.91 117.07, 111.01 114.19, 111.15 110.01 M111.15 110.01 C111.05 70.55, 110.95 31.09, 110.89 9.1 M111.15 110.01 C111.07 79.73, 110.99 49.45, 110.89 9.1 M110.89 9.1 C110.69 6, 110.5 2.9, 110.29 -0.43 M110.89 9.1 C110.77 7.15, 110.64 5.21, 110.29 -0.43 M110.29 -0.43 C108.8 -1.54, 107.31 -2.65, 103.15 -5.76 M110.29 -0.43 C107.7 -2.37, 105.11 -4.3, 103.15 -5.76 M103.15 -5.76 C100.02 -6.4, 96.89 -7.05, 88.11 -8.85 M103.15 -5.76 C97.22 -6.98, 91.3 -8.19, 88.11 -8.85 M88.11 -8.85 C74.57 -9.87, 61.04 -10.9, 53.84 -11.44 M88.11 -8.85 C78.65 -9.56, 69.18 -10.28, 53.84 -11.44 M53.84 -11.44 C43.1 -10.84, 32.35 -10.23, 26.37 -9.9 M53.84 -11.44 C44.2 -10.9, 34.56 -10.36, 26.37 -9.9 M26.37 -9.9 C19.55 -8.24, 12.73 -6.58, 4.76 -4.65 M26.37 -9.9 C21.48 -8.71, 16.59 -7.52, 4.76 -4.65 M4.76 -4.65 C3.64 -3.58, 2.52 -2.52, -0.06 -0.07 M4.76 -4.65 C2.93 -2.9, 1.1 -1.16, -0.06 -0.07 M-0.06 -0.07 C-0.04 -0.05, -0.02 -0.03, 0 0 M-0.06 -0.07 C-0.04 -0.05, -0.03 -0.03, 0 0" stroke="#1e1e1e" stroke-width="1" fill="none"></path></g></g><mask></mask><g stroke-linecap="round" transform="translate(1154.3970976618966 3228.2032315149722) rotate(0 55.25001216382576 11.17389929722512)"><path d="M110.5 11.17 C110.5 11.7, 110.31 12.24, 109.94 12.76 C109.56 13.29, 109 13.81, 108.26 14.32 C107.52 14.83, 106.6 15.33, 105.51 15.82 C104.42 16.3, 103.15 16.77, 101.73 17.21 C100.31 17.66, 98.72 18.09, 97.01 18.49 C95.29 18.89, 93.41 19.27, 91.43 19.62 C89.45 19.97, 87.33 20.29, 85.12 20.57 C82.92 20.86, 80.59 21.12, 78.2 21.34 C75.82 21.56, 73.33 21.75, 70.82 21.9 C68.3 22.04, 65.71 22.16, 63.11 22.23 C60.52 22.31, 57.87 22.35, 55.25 22.35 C52.63 22.35, 49.98 22.31, 47.39 22.23 C44.79 22.16, 42.2 22.04, 39.68 21.9 C37.17 21.75, 34.68 21.56, 32.3 21.34 C29.91 21.12, 27.58 20.86, 25.38 20.57 C23.17 20.29, 21.05 19.97, 19.07 19.62 C17.09 19.27, 15.21 18.89, 13.49 18.49 C11.78 18.09, 10.19 17.66, 8.77 17.21 C7.35 16.77, 6.08 16.3, 4.99 15.82 C3.9 15.33, 2.98 14.83, 2.24 14.32 C1.5 13.81, 0.94 13.29, 0.56 12.76 C0.19 12.24, 0 11.7, 0 11.17 C0 10.64, 0.19 10.11, 0.56 9.58 C0.94 9.06, 1.5 8.53, 2.24 8.03 C2.98 7.52, 3.9 7.01, 4.99 6.53 C6.08 6.05, 7.35 5.58, 8.77 5.13 C10.19 4.69, 11.78 4.26, 13.49 3.86 C15.21 3.46, 17.09 3.08, 19.07 2.73 C21.05 2.38, 23.17 2.06, 25.38 1.77 C27.58 1.49, 29.91 1.23, 32.3 1.01 C34.68 0.79, 37.17 0.6, 39.68 0.45 C42.2 0.3, 44.79 0.19, 47.39 0.11 C49.98 0.04, 52.63 0, 55.25 0 C57.87 0, 60.52 0.04, 63.11 0.11 C65.71 0.19, 68.3 0.3, 70.82 0.45 C73.33 0.6, 75.82 0.79, 78.2 1.01 C80.59 1.23, 82.92 1.49, 85.12 1.77 C87.33 2.06, 89.45 2.38, 91.43 2.73 C93.41 3.08, 95.29 3.46, 97.01 3.86 C98.72 4.26, 100.31 4.69, 101.73 5.13 C103.15 5.58, 104.42 6.05, 105.51 6.53 C106.6 7.01, 107.52 7.52, 108.26 8.03 C109 8.53, 109.56 9.06, 109.94 9.58 C110.31 10.11, 110.41 10.91, 110.5 11.17 C110.59 11.44, 110.59 10.91, 110.5 11.17" stroke="#1e1e1e" stroke-width="1" fill="none"></path></g><g transform="translate(1164.2784720793638 3275.3333329999996) rotate(0 42.806640624999986 32.20000000000002)"><text x="42.806640625" y="25.760546874999996" font-family="Helvetica, Segoe UI Emoji" font-size="28px" fill="#1e1e1e" text-anchor="middle" style="white-space: pre;" direction="ltr" dominant-baseline="alphabetic">Mongo</text><text x="42.806640625" y="57.96054687499999" font-family="Helvetica, Segoe UI Emoji" font-size="28px" fill="#1e1e1e" text-anchor="middle" style="white-space: pre;" direction="ltr" dominant-baseline="alphabetic">DB</text></g><g stroke-linecap="round"><g transform="translate(1820.0007966981925 2469.14675542609) rotate(0 40.307142268584926 0.8612032310703057)"><path d="M0 0 C32.49 -1.47, 64 -0.38, 80.61 1.72 M0 0 C26.71 1.25, 52.91 2.22, 80.61 1.72" stroke="#1e1e1e" stroke-width="1" fill="none"></path></g></g><mask></mask><g stroke-linecap="round"><g transform="translate(1906.2464941742837 2468.2625565415983) rotate(0 44.76949610193037 48.621918424596345)"><path d="M-0.85 0.33 C-1.08 14.88, -0.33 71.6, -0.31 87.75 C-0.28 103.9, -1.58 94.78, -0.68 97.21 C0.22 99.65, 1.5 100.83, 5.12 102.38 C8.74 103.92, 13.85 105.89, 21.04 106.51 C28.23 107.12, 39.4 106.32, 48.27 106.07 C57.14 105.82, 67.77 105.85, 74.25 104.98 C80.73 104.11, 84.64 102.06, 87.15 100.84 C89.67 99.63, 88.87 99.67, 89.33 97.69 C89.8 95.7, 89.88 103.92, 89.95 88.93 C90.01 73.93, 90.09 22.41, 89.74 7.71 C89.4 -6.99, 88.89 2.63, 87.87 0.73 C86.85 -1.17, 86.61 -2.55, 83.63 -3.69 C80.64 -4.83, 76.51 -5.38, 69.97 -6.12 C63.43 -6.86, 52.41 -8, 44.39 -8.12 C36.37 -8.25, 28.69 -7.56, 21.85 -6.87 C15 -6.19, 7.18 -5.24, 3.33 -4 C-0.52 -2.77, -0.72 0.06, -1.25 0.53 C-1.77 1, 0 -0.97, 0.19 -1.17 M0.91 -0.55 C0.98 13.58, 2.54 69.3, 2.09 85.79 C1.64 102.29, -2.4 96.04, -1.81 98.44 C-1.22 100.83, 2.04 99.28, 5.64 100.18 C9.23 101.08, 13 103.08, 19.78 103.85 C26.55 104.63, 37.06 104.83, 46.3 104.82 C55.54 104.81, 68.61 104.48, 75.23 103.8 C81.84 103.13, 83.94 101.94, 86.01 100.77 C88.08 99.61, 86.85 98.86, 87.67 96.83 C88.49 94.81, 90.47 103.27, 90.9 88.61 C91.33 73.95, 90.48 23.51, 90.26 8.89 C90.04 -5.73, 90.61 3.02, 89.59 0.87 C88.56 -1.28, 86.98 -2.9, 84.12 -4.01 C81.25 -5.12, 79.47 -5.1, 72.38 -5.78 C65.29 -6.46, 50.39 -7.62, 41.59 -8.1 C32.78 -8.59, 25.55 -9.49, 19.53 -8.7 C13.51 -7.92, 8.64 -5.04, 5.47 -3.39 C2.3 -1.74, 1.59 0.9, 0.5 1.21 C-0.59 1.52, -1.07 -1.47, -1.1 -1.53" stroke="#1e1e1e" stroke-width="1" fill="none"></path></g></g><mask></mask><g stroke-linecap="round" transform="translate(1905.671799976234 2458.052044057421) rotate(0 44.530491620671796 9.005956913636624)"><path d="M38.4 0.26 C46.61 -0.1, 58.08 0.42, 65.73 1.25 C73.38 2.09, 80.49 3.75, 84.29 5.28 C88.1 6.81, 89.97 8.74, 88.56 10.43 C87.15 12.13, 82.03 14.19, 75.84 15.46 C69.64 16.73, 60.02 17.79, 51.36 18.07 C42.71 18.35, 31.69 18.05, 23.93 17.13 C16.16 16.22, 8.57 14.14, 4.76 12.57 C0.95 11, -0.42 9.43, 1.09 7.69 C2.6 5.95, 7.35 3.33, 13.84 2.12 C20.32 0.92, 35.38 0.75, 40 0.47 C44.62 0.19, 41.48 0.41, 41.57 0.45 M42.26 -0.72 C50.62 -1.06, 61.42 -0.16, 68.67 1.01 C75.92 2.19, 82.62 4.6, 85.77 6.33 C88.91 8.05, 89.69 9.83, 87.54 11.39 C85.39 12.95, 79.7 14.65, 72.86 15.67 C66.03 16.69, 55.2 17.28, 46.51 17.51 C37.81 17.73, 27.93 17.83, 20.69 17.02 C13.45 16.22, 6.32 14.46, 3.06 12.67 C-0.2 10.89, -1.02 8.12, 1.11 6.3 C3.24 4.48, 8.98 2.75, 15.86 1.74 C22.74 0.73, 38.08 0.4, 42.4 0.25 C46.73 0.1, 41.85 0.78, 41.8 0.86" stroke="#1e1e1e" stroke-width="1" fill="none"></path></g><g transform="translate(1933.7647230148127 2514.2581771204664) rotate(0 17.896484375 16.099999999999994)"><text x="0" y="25.760546874999996" font-family="Helvetica, Segoe UI Emoji" font-size="28px" fill="#1e1e1e" text-anchor="start" style="white-space: pre;" direction="ltr" dominant-baseline="alphabetic">H2</text></g><g stroke-linecap="round"><g transform="translate(1103.7794576981933 2413.6023796828845) rotate(0 32.332748909299966 0.27397945775530275)"><path d="M0 0 C13.03 -0.03, 28.39 -0.92, 64.67 0.55 M0 0 C17.04 0.03, 32.31 0.98, 64.67 0.55" stroke="#1e1e1e" stroke-width="1" fill="none"></path></g></g><mask></mask><g stroke-linecap="round"><g transform="translate(1175.0251551742845 2419.1926795415984) rotate(0 44.76949610193036 48.621918424596345)"><path d="M0.26 0.2 C0.07 14.77, -0.09 70.67, -0.05 86.86 C-0.02 103.05, -0.45 94.89, 0.48 97.33 C1.4 99.78, 2.19 100.05, 5.5 101.52 C8.8 102.99, 13.3 105.35, 20.28 106.15 C27.27 106.95, 38.57 106.58, 47.39 106.32 C56.21 106.06, 66.57 105.71, 73.21 104.61 C79.86 103.5, 84.72 101.01, 87.26 99.67 C89.8 98.33, 88.04 98.22, 88.44 96.57 C88.84 94.93, 89.7 104.83, 89.66 89.79 C89.63 74.75, 88.27 21.5, 88.23 6.32 C88.19 -8.86, 90.09 0.37, 89.44 -1.3 C88.79 -2.96, 87.23 -2.64, 84.33 -3.68 C81.42 -4.73, 78.71 -6.74, 72.01 -7.57 C65.31 -8.39, 52.5 -8.6, 44.13 -8.66 C35.76 -8.71, 28.33 -8.75, 21.79 -7.87 C15.26 -7, 8.57 -4.89, 4.94 -3.4 C1.32 -1.92, 0.78 0.31, 0.04 1.05 C-0.7 1.79, 0.52 1.4, 0.51 1.03 M-1.07 -0.75 C-1.54 14.04, -1.36 71.54, -1.19 88.1 C-1.01 104.66, -1.28 96.21, -0.04 98.62 C1.19 101.03, 2.48 101.15, 6.2 102.54 C9.92 103.93, 15.21 106.52, 22.28 106.96 C29.35 107.41, 40.06 105.82, 48.62 105.2 C57.18 104.58, 67.38 104.27, 73.64 103.23 C79.9 102.2, 83.45 100.33, 86.17 98.98 C88.89 97.63, 89.25 96.64, 89.97 95.13 C90.69 93.62, 90.81 104.66, 90.47 89.93 C90.14 75.2, 88.31 21.52, 87.95 6.77 C87.59 -7.98, 89.38 3.24, 88.31 1.44 C87.24 -0.35, 84.27 -2.43, 81.52 -4 C78.77 -5.57, 77.94 -7.17, 71.83 -7.99 C65.72 -8.8, 53.58 -9.15, 44.85 -8.92 C36.12 -8.68, 26.22 -7.64, 19.45 -6.57 C12.69 -5.5, 7.71 -3.29, 4.27 -2.47 C0.83 -1.66, -0.39 -2.38, -1.2 -1.67 C-2.01 -0.95, -0.88 1.53, -0.61 1.82" stroke="#1e1e1e" stroke-width="1" fill="none"></path></g></g><mask></mask><g stroke-linecap="round" transform="translate(1174.4504609762348 2408.982167057421) rotate(0 44.53049162067181 9.005956913636624)"><path d="M48.76 -0.11 C57.13 -0.15, 67.87 0.95, 74.4 2.12 C80.93 3.29, 86.13 5.15, 87.95 6.89 C89.77 8.63, 88.85 10.97, 85.33 12.55 C81.81 14.14, 74.35 15.5, 66.83 16.4 C59.3 17.31, 48.75 18.19, 40.19 18 C31.63 17.81, 22.06 16.41, 15.47 15.27 C8.87 14.13, 2.65 12.74, 0.62 11.18 C-1.4 9.62, -0.31 7.49, 3.31 5.9 C6.93 4.32, 14.62 2.58, 22.36 1.66 C30.09 0.74, 44.93 0.57, 49.72 0.37 C54.5 0.18, 51.13 0.32, 51.07 0.5 M48.01 0.66 C56.31 0.42, 66.65 0.43, 73.17 1.37 C79.68 2.31, 85.01 4.51, 87.1 6.31 C89.18 8.12, 88.79 10.55, 85.69 12.17 C82.59 13.8, 75.99 15, 68.48 16.08 C60.97 17.16, 49.45 18.6, 40.64 18.67 C31.83 18.74, 22.14 17.62, 15.61 16.49 C9.08 15.36, 3.67 13.63, 1.49 11.89 C-0.69 10.15, -0.69 7.7, 2.53 6.04 C5.74 4.38, 13.18 2.96, 20.78 1.91 C28.39 0.87, 43.76 0.12, 48.15 -0.22 C52.53 -0.55, 47.23 -0.26, 47.09 -0.1" stroke="#1e1e1e" stroke-width="1" fill="none"></path></g><g transform="translate(1202.5433840148135 2465.1883001204665) rotate(0 17.896484374999986 16.099999999999994)"><text x="0" y="25.760546874999996" font-family="Helvetica, Segoe UI Emoji" font-size="28px" fill="#1e1e1e" text-anchor="start" style="white-space: pre;" direction="ltr" dominant-baseline="alphabetic">H2</text></g><g transform="translate(857.1118050793639 1937.166666666667) rotate(0 89.6943359375 48.30000000000001)"><text x="0" y="25.760546874999996" font-family="Helvetica, Segoe UI Emoji" font-size="28px" fill="#1e1e1e" text-anchor="start" style="white-space: pre;" direction="ltr" dominant-baseline="alphabetic">@Id</text><text x="0" y="57.96054687499999" font-family="Helvetica, Segoe UI Emoji" font-size="28px" fill="#1e1e1e" text-anchor="start" style="white-space: pre;" direction="ltr" dominant-baseline="alphabetic">@OneToMany</text><text x="0" y="90.160546875" font-family="Helvetica, Segoe UI Emoji" font-size="28px" fill="#1e1e1e" text-anchor="start" style="white-space: pre;" direction="ltr" dominant-baseline="alphabetic">+mappedBy</text></g><g transform="translate(1431.6075581418636 1941.536543666667) rotate(0 89.69433593749997 64.39999999999998)"><text x="0" y="25.760546874999996" font-family="Helvetica, Segoe UI Emoji" font-size="28px" fill="#1e1e1e" text-anchor="start" style="white-space: pre;" direction="ltr" dominant-baseline="alphabetic">@Id</text><text x="0" y="57.96054687499999" font-family="Helvetica, Segoe UI Emoji" font-size="28px" fill="#1e1e1e" text-anchor="start" style="white-space: pre;" direction="ltr" dominant-baseline="alphabetic">@ManyToOne</text><text x="0" y="90.160546875" font-family="Helvetica, Segoe UI Emoji" font-size="28px" fill="#1e1e1e" text-anchor="start" style="white-space: pre;" direction="ltr" dominant-baseline="alphabetic">@JoinColumn</text><text x="0" y="122.36054687499998" font-family="Helvetica, Segoe UI Emoji" font-size="28px" fill="#1e1e1e" text-anchor="start" style="white-space: pre;" direction="ltr" dominant-baseline="alphabetic">@JsonIgnore</text></g><g transform="translate(2116.107747141864 1987.4666666666672) rotate(0 89.6943359375 48.30000000000001)"><text x="0" y="25.760546874999996" font-family="Helvetica, Segoe UI Emoji" font-size="28px" fill="#1e1e1e" text-anchor="start" style="white-space: pre;" direction="ltr" dominant-baseline="alphabetic">@Id</text><text x="0" y="57.96054687499999" font-family="Helvetica, Segoe UI Emoji" font-size="28px" fill="#1e1e1e" text-anchor="start" style="white-space: pre;" direction="ltr" dominant-baseline="alphabetic">@OneToMany</text><text x="0" y="90.160546875" font-family="Helvetica, Segoe UI Emoji" font-size="28px" fill="#1e1e1e" text-anchor="start" style="white-space: pre;" direction="ltr" dominant-baseline="alphabetic">+mappedBy</text></g><g transform="translate(3526.1077471418635 1932.4666666666667) rotate(0 97.466796875 80.5)"><text x="0" y="25.760546874999996" font-family="Helvetica, Segoe UI Emoji" font-size="28px" fill="#1e1e1e" text-anchor="start" style="white-space: pre;" direction="ltr" dominant-baseline="alphabetic">@Id</text><text x="0" y="57.96054687499999" font-family="Helvetica, Segoe UI Emoji" font-size="28px" fill="#1e1e1e" text-anchor="start" style="white-space: pre;" direction="ltr" dominant-baseline="alphabetic">@JoinTable</text><text x="0" y="90.160546875" font-family="Helvetica, Segoe UI Emoji" font-size="28px" fill="#1e1e1e" text-anchor="start" style="white-space: pre;" direction="ltr" dominant-baseline="alphabetic">@ManyToMany</text><text x="0" y="122.36054687499998" font-family="Helvetica, Segoe UI Emoji" font-size="28px" fill="#1e1e1e" text-anchor="start" style="white-space: pre;" direction="ltr" dominant-baseline="alphabetic">@JoinColumn</text><text x="0" y="154.56054687499997" font-family="Helvetica, Segoe UI Emoji" font-size="28px" fill="#1e1e1e" text-anchor="start" style="white-space: pre;" direction="ltr" dominant-baseline="alphabetic">+inverseJoin</text></g><g transform="translate(842.886219141864 2803.2999999999997) rotate(0 25.8876953125 16.099999999999998)"><text x="0" y="25.760546874999996" font-family="Helvetica, Segoe UI Emoji" font-size="28px" fill="#1e1e1e" text-anchor="start" style="white-space: pre;" direction="ltr" dominant-baseline="alphabetic">@Id</text></g><g transform="translate(2900.3333330793644 2242.1666666666665) rotate(0 140.02734375 16.100000000000023)"><text x="0" y="25.760546874999996" font-family="Helvetica, Segoe UI Emoji" font-size="28px" fill="#1e1e1e" text-anchor="start" style="white-space: pre;" direction="ltr" dominant-baseline="alphabetic">_TRAFFIC_TRIAL_FK</text></g><g transform="translate(2905.9544268293644 2331.0666666666666) rotate(0 117.4755859375 16.099999999999994)"><text x="0" y="25.760546874999996" font-family="Helvetica, Segoe UI Emoji" font-size="28px" fill="#1e1e1e" text-anchor="start" style="white-space: pre;" direction="ltr" dominant-baseline="alphabetic">_UNIVERSITY_FK</text></g><g transform="translate(1506.4542378293636 2385.1365436666665) rotate(0 87.6708984375 16.099999999999994)"><text x="0" y="25.760546874999996" font-family="Helvetica, Segoe UI Emoji" font-size="28px" fill="#1e1e1e" text-anchor="start" style="white-space: pre;" direction="ltr" dominant-baseline="alphabetic">_PLAYER_FK</text></g><g transform="translate(1506.4542378293636 2445.1365436666665) rotate(0 140.02734375 16.099999999999994)"><text x="0" y="25.760546874999996" font-family="Helvetica, Segoe UI Emoji" font-size="28px" fill="#1e1e1e" text-anchor="start" style="white-space: pre;" direction="ltr" dominant-baseline="alphabetic">_TRAFFIC_TRIAL_FK</text></g><g transform="translate(2370.333333079363 2014.6666666666667) rotate(0 97.466796875 16.100000000000023)"><text x="0" y="25.760546874999996" font-family="Helvetica, Segoe UI Emoji" font-size="28px" fill="#1e1e1e" text-anchor="start" style="white-space: pre;" direction="ltr" dominant-baseline="alphabetic">@ManyToMany</text></g><g transform="translate(2925.3333330793644 1944.6666666666665) rotate(0 82.03125 16.80000000000001)"><text x="0" y="27.0375" font-family="Cascadia, Segoe UI Emoji" font-size="28px" fill="#1e1e1e" text-anchor="start" style="white-space: pre;" direction="ltr" dominant-baseline="alphabetic">Join Table</text></g><g transform="translate(1710.8331440793636 1998.7365436666669) rotate(0 89.6943359375 16.100000000000023)"><text x="0" y="25.760546874999996" font-family="Helvetica, Segoe UI Emoji" font-size="28px" fill="#1e1e1e" text-anchor="start" style="white-space: pre;" direction="ltr" dominant-baseline="alphabetic">@ManyToOne</text></g><g stroke-linecap="round"><g transform="translate(2490.333333079363 2210.2628271665394) rotate(0 197.5 22.672817031602847)"><path d="M0.12 -0.47 C66.15 6.92, 329.95 37.41, 395.87 44.97" stroke="#1e1e1e" stroke-width="1.5" fill="none" stroke-dasharray="8 9"></path></g><g transform="translate(2490.333333079363 2210.2628271665394) rotate(0 197.5 22.672817031602847)"><path d="M397.29 45.72 L380.95 48.76 L384.22 37.08 L396.51 45.71" stroke="none" stroke-width="0" fill="#1e1e1e" fill-rule="evenodd"></path><path d="M395.87 44.97 C391.43 47.35, 387.67 48.34, 381.64 49.71 M381.64 49.71 C381.21 45.51, 382.41 42.54, 383.09 37.11 M383.09 37.11 C388.28 40.21, 390.98 42.27, 395.87 44.97 M395.87 44.97 C395.87 44.97, 395.87 44.97, 395.87 44.97" stroke="#1e1e1e" stroke-width="1.5" fill="none"></path></g></g><mask></mask><g stroke-linecap="round"><g transform="translate(3582.8333330793625 2243.16261647131) rotate(0 -217.5 51.08965558994822)"><path d="M-0.79 -1.11 C-72.89 15.61, -361.47 84.35, -433.81 101.4" stroke="#1e1e1e" stroke-width="1.5" fill="none" stroke-dasharray="8 9"></path></g><g transform="translate(3582.8333330793625 2243.16261647131) rotate(0 -217.5 51.08965558994822)"><path d="M-433.15 102.06 L-422.2 93.77 L-420 102.78 L-434.22 101.63" stroke="none" stroke-width="0" fill="#1e1e1e" fill-rule="evenodd"></path><path d="M-433.81 101.4 C-432.91 101.08, -430.11 97.92, -422.05 92.1 M-422.05 92.1 C-421.77 94.91, -421.8 96.18, -419.12 104.43 M-419.12 104.43 C-423.74 103.2, -428.28 104.14, -433.81 101.4 M-433.81 101.4 C-433.81 101.4, -433.81 101.4, -433.81 101.4" stroke="#1e1e1e" stroke-width="1.5" fill="none"></path></g></g><mask></mask><g stroke-linecap="round"><g transform="translate(2187.833333079363 2213.3357783781867) rotate(0 -207.9818690439614 108.95038264424005)"><path d="M1.03 0.99 C-68.19 37.25, -346.64 181.73, -416.2 218.01" stroke="#1e1e1e" stroke-width="1.5" fill="none" stroke-dasharray="8 9"></path></g><g transform="translate(2187.833333079363 2213.3357783781867) rotate(0 -207.9818690439614 108.95038264424005)"><path d="M-414.37 217.41 L-406.76 204.23 L-400.15 216.26 L-416.4 219.66" stroke="none" stroke-width="0" fill="#1e1e1e" fill-rule="evenodd"></path><path d="M-416.2 218.01 C-412.93 214.92, -411.95 212.06, -407.07 206.11 M-407.07 206.11 C-405.47 211.16, -402.43 214.73, -401.22 217.36 M-401.22 217.36 C-406.28 218.51, -412.88 217.37, -416.2 218.01 M-416.2 218.01 C-416.2 218.01, -416.2 218.01, -416.2 218.01" stroke="#1e1e1e" stroke-width="1.5" fill="none"></path></g></g><mask></mask><g stroke-linecap="round"><g transform="translate(1085.2368050793636 2196.2581732276713) rotate(0 205.29816949999983 95.71007538338398)"><path d="M0.22 -0.8 C68.9 31.01, 343.28 159.28, 411.62 191.13" stroke="#1e1e1e" stroke-width="1.5" fill="none" stroke-dasharray="8 9"></path></g><g transform="translate(1085.2368050793636 2196.2581732276713) rotate(0 205.29816949999983 95.71007538338398)"><path d="M410.99 192.03 L394.74 190.5 L400.62 180.51 L411.79 190.09" stroke="none" stroke-width="0" fill="#1e1e1e" fill-rule="evenodd"></path><path d="M411.62 191.13 C406.7 192.44, 403.41 190.73, 396.62 191.12 M396.62 191.12 C397.35 188.19, 397.8 186.24, 401.99 179.63 M401.99 179.63 C403.31 182.12, 407.02 184.47, 411.62 191.13 M411.62 191.13 C411.62 191.13, 411.62 191.13, 411.62 191.13" stroke="#1e1e1e" stroke-width="1.5" fill="none"></path></g></g><mask></mask><g stroke-linecap="round" transform="translate(3105.833333079362 1023.3333333333319) rotate(0 146.66666666666652 203.33333333333303)"><path d="M0 0 C68.31 0, 136.61 0, 293.33 0 M0 0 C74.33 0, 148.65 0, 293.33 0 M293.33 0 C293.33 124.23, 293.33 248.47, 293.33 406.67 M293.33 0 C293.33 155.22, 293.33 310.45, 293.33 406.67 M293.33 406.67 C209.59 406.67, 125.84 406.67, 0 406.67 M293.33 406.67 C198.91 406.67, 104.48 406.67, 0 406.67 M0 406.67 C0 293.18, 0 179.7, 0 0 M0 406.67 C0 279.48, 0 152.29, 0 0" stroke="#1e1e1e" stroke-width="1" fill="none"></path></g><g transform="translate(3211.4843747460286 1028.333333333332) rotate(0 41.015625 16.799999999999955)"><text x="41.015625" y="27.0375" font-family="Cascadia, Segoe UI Emoji" font-size="28px" fill="#1e1e1e" text-anchor="middle" style="white-space: pre;" direction="ltr" dominant-baseline="alphabetic">@Card</text></g><g transform="translate(3155.8333330793616 1086.666666666665) rotate(0 106.640625 100.80000000000007)"><text x="0" y="27.0375" font-family="Cascadia, Segoe UI Emoji" font-size="28px" fill="#1e1e1e" text-anchor="start" style="white-space: pre;" direction="ltr" dominant-baseline="alphabetic">id</text><text x="0" y="60.6375" font-family="Cascadia, Segoe UI Emoji" font-size="28px" fill="#1e1e1e" text-anchor="start" style="white-space: pre;" direction="ltr" dominant-baseline="alphabetic">numberOfCard</text><text x="0" y="94.23750000000001" font-family="Cascadia, Segoe UI Emoji" font-size="28px" fill="#1e1e1e" text-anchor="start" style="white-space: pre;" direction="ltr" dominant-baseline="alphabetic">maxCredit</text><text x="0" y="127.8375" font-family="Cascadia, Segoe UI Emoji" font-size="28px" fill="#1e1e1e" text-anchor="start" style="white-space: pre;" direction="ltr" dominant-baseline="alphabetic">expDate</text><text x="0" y="161.4375" font-family="Cascadia, Segoe UI Emoji" font-size="28px" fill="#1e1e1e" text-anchor="start" style="white-space: pre;" direction="ltr" dominant-baseline="alphabetic">active</text><text x="0" y="195.0375" font-family="Cascadia, Segoe UI Emoji" font-size="28px" fill="#1e1e1e" text-anchor="start" style="white-space: pre;" direction="ltr" dominant-baseline="alphabetic">Player player</text></g><g transform="translate(3156.4957679751956 1332.233333333332) rotate(0 87.6708984375 16.100000000000023)"><text x="0" y="25.760546874999996" font-family="Helvetica, Segoe UI Emoji" font-size="28px" fill="#1e1e1e" text-anchor="start" style="white-space: pre;" direction="ltr" dominant-baseline="alphabetic">_PLAYER_FK</text></g><g transform="translate(3105.833333079362 896.6666666666649) rotate(0 90.234375 50.39999999999998)"><text x="0" y="27.0375" font-family="Cascadia, Segoe UI Emoji" font-size="28px" fill="#1e1e1e" text-anchor="start" style="white-space: pre;" direction="ltr" dominant-baseline="alphabetic">@ManyToOne</text><text x="0" y="60.6375" font-family="Cascadia, Segoe UI Emoji" font-size="28px" fill="#1e1e1e" text-anchor="start" style="white-space: pre;" direction="ltr" dominant-baseline="alphabetic">@JoinColumn</text><text x="0" y="94.23750000000001" font-family="Cascadia, Segoe UI Emoji" font-size="28px" fill="#1e1e1e" text-anchor="start" style="white-space: pre;" direction="ltr" dominant-baseline="alphabetic">@JsonIgnore</text></g><g stroke-linecap="round" transform="translate(1089.1666664126967 1056.6666666666654) rotate(0 149.9999999999999 153.33333333333326)"><path d="M0 0 C110.61 0, 221.22 0, 300 0 M0 0 C82.47 0, 164.94 0, 300 0 M300 0 C300 77.2, 300 154.41, 300 306.67 M300 0 C300 77.48, 300 154.97, 300 306.67 M300 306.67 C198.11 306.67, 96.21 306.67, 0 306.67 M300 306.67 C229.36 306.67, 158.71 306.67, 0 306.67 M0 306.67 C0 212.43, 0 118.19, 0 0 M0 306.67 C0 186.04, 0 65.41, 0 0" stroke="#1e1e1e" stroke-width="1" fill="none"></path></g><g transform="translate(1148.9322914126965 1061.6666666666654) rotate(0 90.234375 16.799999999999955)"><text x="90.234375" y="27.0375" font-family="Cascadia, Segoe UI Emoji" font-size="28px" fill="#1e1e1e" text-anchor="middle" style="white-space: pre;" direction="ltr" dominant-baseline="alphabetic">@Simulation</text></g><g transform="translate(1119.1666664126965 1113.333333333332) rotate(0 106.640625 67.20000000000005)"><text x="0" y="27.0375" font-family="Cascadia, Segoe UI Emoji" font-size="28px" fill="#1e1e1e" text-anchor="start" style="white-space: pre;" direction="ltr" dominant-baseline="alphabetic">id</text><text x="0" y="60.6375" font-family="Cascadia, Segoe UI Emoji" font-size="28px" fill="#1e1e1e" text-anchor="start" style="white-space: pre;" direction="ltr" dominant-baseline="alphabetic">createAt</text><text x="0" y="94.23750000000001" font-family="Cascadia, Segoe UI Emoji" font-size="28px" fill="#1e1e1e" text-anchor="start" style="white-space: pre;" direction="ltr" dominant-baseline="alphabetic">timeElapsed</text><text x="0" y="127.8375" font-family="Cascadia, Segoe UI Emoji" font-size="28px" fill="#1e1e1e" text-anchor="start" style="white-space: pre;" direction="ltr" dominant-baseline="alphabetic">Player player</text></g><g transform="translate(1121.4957679751963 1290.566666666665) rotate(0 87.6708984375 16.100000000000023)"><text x="0" y="25.760546874999996" font-family="Helvetica, Segoe UI Emoji" font-size="28px" fill="#1e1e1e" text-anchor="start" style="white-space: pre;" direction="ltr" dominant-baseline="alphabetic">_PLAYER_FK</text></g><g transform="translate(1098.9322914126963 929.5999999999979) rotate(0 90.234375 50.39999999999998)"><text x="0" y="27.0375" font-family="Cascadia, Segoe UI Emoji" font-size="28px" fill="#1e1e1e" text-anchor="start" style="white-space: pre;" direction="ltr" dominant-baseline="alphabetic">@ManyToOne</text><text x="0" y="60.6375" font-family="Cascadia, Segoe UI Emoji" font-size="28px" fill="#1e1e1e" text-anchor="start" style="white-space: pre;" direction="ltr" dominant-baseline="alphabetic">@JoinColumn</text><text x="0" y="94.23750000000001" font-family="Cascadia, Segoe UI Emoji" font-size="28px" fill="#1e1e1e" text-anchor="start" style="white-space: pre;" direction="ltr" dominant-baseline="alphabetic">@JsonIgnore</text></g><g stroke-linecap="round" transform="translate(1542.4999997460297 996.6666666666649) rotate(0 149.99999999999977 214.99999999999977)"><path d="M0 0 C119.54 0, 239.09 0, 300 0 M0 0 C108.76 0, 217.52 0, 300 0 M300 0 C300 164.53, 300 329.07, 300 430 M300 0 C300 135.38, 300 270.76, 300 430 M300 430 C235.19 430, 170.39 430, 0 430 M300 430 C238.45 430, 176.9 430, 0 430 M0 430 C0 266.02, 0 102.03, 0 0 M0 430 C0 313.6, 0 197.2, 0 0" stroke="#1e1e1e" stroke-width="1" fill="none"></path></g><g transform="translate(1635.0781247460295 1001.6666666666649) rotate(0 57.421875 16.799999999999955)"><text x="57.421875" y="27.0375" font-family="Cascadia, Segoe UI Emoji" font-size="28px" fill="#1e1e1e" text-anchor="middle" style="white-space: pre;" direction="ltr" dominant-baseline="alphabetic">@Social</text></g><g transform="translate(1582.4999997460293 1053.3333333333314) rotate(0 106.640625 117.60000000000002)"><text x="0" y="27.0375" font-family="Cascadia, Segoe UI Emoji" font-size="28px" fill="#1e1e1e" text-anchor="start" style="white-space: pre;" direction="ltr" dominant-baseline="alphabetic">id</text><text x="0" y="60.6375" font-family="Cascadia, Segoe UI Emoji" font-size="28px" fill="#1e1e1e" text-anchor="start" style="white-space: pre;" direction="ltr" dominant-baseline="alphabetic">name</text><text x="0" y="94.23750000000001" font-family="Cascadia, Segoe UI Emoji" font-size="28px" fill="#1e1e1e" text-anchor="start" style="white-space: pre;" direction="ltr" dominant-baseline="alphabetic">isActive</text><text x="0" y="127.8375" font-family="Cascadia, Segoe UI Emoji" font-size="28px" fill="#1e1e1e" text-anchor="start" style="white-space: pre;" direction="ltr" dominant-baseline="alphabetic">numberDays</text><text x="0" y="161.4375" font-family="Cascadia, Segoe UI Emoji" font-size="28px" fill="#1e1e1e" text-anchor="start" style="white-space: pre;" direction="ltr" dominant-baseline="alphabetic">socialUrl</text><text x="0" y="195.0375" font-family="Cascadia, Segoe UI Emoji" font-size="28px" fill="#1e1e1e" text-anchor="start" style="white-space: pre;" direction="ltr" dominant-baseline="alphabetic">icon</text><text x="0" y="228.63750000000002" font-family="Cascadia, Segoe UI Emoji" font-size="28px" fill="#1e1e1e" text-anchor="start" style="white-space: pre;" direction="ltr" dominant-baseline="alphabetic">Player player</text></g><g transform="translate(1594.8291013085293 1327.2333333333318) rotate(0 87.6708984375 16.100000000000023)"><text x="0" y="25.760546874999996" font-family="Helvetica, Segoe UI Emoji" font-size="28px" fill="#1e1e1e" text-anchor="start" style="white-space: pre;" direction="ltr" dominant-baseline="alphabetic">_PLAYER_FK</text></g><g transform="translate(1548.932291412696 872.9333333333304) rotate(0 90.234375 50.39999999999998)"><text x="0" y="27.0375" font-family="Cascadia, Segoe UI Emoji" font-size="28px" fill="#1e1e1e" text-anchor="start" style="white-space: pre;" direction="ltr" dominant-baseline="alphabetic">@ManyToOne</text><text x="0" y="60.6375" font-family="Cascadia, Segoe UI Emoji" font-size="28px" fill="#1e1e1e" text-anchor="start" style="white-space: pre;" direction="ltr" dominant-baseline="alphabetic">@JoinColumn</text><text x="0" y="94.23750000000001" font-family="Cascadia, Segoe UI Emoji" font-size="28px" fill="#1e1e1e" text-anchor="start" style="white-space: pre;" direction="ltr" dominant-baseline="alphabetic">@JsonIgnore</text></g><g stroke-linecap="round" transform="translate(10 553.3333333333326) rotate(0 1998.0833329873215 61.66666666666697)"><path d="M0 0 C1262.06 0, 2524.11 0, 3996.17 0 M0 0 C1404.52 0, 2809.04 0, 3996.17 0 M3996.17 0 C3996.17 35.56, 3996.17 71.12, 3996.17 123.33 M3996.17 0 C3996.17 31.35, 3996.17 62.7, 3996.17 123.33 M3996.17 123.33 C3084.97 123.33, 2173.77 123.33, 0 123.33 M3996.17 123.33 C3165.72 123.33, 2335.27 123.33, 0 123.33 M0 123.33 C0 78.66, 0 33.99, 0 0 M0 123.33 C0 74.93, 0 26.53, 0 0" stroke="#1e1e1e" stroke-width="1" fill="none"></path></g><g transform="translate(1893.2395829873215 598.1999999999994) rotate(0 114.84375 16.799999999999955)"><text x="114.84375" y="27.0375" font-family="Cascadia, Segoe UI Emoji" font-size="28px" fill="#1e1e1e" text-anchor="middle" style="white-space: pre;" direction="ltr" dominant-baseline="alphabetic">RestController</text></g><g stroke-linecap="round" transform="translate(2509.166666412696 1019.9999999999989) rotate(0 206.66666666666652 194.99999999999977)"><path d="M0 0 C100.16 0, 200.32 0, 413.33 0 M0 0 C85.39 0, 170.78 0, 413.33 0 M413.33 0 C413.33 109.42, 413.33 218.84, 413.33 390 M413.33 0 C413.33 144.04, 413.33 288.09, 413.33 390 M413.33 390 C315.15 390, 216.97 390, 0 390 M413.33 390 C256.5 390, 99.67 390, 0 390 M0 390 C0 303.91, 0 217.82, 0 0 M0 390 C0 286.37, 0 182.75, 0 0" stroke="#1e1e1e" stroke-width="1" fill="none"></path></g><g transform="translate(2617.395833079362 1024.9999999999989) rotate(0 98.4375 16.799999999999955)"><text x="98.4375" y="27.0375" font-family="Cascadia, Segoe UI Emoji" font-size="28px" fill="#1e1e1e" text-anchor="middle" style="white-space: pre;" direction="ltr" dominant-baseline="alphabetic">@Suscription</text></g><g transform="translate(2545.833333079363 1086.6666666666654) rotate(0 172.265625 84)"><text x="0" y="27.0375" font-family="Cascadia, Segoe UI Emoji" font-size="28px" fill="#1e1e1e" text-anchor="start" style="white-space: pre;" direction="ltr" dominant-baseline="alphabetic">id</text><text x="0" y="60.6375" font-family="Cascadia, Segoe UI Emoji" font-size="28px" fill="#1e1e1e" text-anchor="start" style="white-space: pre;" direction="ltr" dominant-baseline="alphabetic">subscriptionStartedAt</text><text x="0" y="94.23750000000001" font-family="Cascadia, Segoe UI Emoji" font-size="28px" fill="#1e1e1e" text-anchor="start" style="white-space: pre;" direction="ltr" dominant-baseline="alphabetic">subscriptionActive</text><text x="0" y="127.8375" font-family="Cascadia, Segoe UI Emoji" font-size="28px" fill="#1e1e1e" text-anchor="start" style="white-space: pre;" direction="ltr" dominant-baseline="alphabetic">payment</text><text x="0" y="161.4375" font-family="Cascadia, Segoe UI Emoji" font-size="28px" fill="#1e1e1e" text-anchor="start" style="white-space: pre;" direction="ltr" dominant-baseline="alphabetic">Player player</text></g><g transform="translate(2558.162434641863 1303.8999999999985) rotate(0 87.6708984375 16.100000000000023)"><text x="0" y="25.760546874999996" font-family="Helvetica, Segoe UI Emoji" font-size="28px" fill="#1e1e1e" text-anchor="start" style="white-space: pre;" direction="ltr" dominant-baseline="alphabetic">_PLAYER_FK</text></g><g transform="translate(2522.265624746029 882.9333333333318) rotate(0 90.234375 50.39999999999998)"><text x="0" y="27.0375" font-family="Cascadia, Segoe UI Emoji" font-size="28px" fill="#1e1e1e" text-anchor="start" style="white-space: pre;" direction="ltr" dominant-baseline="alphabetic">@ManyToOne</text><text x="0" y="60.6375" font-family="Cascadia, Segoe UI Emoji" font-size="28px" fill="#1e1e1e" text-anchor="start" style="white-space: pre;" direction="ltr" dominant-baseline="alphabetic">@JoinColumn</text><text x="0" y="94.23750000000001" font-family="Cascadia, Segoe UI Emoji" font-size="28px" fill="#1e1e1e" text-anchor="start" style="white-space: pre;" direction="ltr" dominant-baseline="alphabetic">@JsonIgnore</text></g><g stroke-linecap="round"><g transform="translate(3684.8681804583507 1114.1509465369975) rotate(0 101.50873796710152 110.24358115586051)"><path d="M0.37 0.82 C0.51 33.88, 1.92 162.22, 1.76 198.79 C1.59 235.36, -2.28 215.09, -0.63 220.23 C1.01 225.37, 3.84 226.6, 11.63 229.61 C19.43 232.62, 29.95 236.21, 46.15 238.3 C62.36 240.38, 88.69 242.38, 108.85 242.13 C129.02 241.87, 152.35 239.19, 167.16 236.77 C181.98 234.35, 191.84 230.6, 197.76 227.6 C203.68 224.6, 201.94 223.08, 202.71 218.75 C203.47 214.41, 202.27 235.44, 202.35 201.59 C202.44 167.75, 203.17 49.44, 203.21 15.68 C203.25 -18.08, 204.89 3.58, 202.61 -0.95 C200.33 -5.48, 196.4 -8.95, 189.54 -11.51 C182.67 -14.08, 176.69 -14.74, 161.44 -16.35 C146.19 -17.97, 116.82 -20.76, 98.03 -21.19 C79.24 -21.61, 63.6 -21.13, 48.7 -18.9 C33.81 -16.66, 16.71 -11.04, 8.66 -7.79 C0.61 -4.55, 1.98 -0.83, 0.4 0.58 C-1.19 2, -0.83 0.94, -0.85 0.7 M-0.9 0.2 C-0.9 32.87, 1.52 160.11, 1.38 196.95 C1.24 233.79, -2.99 215.7, -1.75 221.24 C-0.51 226.78, 0.54 227.34, 8.83 230.2 C17.13 233.07, 31.65 236.53, 48 238.41 C64.35 240.29, 86.94 241.4, 106.93 241.47 C126.92 241.53, 152.99 241.16, 167.93 238.8 C182.87 236.44, 191.01 230.32, 196.55 227.32 C202.08 224.32, 200.11 225.1, 201.14 220.78 C202.17 216.47, 202.26 235.54, 202.71 201.43 C203.16 167.33, 203.99 49.98, 203.83 16.16 C203.67 -17.65, 204.01 2.76, 201.75 -1.46 C199.5 -5.69, 197.11 -6.66, 190.31 -9.19 C183.51 -11.72, 176.31 -14.53, 160.95 -16.64 C145.6 -18.76, 116.66 -21.65, 98.17 -21.89 C79.68 -22.13, 65.13 -20.61, 50 -18.07 C34.87 -15.54, 15.83 -9.91, 7.39 -6.68 C-1.05 -3.45, 0.44 -0.02, -0.62 1.32 C-1.69 2.65, 0.71 1.45, 0.98 1.33" stroke="#1e1e1e" stroke-width="1" fill="none"></path></g></g><mask></mask><g stroke-linecap="round" transform="translate(3683.5651395970413 1090.999999429923) rotate(0 100.96682784138125 20.419781326284124)"><path d="M72.5 0.23 C85.44 -0.91, 103.11 0.19, 117.74 0.81 C132.36 1.44, 148.36 2.42, 160.25 4 C172.13 5.58, 182.1 7.72, 189.04 10.3 C195.98 12.89, 201.11 16.61, 201.89 19.5 C202.67 22.39, 199.31 24.87, 193.75 27.64 C188.18 30.42, 179.47 33.94, 168.48 36.16 C157.5 38.38, 141.97 40.07, 127.83 40.94 C113.69 41.82, 98.01 42, 83.62 41.4 C69.23 40.81, 53.36 39.3, 41.47 37.39 C29.59 35.48, 19.22 32.52, 12.3 29.94 C5.37 27.37, 0.78 24.83, -0.09 21.93 C-0.95 19.03, 1.36 15.24, 7.12 12.52 C12.89 9.79, 20.66 7.76, 34.49 5.57 C48.33 3.39, 78.11 0.24, 90.12 -0.58 C102.14 -1.39, 106.59 0.25, 106.56 0.69 M109.22 1.52 C123.11 1.45, 139.35 2.36, 151.63 3.64 C163.9 4.91, 174.8 7.02, 182.86 9.16 C190.92 11.3, 197.72 13.53, 199.98 16.47 C202.25 19.41, 200.47 23.8, 196.46 26.8 C192.45 29.79, 185.63 32.57, 175.9 34.44 C166.17 36.31, 151.71 37.15, 138.09 38.01 C124.48 38.87, 108.64 39.63, 94.21 39.6 C79.78 39.57, 64.1 38.97, 51.53 37.85 C38.95 36.74, 26.93 35.52, 18.77 32.91 C10.61 30.29, 4.98 25.33, 2.56 22.17 C0.14 19.01, 0.28 16.31, 4.27 13.93 C8.25 11.56, 16.3 9.78, 26.45 7.94 C36.59 6.09, 51.41 4.03, 65.13 2.87 C78.86 1.7, 101.85 1.2, 108.8 0.94 C115.76 0.69, 106.93 0.92, 106.85 1.33" stroke="#1e1e1e" stroke-width="1" fill="none"></path></g><g transform="translate(3765.679642518717 1234.4456758866709) rotate(0 34.62113254484029 35.45203972591651)"><text x="0" y="57.055626433896805" font-family="Cascadia, Segoe UI Emoji" font-size="59.08673287652744px" fill="#1e1e1e" text-anchor="start" style="white-space: pre;" direction="ltr" dominant-baseline="alphabetic">H2</text></g><g stroke-linecap="round" transform="translate(3449.1666664126965 129.99999999999864) rotate(0 128.33333333333348 143.33333333333326)"><path d="M0 0 C61.3 0, 122.6 0, 256.67 0 M0 0 C97.22 0, 194.44 0, 256.67 0 M256.67 0 C256.67 98.76, 256.67 197.52, 256.67 286.67 M256.67 0 C256.67 105.37, 256.67 210.74, 256.67 286.67 M256.67 286.67 C163.13 286.67, 69.59 286.67, 0 286.67 M256.67 286.67 C200.1 286.67, 143.54 286.67, 0 286.67 M0 286.67 C0 216.99, 0 147.31, 0 0 M0 286.67 C0 193.45, 0 100.23, 0 0" stroke="#1e1e1e" stroke-width="1" fill="none"></path></g><g transform="translate(3524.76562474603 134.99999999999864) rotate(0 52.734375 21.59999999999991)"><text x="52.734375" y="34.762499999999996" font-family="Cascadia, Segoe UI Emoji" font-size="36px" fill="#1e1e1e" text-anchor="middle" style="white-space: pre;" direction="ltr" dominant-baseline="alphabetic">card/</text></g><g transform="translate(3492.4999997460295 210.0000000000009) rotate(0 98.4375 84)"><text x="0" y="27.0375" font-family="Cascadia, Segoe UI Emoji" font-size="28px" fill="#1e1e1e" text-anchor="start" style="white-space: pre;" direction="ltr" dominant-baseline="alphabetic">/cards</text><text x="0" y="60.6375" font-family="Cascadia, Segoe UI Emoji" font-size="28px" fill="#1e1e1e" text-anchor="start" style="white-space: pre;" direction="ltr" dominant-baseline="alphabetic">create</text><text x="0" y="94.23750000000001" font-family="Cascadia, Segoe UI Emoji" font-size="28px" fill="#1e1e1e" text-anchor="start" style="white-space: pre;" direction="ltr" dominant-baseline="alphabetic">/delete</text><text x="0" y="127.8375" font-family="Cascadia, Segoe UI Emoji" font-size="28px" fill="#1e1e1e" text-anchor="start" style="white-space: pre;" direction="ltr" dominant-baseline="alphabetic">/update/{id}</text><text x="0" y="161.4375" font-family="Cascadia, Segoe UI Emoji" font-size="28px" fill="#1e1e1e" text-anchor="start" style="white-space: pre;" direction="ltr" dominant-baseline="alphabetic">/populate</text></g><g transform="translate(2415.833333079363 239.99999999999955) rotate(0 73.828125 33.59999999999991)"><text x="0" y="27.0375" font-family="Cascadia, Segoe UI Emoji" font-size="28px" fill="#1e1e1e" text-anchor="start" style="white-space: pre;" direction="ltr" dominant-baseline="alphabetic">/payments</text><text x="0" y="60.6375" font-family="Cascadia, Segoe UI Emoji" font-size="28px" fill="#1e1e1e" text-anchor="start" style="white-space: pre;" direction="ltr" dominant-baseline="alphabetic">/create</text></g><g stroke-linecap="round" transform="translate(2349.166666412696 143.33333333333076) rotate(0 145 140)"><path d="M0 0 C75.37 0, 150.74 0, 290 0 M0 0 C65.9 0, 131.79 0, 290 0 M290 0 C290 88.02, 290 176.03, 290 280 M290 0 C290 68.31, 290 136.63, 290 280 M290 280 C188.89 280, 87.77 280, 0 280 M290 280 C226.54 280, 163.09 280, 0 280 M0 280 C0 174.55, 0 69.1, 0 0 M0 280 C0 175.19, 0 70.38, 0 0" stroke="#1e1e1e" stroke-width="1" fill="none"></path></g><g transform="translate(2409.791666412696 148.33333333333076) rotate(0 84.375 21.59999999999991)"><text x="84.375" y="34.762499999999996" font-family="Cascadia, Segoe UI Emoji" font-size="36px" fill="#1e1e1e" text-anchor="middle" style="white-space: pre;" direction="ltr" dominant-baseline="alphabetic">payment/</text></g><g transform="translate(1835.8333330793635 226.66666666666652) rotate(0 90.234375 84)"><text x="0" y="27.0375" font-family="Cascadia, Segoe UI Emoji" font-size="28px" fill="#1e1e1e" text-anchor="start" style="white-space: pre;" direction="ltr" dominant-baseline="alphabetic">/socials</text><text x="0" y="60.6375" font-family="Cascadia, Segoe UI Emoji" font-size="28px" fill="#1e1e1e" text-anchor="start" style="white-space: pre;" direction="ltr" dominant-baseline="alphabetic">create</text><text x="0" y="94.23750000000001" font-family="Cascadia, Segoe UI Emoji" font-size="28px" fill="#1e1e1e" text-anchor="start" style="white-space: pre;" direction="ltr" dominant-baseline="alphabetic">/delete</text><text x="0" y="127.8375" font-family="Cascadia, Segoe UI Emoji" font-size="28px" fill="#1e1e1e" text-anchor="start" style="white-space: pre;" direction="ltr" dominant-baseline="alphabetic">/update{id}</text><text x="0" y="161.4375" font-family="Cascadia, Segoe UI Emoji" font-size="28px" fill="#1e1e1e" text-anchor="start" style="white-space: pre;" direction="ltr" dominant-baseline="alphabetic">/populate</text></g><g stroke-linecap="round" transform="translate(1784.1666664126972 153.3333333333312) rotate(0 145 140)"><path d="M0 0 C96.69 0, 193.38 0, 290 0 M0 0 C74.05 0, 148.1 0, 290 0 M290 0 C290 66.36, 290 132.71, 290 280 M290 0 C290 111.15, 290 222.31, 290 280 M290 280 C209.13 280, 128.26 280, 0 280 M290 280 C182.04 280, 74.08 280, 0 280 M0 280 C0 178.91, 0 77.81, 0 0 M0 280 C0 195.16, 0 110.32, 0 0" stroke="#1e1e1e" stroke-width="1" fill="none"></path></g><g transform="translate(1855.3385414126972 158.3333333333312) rotate(0 73.828125 21.59999999999991)"><text x="73.828125" y="34.762499999999996" font-family="Cascadia, Segoe UI Emoji" font-size="36px" fill="#1e1e1e" text-anchor="middle" style="white-space: pre;" direction="ltr" dominant-baseline="alphabetic">social/</text></g><g transform="translate(107.49999974603122 296.6666666666656) rotate(0 65.625 16.799999999999955)"><text x="0" y="27.0375" font-family="Cascadia, Segoe UI Emoji" font-size="28px" fill="#1e1e1e" text-anchor="start" style="white-space: pre;" direction="ltr" dominant-baseline="alphabetic">/players</text></g><g stroke-linecap="round" transform="translate(47.499999746031335 199.99999999999773) rotate(0 124.99999999999994 110)"><path d="M0 0 C82.11 0, 164.23 0, 250 0 M0 0 C66.08 0, 132.16 0, 250 0 M250 0 C250 67, 250 133.99, 250 220 M250 0 C250 67.75, 250 135.51, 250 220 M250 220 C157.8 220, 65.61 220, 0 220 M250 220 C161.94 220, 73.89 220, 0 220 M0 220 C0 137.31, 0 54.63, 0 0 M0 220 C0 151.27, 0 82.54, 0 0" stroke="#1e1e1e" stroke-width="1" fill="none"></path></g><g transform="translate(98.67187474603122 204.99999999999773) rotate(0 73.828125 21.59999999999991)"><text x="73.828125" y="34.762499999999996" font-family="Cascadia, Segoe UI Emoji" font-size="36px" fill="#1e1e1e" text-anchor="middle" style="white-space: pre;" direction="ltr" dominant-baseline="alphabetic">player/</text></g><g stroke-linecap="round"><g transform="translate(839.1666664126974 2246.666666666664) rotate(0 -364.7438087105037 -906.6666666666663)"><path d="M0 0 C-230.4 0, -460.8 0, -725 0 M0 0 C-148.49 0, -296.99 0, -725 0 M-725 0 C-726.68 -678.53, -728.36 -1357.07, -729.49 -1813.33 M-725 0 C-726.44 -580.2, -727.87 -1160.4, -729.49 -1813.33" stroke="#1e1e1e" stroke-width="1" fill="none"></path></g></g><mask></mask><g stroke-linecap="round"><g transform="translate(829.1666664127005 3027.3333333333294) rotate(0 -188.50680548621045 -1307.0833333333321)"><path d="M0 0 C-102.97 0, -205.94 0, -371.67 0 M0 0 C-86.36 0, -172.71 0, -371.67 0 M-371.67 0 C-372.76 -535.8, -373.86 -1071.59, -377.01 -2614.17 M-371.67 0 C-373.23 -762.62, -374.79 -1525.23, -377.01 -2614.17" stroke="#1e1e1e" stroke-width="1" fill="none"></path></g></g><mask></mask><g stroke-linecap="round" transform="translate(394.1666664126999 149.83333333333076) rotate(0 176.66666666666657 130)"><path d="M0 0 C102.75 0, 205.51 0, 353.33 0 M0 0 C97.63 0, 195.27 0, 353.33 0 M353.33 0 C353.33 72.67, 353.33 145.33, 353.33 260 M353.33 0 C353.33 88.25, 353.33 176.49, 353.33 260 M353.33 260 C219.85 260, 86.37 260, 0 260 M353.33 260 C253.08 260, 152.83 260, 0 260 M0 260 C0 192.93, 0 125.85, 0 0 M0 260 C0 171.61, 0 83.22, 0 0" stroke="#1e1e1e" stroke-width="1" fill="none"></path></g><g transform="translate(444.27083307936647 154.83333333333076) rotate(0 126.5625 21.59999999999991)"><text x="126.5625" y="34.762499999999996" font-family="Cascadia, Segoe UI Emoji" font-size="36px" fill="#1e1e1e" text-anchor="middle" style="white-space: pre;" direction="ltr" dominant-baseline="alphabetic">imagePlayer/</text></g><g transform="translate(431.6666664127 231.49999999999864) rotate(0 139.453125 67.20000000000005)"><text x="0" y="27.0375" font-family="Cascadia, Segoe UI Emoji" font-size="28px" fill="#1e1e1e" text-anchor="start" style="white-space: pre;" direction="ltr" dominant-baseline="alphabetic">/imagePlayers</text><text x="0" y="60.6375" font-family="Cascadia, Segoe UI Emoji" font-size="28px" fill="#1e1e1e" text-anchor="start" style="white-space: pre;" direction="ltr" dominant-baseline="alphabetic">/uploadImage/{id}</text><text x="0" y="94.23750000000001" font-family="Cascadia, Segoe UI Emoji" font-size="28px" fill="#1e1e1e" text-anchor="start" style="white-space: pre;" direction="ltr" dominant-baseline="alphabetic">/getImage</text><text x="0" y="127.8375" font-family="Cascadia, Segoe UI Emoji" font-size="28px" fill="#1e1e1e" text-anchor="start" style="white-space: pre;" direction="ltr" dominant-baseline="alphabetic">/getImageData</text></g><g mask="url(#mask-xYfNdpctecYgExh4QkYEO)" stroke-linecap="round"><g transform="translate(1064.1666664126997 2108.1666666666624) rotate(0 -1.2079226507921703e-13 -276.6666666666665)"><path d="M0 0 C0 -111.15, 0 -222.29, 0 -423.33 M0 0 C0 -136.8, 0 -273.59, 0 -423.33 M0 -423.33 C0 -457.1, 0 -490.88, 0 -553.33 M0 -423.33 C0 -473.8, 0 -524.27, 0 -553.33" stroke="#1e1e1e" stroke-width="1" fill="none"></path></g></g><mask id="mask-xYfNdpctecYgExh4QkYEO"><rect x="0" y="0" fill="#fff" width="1164.1666664127" height="2761.4999999999955"></rect><rect x="937.6041664126997" y="1663.2333333333295" fill="#000" width="253.125" height="43.199999999999996" opacity="1"></rect></mask><g transform="translate(937.6041664126997 1663.2333333333295) rotate(0 126.56249999999989 168.26666666666642)"><text x="126.5625" y="34.762499999999996" font-family="Cascadia, Segoe UI Emoji" font-size="36px" fill="#1e1e1e" text-anchor="middle" style="white-space: pre;" direction="ltr" dominant-baseline="alphabetic">List&lt;String&gt;</text></g><g stroke-linecap="round" transform="translate(2025.8333330793632 1029.9999999999989) rotate(0 146.66666666666652 201.66666666666652)"><path d="M0 0 C114.58 0, 229.15 0, 293.33 0 M0 0 C66.43 0, 132.87 0, 293.33 0 M293.33 0 C293.33 109.7, 293.33 219.4, 293.33 403.33 M293.33 0 C293.33 94.07, 293.33 188.15, 293.33 403.33 M293.33 403.33 C203.32 403.33, 113.31 403.33, 0 403.33 M293.33 403.33 C179.92 403.33, 66.51 403.33, 0 403.33 M0 403.33 C0 304.14, 0 204.95, 0 0 M0 403.33 C0 254.75, 0 106.17, 0 0" stroke="#1e1e1e" stroke-width="1" fill="none"></path></g><g transform="translate(2106.87499974603 1034.9999999999989) rotate(0 65.625 16.799999999999955)"><text x="65.625" y="27.0375" font-family="Cascadia, Segoe UI Emoji" font-size="28px" fill="#1e1e1e" text-anchor="middle" style="white-space: pre;" direction="ltr" dominant-baseline="alphabetic">@Payment</text></g><g transform="translate(2079.166666412697 1109.9999999999984) rotate(0 106.640625 100.80000000000007)"><text x="0" y="27.0375" font-family="Cascadia, Segoe UI Emoji" font-size="28px" fill="#1e1e1e" text-anchor="start" style="white-space: pre;" direction="ltr" dominant-baseline="alphabetic">id</text><text x="0" y="60.6375" font-family="Cascadia, Segoe UI Emoji" font-size="28px" fill="#1e1e1e" text-anchor="start" style="white-space: pre;" direction="ltr" dominant-baseline="alphabetic">date</text><text x="0" y="94.23750000000001" font-family="Cascadia, Segoe UI Emoji" font-size="28px" fill="#1e1e1e" text-anchor="start" style="white-space: pre;" direction="ltr" dominant-baseline="alphabetic">cost</text><text x="0" y="127.8375" font-family="Cascadia, Segoe UI Emoji" font-size="28px" fill="#1e1e1e" text-anchor="start" style="white-space: pre;" direction="ltr" dominant-baseline="alphabetic">concept</text><text x="0" y="161.4375" font-family="Cascadia, Segoe UI Emoji" font-size="28px" fill="#1e1e1e" text-anchor="start" style="white-space: pre;" direction="ltr" dominant-baseline="alphabetic">isPaid</text><text x="0" y="195.0375" font-family="Cascadia, Segoe UI Emoji" font-size="28px" fill="#1e1e1e" text-anchor="start" style="white-space: pre;" direction="ltr" dominant-baseline="alphabetic">Player player</text></g><g transform="translate(2078.82910130853 1347.233333333333) rotate(0 87.6708984375 16.100000000000023)"><text x="0" y="25.760546874999996" font-family="Helvetica, Segoe UI Emoji" font-size="28px" fill="#1e1e1e" text-anchor="start" style="white-space: pre;" direction="ltr" dominant-baseline="alphabetic">_PLAYER_FK</text></g><g transform="translate(2045.5989580793632 902.9333333333323) rotate(0 90.234375 50.39999999999998)"><text x="0" y="27.0375" font-family="Cascadia, Segoe UI Emoji" font-size="28px" fill="#1e1e1e" text-anchor="start" style="white-space: pre;" direction="ltr" dominant-baseline="alphabetic">@ManyToOne</text><text x="0" y="60.6375" font-family="Cascadia, Segoe UI Emoji" font-size="28px" fill="#1e1e1e" text-anchor="start" style="white-space: pre;" direction="ltr" dominant-baseline="alphabetic">@JoinColumn</text><text x="0" y="94.23750000000001" font-family="Cascadia, Segoe UI Emoji" font-size="28px" fill="#1e1e1e" text-anchor="start" style="white-space: pre;" direction="ltr" dominant-baseline="alphabetic">@JsonIgnore</text></g></svg>